<?xml version="1.0" encoding="UTF-8" standalone="no"?>
<!-- Created with Inkscape (http://www.inkscape.org/) -->

<svg
   xmlns:dc="http://purl.org/dc/elements/1.1/"
   xmlns:cc="http://creativecommons.org/ns#"
   xmlns:rdf="http://www.w3.org/1999/02/22-rdf-syntax-ns#"
   xmlns:svg="http://www.w3.org/2000/svg"
   xmlns="http://www.w3.org/2000/svg"
   xmlns:xlink="http://www.w3.org/1999/xlink"
   xmlns:sodipodi="http://sodipodi.sourceforge.net/DTD/sodipodi-0.dtd"
   xmlns:inkscape="http://www.inkscape.org/namespaces/inkscape"
   id="svg2491"
   sodipodi:version="0.32"
   inkscape:version="0.48.2 r9819"
   width="361.26987"
   height="463.28125"
   version="1.0"
   sodipodi:docname="AJAX.svg"
   inkscape:output_extension="org.inkscape.output.svg.inkscape"
   style="display:inline">
  <metadata
     id="metadata2496">
    <rdf:RDF>
      <cc:Work
         rdf:about="">
        <dc:format>image/svg+xml</dc:format>
        <dc:type
           rdf:resource="http://purl.org/dc/dcmitype/StillImage" />
      </cc:Work>
    </rdf:RDF>
  </metadata>
  <defs
     id="defs2494">
    <linearGradient
       inkscape:collect="always"
       id="linearGradient3738">
      <stop
         style="stop-color:#ffffff;stop-opacity:1;"
         offset="0"
         id="stop3740" />
      <stop
         style="stop-color:#ffffff;stop-opacity:0;"
         offset="1"
         id="stop3742" />
    </linearGradient>
    <inkscape:perspective
       sodipodi:type="inkscape:persp3d"
       inkscape:vp_x="0 : 526.18109 : 1"
       inkscape:vp_y="0 : 1000 : 0"
       inkscape:vp_z="744.09448 : 526.18109 : 1"
       inkscape:persp3d-origin="372.04724 : 350.78739 : 1"
       id="perspective2498" />
    <inkscape:perspective
       id="perspective2460"
       inkscape:persp3d-origin="372.04724 : 350.78739 : 1"
       inkscape:vp_z="744.09448 : 526.18109 : 1"
       inkscape:vp_y="0 : 1000 : 0"
       inkscape:vp_x="0 : 526.18109 : 1"
       sodipodi:type="inkscape:persp3d" />
    <radialGradient
       inkscape:collect="always"
       xlink:href="#linearGradient3738"
       id="radialGradient3744"
       cx="110.98724"
       cy="469.36823"
       fx="110.98724"
       fy="469.36823"
       r="178.89796"
       gradientTransform="matrix(1,0,0,1.2848605,0,-140.52061)"
       gradientUnits="userSpaceOnUse" />
    <inkscape:perspective
       id="perspective5339"
       inkscape:persp3d-origin="372.04724 : 350.78739 : 1"
       inkscape:vp_z="744.09448 : 526.18109 : 1"
       inkscape:vp_y="0 : 1000 : 0"
       inkscape:vp_x="0 : 526.18109 : 1"
       sodipodi:type="inkscape:persp3d" />
    <inkscape:perspective
       id="perspective4362"
       inkscape:persp3d-origin="372.04724 : 350.78739 : 1"
       inkscape:vp_z="744.09448 : 526.18109 : 1"
       inkscape:vp_y="0 : 1000 : 0"
       inkscape:vp_x="0 : 526.18109 : 1"
       sodipodi:type="inkscape:persp3d" />
    <inkscape:perspective
       id="perspective6290"
       inkscape:persp3d-origin="372.04724 : 350.78739 : 1"
       inkscape:vp_z="744.09448 : 526.18109 : 1"
       inkscape:vp_y="0 : 1000 : 0"
       inkscape:vp_x="0 : 526.18109 : 1"
       sodipodi:type="inkscape:persp3d" />
    <inkscape:perspective
       id="perspective6432"
       inkscape:persp3d-origin="372.04724 : 350.78739 : 1"
       inkscape:vp_z="744.09448 : 526.18109 : 1"
       inkscape:vp_y="0 : 1000 : 0"
       inkscape:vp_x="0 : 526.18109 : 1"
       sodipodi:type="inkscape:persp3d" />
    <inkscape:perspective
       id="perspective7196"
       inkscape:persp3d-origin="0.5 : 0.33333333 : 1"
       inkscape:vp_z="1 : 0.5 : 1"
       inkscape:vp_y="0 : 1000 : 0"
       inkscape:vp_x="0 : 0.5 : 1"
       sodipodi:type="inkscape:persp3d" />
    <inkscape:perspective
       id="perspective7606"
       inkscape:persp3d-origin="0.5 : 0.33333333 : 1"
       inkscape:vp_z="1 : 0.5 : 1"
       inkscape:vp_y="0 : 1000 : 0"
       inkscape:vp_x="0 : 0.5 : 1"
       sodipodi:type="inkscape:persp3d" />
  </defs>
  <sodipodi:namedview
     inkscape:window-height="1004"
     inkscape:window-width="1280"
     inkscape:pageshadow="2"
     inkscape:pageopacity="0.0"
     guidetolerance="10.0"
     gridtolerance="10.0"
     objecttolerance="10.0"
     borderopacity="1.0"
     bordercolor="#666666"
     pagecolor="#ffffff"
     id="base"
     showgrid="false"
     inkscape:zoom="1"
     inkscape:cx="169.03683"
     inkscape:cy="365.30173"
     inkscape:window-x="-8"
     inkscape:window-y="-8"
     inkscape:current-layer="g2500"
     showguides="true"
     inkscape:guide-bbox="true"
     inkscape:window-maximized="1"
     fit-margin-top="0"
     fit-margin-left="0"
     fit-margin-right="0"
     fit-margin-bottom="0">
    <inkscape:grid
       type="xygrid"
       id="grid3253"
       visible="true"
       enabled="true"
       empspacing="5"
       snapvisiblegridlinesonly="true" />
  </sodipodi:namedview>
  <g
     inkscape:groupmode="layer"
     id="layer2"
     inkscape:label="Top"
     transform="translate(-762.21302,-233.6875)"
     style="display:inline">
    <g
       id="g8249"
       transform="translate(33.296635,0)">
      <g
         id="g7464"
         transform="translate(801.99998,-27.999999)">
        <g
           style="display:inline"
           id="g3390"
           transform="translate(-0.6396472,0)">
          <g
             transform="translate(-2.794927,0)"
             id="g2500">
            <path
               sodipodi:nodetypes="csscccsss"
               d="m 110.97048,723.15519 c 41.30491,-11.40429 94.58489,-42.34921 122.76769,-73.11934 24.225,-26.44888 38.27369,-66.04204 45.17437,-100.77043 16.65847,-83.83566 9.39782,-285.8281 9.39782,-285.8281 l -177.33988,0 -177.278895,0 c 0,0 -7.321635,201.99244 9.336841,285.8281 6.900679,34.72839 20.949365,74.32155 45.174367,100.77043 28.182797,30.77013 81.462778,61.71505 122.767687,73.11934 z"
               style="fill:#ffffff;fill-opacity:1;fill-rule:evenodd;stroke:none;display:inline"
               id="path3502"
               inkscape:connector-curvature="0" />
            <path
               style="fill:#00338c;fill-opacity:1;fill-rule:evenodd;stroke:#00338c;stroke-width:2.5;stroke-linecap:butt;stroke-linejoin:miter;stroke-miterlimit:4;stroke-opacity:1;stroke-dasharray:none;display:inline"
               d="m -66.387752,263.43817 c 0,0 -1.03162,26.33447 -1.4375,66.46013 -0.1286,12.71426 101.39669,113.5977 112.09375,133.47737 3.60656,6.70256 -96.18319,107.7859 -94.53125,113.3125 8.0055,26.7825 20.40348,53.6883 38.40625,73.3438 2.9360207,3.2055 6.1236507,6.4066 9.5625007,9.5937 L 110.98724,525.18817 224.26849,659.62567 c 3.43885,-3.1871 6.65773,-6.3882 9.59375,-9.5937 18.00276,-19.6555 30.36947,-46.5613 38.375,-73.3438 1.65194,-5.5266 -98.13781,-106.60994 -94.53125,-113.3125 10.69706,-19.87967 112.22235,-120.76311 112.09375,-133.47737 -0.40588,-40.12566 -1.43747,-66.46013 -1.4375,-66.46013 L 227.6984,265.93683 110.98724,402.52947 -7.301603,265.93683 -66.387752,263.43817 z"
               id="path3504"
               sodipodi:nodetypes="ccssscccssscccccc"
               inkscape:connector-curvature="0" />
            <path
               sodipodi:nodetypes="csscccsss"
               d="m 110.97048,723.15519 c 41.30491,-11.40429 94.58489,-42.34921 122.76769,-73.11934 24.225,-26.44888 38.27369,-66.04204 45.17437,-100.77043 16.65847,-83.83566 9.39782,-285.8281 9.39782,-285.8281 l -177.33988,0 -177.278895,0 c 0,0 -7.321635,201.99244 9.336841,285.8281 6.900679,34.72839 20.949365,74.32155 45.174367,100.77043 28.182797,30.77013 81.462778,61.71505 122.767687,73.11934 z"
               style="fill:none;stroke:#aa8800;stroke-width:3.5;stroke-linecap:butt;stroke-linejoin:miter;stroke-miterlimit:4;stroke-opacity:1;stroke-dasharray:none;display:inline"
               id="path3512"
               inkscape:connector-curvature="0" />
          </g>
          <g
             id="g3368">
            <path
               id="path3255"
               style="fill:#fdce39;fill-opacity:1;fill-rule:evenodd;stroke:#aa8800;stroke-width:2.5;stroke-linecap:butt;stroke-linejoin:miter;stroke-miterlimit:4;stroke-opacity:1;stroke-dasharray:none"
               d="m 107.60758,585.93683 c 18.28688,-5.14065 42.45278,-21.86462 54.93012,-35.73474 10.72511,-11.92224 16.94487,-29.76946 20,-45.42382 7.37519,-37.79022 4.16069,-128.84144 4.16069,-128.84144 l -78.5135,0 -78.486494,0 c 0,0 -3.2415,91.05122 4.13369,128.84144 3.05513,15.65436 9.27489,33.50158 20,45.42382 12.47734,13.87012 35.488623,30.59409 53.775494,35.73474 z"
               sodipodi:nodetypes="csscccsss"
               inkscape:connector-curvature="0" />
            <path
               id="path3366"
               style="fill:#fdce39;fill-opacity:1;fill-rule:evenodd;stroke:none;display:inline"
               d="m 107.75168,565.249 c 13.77526,-4.1043 31.9791,-17.45672 41.3781,-28.5306 8.07908,-9.51871 12.76435,-23.76793 15.06572,-36.26637 5.55563,-30.17171 2.48347,-108.38456 2.48347,-108.38456 l -59.14315,0 -59.122794,0 c 0,0 -1.791049,78.21285 3.764582,108.38456 2.301387,12.49844 6.986648,26.74766 15.065726,36.26637 9.399009,11.07388 26.733093,24.4263 40.508346,28.5306 z"
               sodipodi:nodetypes="csscccsss"
               inkscape:connector-curvature="0" />
            <g
               id="g3347">
              <g
                 transform="translate(-3.8275895,1.62514)"
                 id="g3662">
                <path
                   style="fill:#ffffff;fill-rule:evenodd;stroke:#000000;stroke-width:0.99337065px;stroke-linecap:butt;stroke-linejoin:miter;stroke-opacity:1"
                   d="m 113.33782,423.22752 6.48308,-3.6785 5.02438,3.35864 -5.34854,3.51857 -6.15892,-1.75929 0,-1.43942 z"
                   id="path3216"
                   inkscape:connector-curvature="0" />
                <path
                   sodipodi:type="arc"
                   style="fill:#001e69;fill-opacity:1;fill-rule:evenodd;stroke:none;stroke-width:1;marker:none;visibility:visible;display:inline;overflow:visible;enable-background:accumulate"
                   id="path3233"
                   sodipodi:cx="557.78784"
                   sodipodi:cy="870.71521"
                   sodipodi:rx="1.0535002"
                   sodipodi:ry="0.86996889"
                   d="m 558.84134,870.71521 c 0,0.48047 -0.47167,0.86997 -1.0535,0.86997 -0.58183,0 -1.0535,-0.3895 -1.0535,-0.86997 0,-0.48047 0.47167,-0.86997 1.0535,-0.86997 0.58183,0 1.0535,0.3895 1.0535,0.86997 z"
                   transform="matrix(1.2528052,0,0,1.4506408,-579.29493,-840.06553)" />
                <g
                   id="g3240"
                   transform="matrix(1,0,0,0.9867852,-646.15088,99.004497)">
                  <g
                     transform="translate(-67.953769,163.54252)"
                     id="g3205">
                    <g
                       id="g3191"
                       transform="translate(-42.423402,-161.94862)">
                      <path
                         sodipodi:nodetypes="cssssssscsssssscccscsccccsscsccccsscsccsscscccccsscsccssscscsscsccccscsccccsscsccsscscccsscsccccsscscccccsscscccscsccsscsccccscscccc"
                         d="m 876.75793,337.29545 c 0,0 -3.711,-1.78201 -5.5548,-2.26974 -1.4049,-0.37163 -3.3851,-0.22037 -4.8382,-0.23892 -1.5055,-0.0192 -3.6926,-0.0521 -5.1368,-0.47784 -1.0392,-0.30638 -1.4677,-1.10517 -2.0308,-2.03082 -0.469,-0.77094 -0.4211,-2.08631 -0.3583,-2.98649 0.0438,-0.6287 0.6729,-1.40916 0.7764,-2.03082 0.0826,-0.49618 0.0748,-1.20844 -0.1194,-1.67244 -0.373,-0.89104 -1.55383,-2.36265 -1.55383,-2.36265 0,0 0.12553,2.1494 0.0605,3.01968 -0.0889,1.19095 -1.4476,2.51365 -1.553,3.70326 -0.0589,0.66473 -0.1891,1.55459 -0.1085,2.38319 0.1057,1.08536 0.4876,2.10837 1.0045,2.81331 0.9583,1.30699 2.3075,1.87505 3.8227,2.4501 1.6355,0.62069 4.0495,0.70378 5.7938,0.83504 2.396,0.1803 8.0038,0.29865 8.0038,0.29865 l 1.7919,-1.43351 z m 7.67554,91.43414 c 0,0 -0.1462,2.12014 -0.6231,2.85618 -0.4422,0.68254 -2.1811,1.60986 -2.1811,1.60986 0,0 2.1926,0.29291 3.0639,0 1.1489,-0.38625 3.012,-3.01199 3.012,-3.01199 l -0.8829,-2.70039 0.8309,-6.07589 3.791,3.99866 c 0,0 1.4224,-0.12082 1.9733,-0.36351 0.6615,-0.29145 1.1506,-0.74602 1.4541,-1.40213 0.3472,-0.75062 0.2077,-2.23302 0.2077,-2.23302 0,0 -0.961,0.88955 -1.6098,1.09054 -0.5036,0.15599 -2.1811,-0.83089 -2.1811,-0.83089 l -4.4661,-1.45406 -4.1025,1.76564 -3.8948,-3.47935 c 0,0 -1.6563,-0.25928 -2.3888,0.0519 -0.7932,0.33696 -1.4804,1.41218 -1.8695,2.18109 -0.3106,0.61366 -0.2078,1.3502 -0.2078,1.3502 0,0 0.7368,-0.65678 1.4542,-0.83089 1.044,-0.25341 3.1677,0.8309 3.1677,0.8309 l 1.2983,1.92143 c 0,0 -2.2974,1.76705 -3.1678,2.64847 -0.7625,0.77218 -1.8222,1.82268 -2.285,2.80426 -0.3388,0.71853 -0.1039,2.38881 -0.1039,2.38881 0,0 0.9546,-1.14743 1.7138,-1.40213 0.9896,-0.33201 3.4794,0 3.4794,0 l 4.3621,-3.32357 0.1558,1.60986 z m -36.6372,-22.59469 0.6647,-4.48632 c 0,0 -0.6297,-1.97061 -1.1632,-2.65857 -0.4461,-0.57524 -1.2161,-1.2779 -1.9108,-1.49544 -0.8338,-0.26112 -2.9078,0.16616 -2.9078,0.16616 0,0 2.2007,1.19828 2.7416,2.077 0.9431,1.53204 1.0801,5.89869 1.0801,5.89869 l -1.4955,1.66161 c 0,0 -1.9606,-0.89535 -2.8247,-0.74773 -0.7428,0.12689 -1.6477,0.79308 -2.077,1.41237 -0.5407,0.78002 -0.7507,2.12489 -0.7477,3.07396 0.002,0.61658 0.4985,1.6616 0.4985,1.6616 0,0 0.8131,-1.54759 1.4955,-1.91084 1.0619,-0.56531 3.3231,0.74772 3.3231,0.74772 0,0 -1.4376,1.95415 -1.8277,2.90781 -0.3091,0.75566 -0.7243,1.8547 -0.5816,2.65856 0.1704,0.9599 1.7447,2.74164 1.7447,2.74164 0,0 -0.1781,-2.33728 0.4985,-2.9078 0.686,-0.57836 2.9908,0 2.9908,0 l 4.9018,-5.73253 2.4093,3.32321 -1.53838,2.33923 c 0,0 1.28098,2.10084 1.20608,3.06097 -0.076,0.9745 -1.0801,3.07397 -1.0801,3.07397 0,0 2.4102,-1.54354 2.9909,-2.57549 0.4461,-0.79276 0.4985,-2.99088 0.4985,-2.99088 l -2.1601,-6.06485 -6.7295,-5.23405 z m -3.7776,-39.56742 c 0,0 -0.1152,-2.58579 -0.6441,-3.79341 -0.3299,-0.75306 -1.042,-1.73317 -1.7894,-2.07564 -1.1908,-0.54561 -4.2229,-0.57259 -4.2229,-0.57259 0,0 1.8939,1.5341 2.4336,2.29036 1.0315,1.44568 1.6461,5.15331 1.6461,5.15331 l -4.5807,-3.50711 c 0,0 -1.8511,-0.29675 -2.5051,0 -0.654,0.29675 -1.1047,1.09249 -1.503,1.71777 -0.3983,0.62528 -0.6442,1.71777 -0.6442,1.71777 0,0 0.8874,-0.56551 2.0756,-0.57259 1.1882,-0.007 4.1513,2.57665 4.1513,2.57665 l 2.7914,1.6462 -4.4006,2.47391 c 0,0 -2.0864,0.73759 -2.3989,1.46264 -0.2976,0.69043 -0.5781,2.05439 -0.4294,2.79138 0.1539,0.76298 1.0736,2.36194 1.0736,2.36194 0,0 0.0354,-1.78984 0.5726,-2.21879 0.5707,-0.45573 2.8814,-0.74342 2.8814,-0.74342 l 5.3495,-5.26878 1.5031,0 0,4.72387 c 0,0 -1.4871,1.70977 -1.5746,2.79138 -0.051,0.62946 0.4026,1.80358 0.3579,2.43351 -0.0626,0.88128 -0.2148,1.6462 -0.2148,1.6462 0,0 1.3933,-0.99773 2.0757,-2.07564 0.4799,-0.75807 1.0736,-2.79138 1.0736,-2.79138 l -0.7158,-7.44367 -3.1492,-1.3599 0.7873,-3.36397 z m 10.84453,-41.36034 c 0.2787,-0.29142 0.497,-0.82005 0.5723,-1.21618 0.1247,-0.65607 0.5225,-1.35243 0.4396,-2.34032 -0.1252,-1.49356 -1.8697,-2.16738 -1.8697,-2.16738 0,0 0.4141,1.37719 0.2903,1.95793 -0.1255,0.58844 -1.0779,1.69129 -1.0779,1.69129 l -4.8647,3.86316 2.65037,-7.44357 c 0,0 -0.41607,-1.78942 -0.80647,-2.43938 -0.4275,-0.7116 -2.1642,-1.63567 -2.1642,-1.63567 0,0 0.6077,1.23858 0.4487,1.92887 -0.0774,0.336 -0.36555,1.24514 -0.36555,1.24514 l -1.90905,7.05689 c 0,0 -2.5325,-3.19822 -4.078,-3.64827 -0.7254,-0.21122 -1.8879,-0.97471 -2.7791,-0.6472 -1.4193,0.52165 -2.4796,2.32765 -2.4796,2.32765 0,0 2.0991,-0.38938 2.8561,0.0121 0.49,0.25994 0.5073,3.02785 0.5073,3.02785 l 7.4756,5.43798 -2.0746,2.43236 -2.7186,-0.0715 c 0,0 -2.3277,2.1101 -3.577,2.5039 -0.7164,0.22583 -1.7885,0.28616 -1.7885,0.28616 0,0 1.7829,1.3009 3.0047,1.50234 0.8747,0.1442 2.9332,-0.3577 2.9332,-0.3577 l 5.3655,-4.93626 0.5723,-5.50857 c 0,0 4.1631,-1.52947 5.437,-2.8616 z"
                         style="fill:#001e69;fill-opacity:1;fill-rule:evenodd;stroke:#001e69;stroke-width:1px;stroke-linecap:butt;stroke-linejoin:miter;stroke-opacity:1"
                         id="path3188"
                         inkscape:connector-curvature="0" />
                      <g
                         transform="translate(-94.64027,-6.1454721)"
                         id="g3174">
                        <path
                           style="fill:#c81404;fill-opacity:1;fill-rule:evenodd;stroke:#800000;stroke-width:1px;stroke-linecap:butt;stroke-linejoin:miter;stroke-opacity:1"
                           d="m 973.62666,364.22732 c 0,0 -1.4686,5.35111 -1.1916,7.66028 0.2699,2.25054 1.8842,4.81375 2.5534,6.97938 0.6624,2.14353 1.1927,5.18178 1.8726,7.31982 0.8941,2.81176 2.5143,6.42538 3.9152,9.02212 0.8406,1.55826 1.9005,3.77235 3.2344,4.93663 0.8949,0.78109 2.3985,1.53697 3.5748,1.70229 0.9228,0.1297 2.3706,0.11179 3.0641,-0.51069 0.9867,-0.8856 1.0112,-2.94223 1.1916,-4.25572 0.132,-0.96128 0.0376,-2.35662 -0.3924,-3.23434 -0.7492,-1.52908 -2.6239,-3.08827 -4.0336,-3.99318 -1.7494,-1.12294 -5.4235,-1.48989 -6.913,-2.94003 -0.6717,-0.65398 -0.6939,-1.49339 -0.7472,-2.42936 -0.0599,-1.0511 1.1061,-2.78689 1.1061,-2.78689 0,0 0.2255,1.62849 0.4475,2.36165 0.1601,0.52869 0.3426,1.01573 0.8296,1.27638 0.5853,0.31325 1.5502,-0.0396 2.2129,0 1.2836,0.0767 3.0241,0.14111 4.2557,0.51069 0.4375,0.13129 1.3619,0.68091 1.3619,0.68091 0,0 -0.88587,-5.18841 -1.99077,-7.31983 -0.8223,-1.58621 -2.4906,-3.41474 -3.0641,-5.10686 -0.7259,-2.1418 -0.8792,-5.22875 -0.8511,-7.49005 0.0231,-1.85597 0.4379,-4.31869 0.8511,-6.12823 0.3344,-1.46428 1.2788,-3.28594 1.5321,-4.7664 0.1123,-0.65629 0.2243,-1.5632 0.062,-2.21857 -0.4176,-1.68687 -1.765,-5.24859 -1.765,-5.24859 0,0 1.3889,0.17756 2.3993,0.75851 0.4515,0.25957 0.8786,1.00896 0.9844,1.15434 0.7036,0.9665 1.234,2.147 1.234,2.147 0,0 0.5822,-1.90739 0.3196,-3.57207 -0.2843,-1.80265 -1.7732,-3.96553 -1.8725,-5.78777 -0.0823,-1.51012 0.2935,-3.34032 1.2771,-4.48918 0.8513,-0.99438 2.7786,-1.1995 3.8298,-1.97951 0.8777,-0.65124 1.8625,-1.85869 2.2129,-2.89388 0.3111,-0.91907 0.3835,-1.57239 0.3835,-1.57239 0,0 0.9515,1.63751 0.8081,3.10445 -0.0933,0.95494 -0.7804,2.13063 -1.3618,2.89388 -0.5706,0.74907 -1.9897,1.18724 -2.3832,2.04275 -0.3628,0.78874 -0.3184,2.08619 0,2.89388 0.3842,0.97484 1.9166,1.61524 2.3832,2.55343 0.5309,1.06745 0.9619,2.79139 1.0644,3.97918 0.0747,0.86495 -0.1051,2.00764 -0.3835,2.82996 -0.3505,1.03521 -1.3506,2.22258 -2.213,2.89389 -0.6138,0.47779 -1.7411,0.58239 -2.3832,1.02137 -0.4209,0.28772 -1.1908,1.21245 -1.1908,1.21245 0,0 1.3015,-0.31873 1.8718,-0.36131 0.7501,-0.056 1.5771,0.51561 2.4662,0.63192 0.5607,0.0734 1.2616,-0.14988 1.6192,-0.46169 0.812,-0.70799 1.2993,-2.29638 1.2993,-2.29638 0,0 0.5664,1.81355 0.2328,3.14753 -0.2717,1.08655 -1.5746,2.17931 -2.5534,2.72365 -1.3655,0.75935 -3.7722,0.20909 -5.1069,1.02138 -0.838,0.51001 -1.6223,1.66709 -2.0427,2.55342 -0.6267,1.32127 -0.8673,3.31216 -1.0214,4.76641 -0.113,1.06647 -0.3273,2.55352 0,3.5748 0.4022,1.25505 2.5534,3.5748 2.5534,3.5748 0,0 1.1376,-0.69724 1.3619,-1.1916 0.5487,-1.20912 0,-3.40321 0,-3.40321 0,0 1.7569,1.72257 2.0427,3.06275 0.2452,1.14983 0.254,2.81876 -0.1702,3.91526 -0.1439,0.372 -0.8512,1.02137 -0.8512,1.02137 0,0 0.0538,2.57555 0.43114,3.74503 0.4006,1.24157 0.5625,2.89774 1.1841,4.05951 0.3241,0.60577 1.22663,1.89849 1.22663,1.89849 0,0 1.1504,-1.58733 1.3618,-2.3832 0.1573,-0.5923 0.5107,-1.53206 0.5107,-1.53206 0,0 1.1302,2.86058 1.1916,4.42594 0.0558,1.42335 -0.6205,3.29122 -1.1916,4.59618 -0.3407,0.77865 -1.2925,1.5677 -1.532,2.3832 -0.2446,0.83298 -0.279,2.22745 -0.5107,3.06411 -0.2385,0.86093 -0.4049,1.73667 -1.0214,2.3832 -0.7624,0.79956 -2.0067,1.72259 -3.0641,2.04274 -1.0753,0.32557 -2.6486,0.24509 -3.745,0 -0.9364,-0.20931 -2.15,-0.75584 -2.8939,-1.36182 -1.5838,-1.29012 -4.0855,-5.44732 -4.0855,-5.44732 0,0 0.3659,2.15156 0.4306,3.08327 0.1123,1.6161 -0.3886,3.82729 0,5.39999 0.2318,0.93798 0.6434,2.40298 1.5,2.84999 0.6433,0.3357 1.6426,0.13899 2.1057,-0.3 0.4993,-0.47335 0.4442,-2.24999 0.4442,-2.24999 l 2.55,2.69999 2.85,-1.65 c 0,0 0.31,2.05315 0,2.84999 -0.2656,0.68272 -1.65,1.8 -1.65,1.8 0,0 1.3001,1.38917 1.7076,2.14619 0.5189,0.9641 0.9924,2.3089 0.9924,3.40379 0,1.36862 0.2529,2.44608 -0.2595,3.71517 -0.3271,0.8102 -1.1595,1.7133 -1.1595,1.7133 0,0 -0.0982,-1.10959 -0.4905,-1.7133 -0.2415,-0.37162 -1.35,-0.59999 -1.35,-0.59999 l -0.5583,4.00305 c 0,0 1.539,1.57952 1.5696,2.45252 0.0129,0.36853 -0.5886,1.07911 -0.5886,1.07911 0,0 -1.2685,0.20719 -1.5132,0.63428 -0.3769,0.65789 0.336,2.50495 0.336,2.50495 0,0 -1.1313,0.17212 -1.5696,0 -0.5234,-0.20552 -1.3734,-1.27531 -1.3734,-1.27531 0,0 0.8814,4.30322 0.0981,5.88605 -0.3081,0.62251 -1.8639,1.37341 -1.8639,1.37341 0,0 -0.4542,-1.35126 -0.981,-1.66772 -0.6432,-0.38641 -2.0602,0.19621 -2.0602,0.19621 l -0.4905,-1.17721 c 0,0 -1.0301,2.01325 -1.8639,2.35442 -0.6588,0.26957 -2.3544,-0.29431 -2.3544,-0.29431 0,0 0.3779,-2.13588 -0.0981,-2.84492 -0.3597,-0.5359 -1.962,-0.88291 -1.962,-0.88291 0,0 -0.188,-1.33729 0,-1.86392 0.2812,-0.78787 1.7658,-2.15821 1.7658,-2.15821 l -0.3924,-0.98101 c 0,0 0.9156,-1.09096 0.981,-1.66772 0.0661,-0.58266 -0.5886,-1.86391 -0.5886,-1.86391 0,0 1.77,-0.58298 2.4525,-0.29431 0.7156,0.30267 1.5696,2.06012 1.5696,2.06012 l 1.7659,0.0981 c 0,0 1.872,-1.73868 2.1582,-2.74682 0.4287,-1.51009 -0.5886,-5.19935 -0.5886,-5.19935 l -3.1393,-1.56961 c 0,0 -1.4014,0.74771 -2.0601,0.88291 -0.8937,0.18344 -2.2251,0.11371 -3.0411,-0.2943 -0.7897,-0.39485 -1.7658,-2.06012 -1.7658,-2.06012 0,0 0.2729,2.33928 -0.0981,3.23733 -0.2464,0.59656 -0.8923,1.28476 -1.4715,1.56961 -0.8225,0.40452 -2.1415,0.4694 -3.0412,0.2943 -0.7494,-0.14585 -2.2563,-1.56961 -2.2563,-1.56961 0,0 1.8678,0.24855 2.5506,-0.0981 0.8033,-0.40783 1.2817,-1.08136 1.4716,-1.96202 0.2301,-1.06758 -0.8213,-3.43229 -0.9811,-4.51264 -0.192,-1.29795 -0.8744,-4.4756 0.006,-7.47384 0.7412,-2.52292 3.1456,-4.51422 3.2309,-4.78876 0.4341,-1.39709 0.2943,-2.94303 0.2943,-2.94303 0,0 -1.9802,-0.01 -2.7468,0.0981 -0.8345,0.1175 -1.8914,0.65229 -2.5507,1.17721 -1.5428,1.2283 -3.0425,2.89909 -3.8259,4.70884 -0.296,0.68379 -0.6221,1.74369 -0.3924,2.45252 0.0898,0.27716 0.3954,0.69173 0.6867,0.68671 0.6038,-0.0104 1.3734,-1.47151 1.3734,-1.47151 0,0 0.5713,1.72919 0.3924,2.45252 -0.1413,0.57139 -0.7856,1.1302 -1.1772,1.56961 -0.5125,0.57503 -1.5474,1.06359 -1.8639,1.76582 -0.3509,0.77856 -0.36,2.03209 -0.0981,2.84492 0.2509,0.77881 1.6677,2.15822 1.6677,2.15822 0,0 -1.9551,0.96588 -2.8449,0.88291 -0.5637,-0.0526 -1.6677,-0.88291 -1.6677,-0.88291 0,0 -0.1322,1.84653 0.2943,2.45252 0.4545,0.64578 2.3544,1.17721 2.3544,1.17721 0,0 -2.3985,1.46536 -3.5316,1.37341 -1.3282,-0.10778 -3.826,-2.25632 -3.826,-2.25632 0,0 -1.2266,0.66767 -1.4715,1.17721 -0.1785,0.37136 -0.0746,0.9682 0,1.37342 0.1197,0.65044 0.8517,1.40215 0.7848,2.06011 -0.0388,0.38175 -0.6867,1.07911 -0.6867,1.07911 0,0 -1.1,-0.81211 -1.7658,-0.6867 -0.7701,0.14504 -1.5696,1.28139 -1.5696,1.28139 0,0 -1.2673,-0.89318 -1.4715,-1.5757 -0.1948,-0.65093 -0.0908,-1.64044 0.1962,-2.25631 0.0879,-0.18863 0.4905,-0.49051 0.4905,-0.49051 0,0 -0.9208,-0.24494 -1.2753,-0.0981 -0.7521,0.3115 -1.3229,1.37723 -1.7659,2.06012 -0.3368,0.51906 -0.3601,1.53304 -0.8829,1.86391 -0.4725,0.29902 -1.3709,0.26385 -1.8639,0 -0.3742,-0.20028 -0.7848,-1.17721 -0.7848,-1.17721 0,0 0.7709,-1.20369 0.6867,-1.76581 -0.1055,-0.70457 -1.4715,-1.86392 -1.4715,-1.86392 0,0 -1.5159,0.60016 -2.0601,0.2943 -0.5862,-0.32943 -0.8829,-2.06011 -0.8829,-2.06011 0,0 1.2308,-0.81959 1.4715,-1.37341 0.2815,-0.64781 0.0938,-1.65434 0,-2.35442 -0.0445,-0.33259 -0.2943,-1.07911 -0.2943,-1.07911 l 1.25143,0.13777 0.68213,0.0833 c 0,0 -0.0682,0.002 -0.94156,-0.84942 -0.90488,-0.88175 -0.99226,-1.46691 -0.992,-1.82415 5.9e-4,-0.80812 1.4715,-2.25631 1.4715,-2.25631 0,0 1.0145,0.99547 1.5696,0.981 0.7182,-0.0187 1.962,-1.37341 1.962,-1.37341 0,0 0.9136,0.87157 0.9811,1.37341 0.0794,0.59061 -0.6868,1.86392 -0.6868,1.86392 0,0 1.2418,1.43671 1.9621,1.76581 0.6474,0.29581 1.649,0.3894 2.3544,0.29431 0.9154,-0.12339 2.1506,-0.56804 2.8449,-1.17721 1.5064,-1.32172 3.3262,-3.78391 3.3354,-5.78795 0.006,-1.31779 -1.8068,-2.55586 -2.1582,-3.82594 -0.2984,-1.07822 -0.0981,-3.72783 -0.0981,-3.72783 0,0 -1.0138,1.84837 -1.8639,2.35443 -0.7591,0.45187 -2.1334,0.4516 -2.943,0.0981 -1.0707,-0.46753 -1.8055,-1.42113 -2.3544,-2.45253 -0.5299,-0.99578 -0.7849,-2.64872 -0.7849,-2.64872 0,0 1.0537,0.84688 1.864,1.27531 0.5519,0.2918 1.4697,0.4973 2.0601,0.2943 1.0432,-0.3587 1.9101,-1.75059 2.5506,-2.64872 0.8636,-1.21092 1.1899,-3.37772 2.2563,-4.41454 0.9816,-0.9544 2.759,-1.81626 4.1203,-1.96201 1.5332,-0.16415 3.4697,0.91765 5.0031,1.07911 1.3759,0.14488 3.2989,0.43962 4.6107,-10e-6 0.6196,-0.20765 1.7659,-1.27531 1.7659,-1.27531 0,0 -1.53966,-2.40457 -2.43926,-3.12701 -0.9136,-0.73362 -1.5161,-1.36766 -2.6487,-1.66772 -0.7418,-0.19654 -1.14747,-0.33737 -1.78777,-0.76039 -2.0209,-1.33506 -3.88987,-6.016 -4.40587,-8.38245 -0.4959,-2.27453 -0.7454,-3.84783 0.3924,-5.8788 1.3246,-2.36436 7.4556,-5.10124 7.4556,-5.10124 l 8.976,0.99298 z"
                           id="path3246"
                           sodipodi:nodetypes="csssssssssssscsssscsssssscsscssssscssssssssscssscsssssscscsscsscscsssssssscsssscccscssscsccscscscscsccscscsccscsccsccsscssscssssscssssscsssscscscscssscscsscsssscscscsscccsscscscssssscssscssssssscssssscc"
                           inkscape:connector-curvature="0" />
                        <path
                           style="fill:#c81404;fill-opacity:1;fill-rule:evenodd;stroke:#800000;stroke-width:1;stroke-linecap:butt;stroke-linejoin:miter;stroke-miterlimit:4;stroke-opacity:1;stroke-dasharray:none"
                           d="m 972.06686,327.4053 c 0,2e-5 -2.69147,-0.0291 -3.58647,0.66508 -0.676,0.52431 -7.99893,2.18781 -9.61543,2.9375 -0.641,0.29735 -0.3087,0.80921 -0.5624,1.46875 -0.4622,1.20126 -0.4054,2.61225 -0.1563,3.875 0.1765,0.89518 0.4841,2.2854 1.25,2.78125 1.1823,0.76534 6.30293,0 6.30293,0 l 2.0624,-1.6875 c 0,2e-5 1.9194,0.51018 2.2188,1.03125 0.7889,1.37314 1.0852,3.95428 -0.1562,4.9375 -0.657,0.52033 -2.2252,-0.54182 -3.0313,-0.3125 -0.8486,0.2414 -1.2679,2.40407 -2.0937,2.09375 -0.6753,-0.25377 -0.1563,-2.40625 -0.1563,-2.40625 0,3e-5 -2.3494,-0.3856 -3.125,0.0937 -0.6389,0.39489 -1.0176,1.50273 -1.0937,2.25 -0.0755,0.74116 0.9882,1.75584 0.625,2.40625 -0.2444,0.43744 -1.5938,0.46875 -1.5938,0.46875 0,0 1.9641,0.95411 2.875,1.125 1.0377,0.19464 2.7085,0.48154 3.5938,-0.0937 0.3963,-0.25753 0.6562,-1.4375 0.6562,-1.4375 0,0 1.8258,-0.46528 2.375,0 0.4454,0.37736 0.5298,1.3529 0.3438,1.90625 -0.3788,1.12615 -2.67852,2.30388 -3.79192,2.71875 -0.5119,0.19075 -3.4851,0.3205 -5.75,-0.875 0,-2e-5 -2.2357,-1.07612 -3.125,-1.65625 -1.0516,-0.68606 -3.2812,-2.59375 -3.2813,-2.59375 10e-5,3e-5 0.1199,2.08608 0.5,2.875 0.2802,0.58164 0.62866,1.68291 0.62866,1.68291 0,2e-5 -1.33964,-0.20904 -2.06606,-0.71416 -1.11383,-0.77451 -2.047,-2.23601 -2.75078,-3.66323 -0.30439,-0.6173 -0.56589,-1.22817 -0.78052,-1.77427 -0.30301,-0.77098 -0.1392,-1.9587 -0.4687,-2.71875 -0.5727,-1.32084 -2.875,-3.84375 -2.875,-3.84375 l 0,-3.1875 c 0,3e-5 3.323,-1.63155 4.125,-3.03125 0.3339,-0.58296 0.8284,-1.35143 0.5,-1.9375 -0.4844,-0.86433 -1.9802,-1.72219 -2.9688,-1.65625 -0.8915,0.0595 -2.3125,2.46875 -2.3125,2.46875 0,2e-5 -0.1488,-0.23852 0.0313,-0.78125 0.2992,-0.90203 1.0069,-2.3635 1.0624,-2.96875 0.0539,-0.58627 -0.2187,-1.96875 -0.2187,-1.96875 0,10e-6 -1.2908,0.52694 -1.875,0.375 -0.6553,-0.17044 -1.4375,-1.375 -1.4375,-1.375 0,10e-6 -1.0586,0.35183 -1.3125,0.71875 -0.6732,0.97275 -0.5625,3.90625 -0.5625,3.90625 0,0 -1.4256,-1.80299 -2.25,-2.3125 -0.553,-0.34177 -1.875,0.65625 -1.875,0.65625 0,-2e-5 0.6254,1.45207 0.2812,2.4375 -0.3335,0.9552 -1.8125,1.8125 -1.8124,1.8125 -10e-5,-2e-5 -0.2004,1.66616 0.2187,2.375 0.5035,0.85156 1.7559,1.56774 2.5937,2.09375 0.8547,0.53661 3.0732,0.83903 2.8126,2.25 -0.221,1.19639 -1.7939,0.003 -2.4376,0.375 -0.9082,0.52535 -2.1562,2.71875 -2.1562,2.71875 0,10e-6 1.4229,0.4558 1.875,1.15625 0.3767,0.58377 0.0625,1.65625 0.0625,1.65625 0,2e-5 1.543,-0.16073 2.0937,-0.5 0.6285,-0.38712 1.1401,-1.28623 1.875,-1.21875 1.0439,0.0958 1.2061,1.54522 0.875,2.3125 -0.2459,0.56978 -1.658,0.12998 -2.1562,0.5 -1.1524,0.85595 -1.5938,4.1875 -1.5938,4.1875 0,-2e-5 1.5052,-1.30117 2.3126,-1.46875 0.5987,-0.12429 2,0.3125 2,0.3125 -10e-5,-10e-6 -0.8143,2.20786 -1.375,3.03125 -0.6134,0.90058 -2.5,2.625 -2.5,2.625 0,2e-5 3.2884,0.37021 4.625,0 0.7306,-0.20236 1.6562,-0.75 1.6562,-0.75 0,-2e-5 -0.7915,2.43395 -1.5312,3.1875 -0.679,0.69161 -2.3303,0.63597 -2.875,1.4375 -0.5625,0.82757 -0.3126,3.34375 -0.3126,3.34375 0,0 1.1239,-1.76003 1.9063,-2.03125 1.3263,-0.4598 3.2108,0.95925 4.5937,0.71875 1.0701,-0.18608 3.1876,-1.71875 3.1876,-1.71875 -10e-5,10e-6 -0.5879,3.43159 -1.7188,4.1875 -0.6846,0.45761 -2.1132,0.13418 -2.75,0.65625 -1.1964,0.98079 -1.5312,4.40625 -1.5312,4.40625 0,-3e-5 1.9875,-1.96113 2.9687,-2.25 1.3331,-0.39243 3.5476,0.51061 4.9063,0.21875 1.7249,-0.37055 3.1249,-0.71875 3.125,-0.71875 -10e-5,10e-6 -0.9288,2.69029 -1.6563,3.0625 -1.351,0.69124 -2.8183,0.88429 -4.2187,1.46875 -1.2165,0.50767 -2.1415,1.33299 -3.375,1.71875 -0.8274,0.25874 -1.8418,-0.0154 -2.6563,0.28125 -1.3297,0.48435 -4.5,1.84375 -4.5,1.84375 0,10e-6 0.2308,-1.10434 0.2813,-2.375 0.0337,-0.8501 0.0438,-1.90574 -0.3438,-2.3125 -0.3153,-0.33088 -1.5312,-1.08337 -1.5312,-1.08337 0,-3e-5 -0.64006,1.4555 -1.16276,1.78994 -0.4381,0.28034 -1.61268,-0.15625 -1.61268,-0.15625 l 0.52544,2.86981 c -10e-5,2e-5 -1.2111,-1.46955 -1.9376,-1.92013 -0.5169,-0.32062 -1.9374,0.125 -1.9374,0.125 0,3e-5 0.4616,1.46737 0.2187,2.21875 -0.1605,0.49619 -1.1563,1.28125 -1.1563,1.28125 0,10e-6 0.3483,2.06856 1,2.59375 0.6493,0.52308 2.4688,0.5 2.4688,0.5 l -3.0625,1.65625 c -9e-5,5e-5 -0.1493,0.95212 0,1.3125 0.2581,0.62289 1.3357,0.97085 1.5937,1.59375 0.2954,0.71292 0,2.09375 0,2.09375 0,-10e-6 1.5572,0.59398 2.2188,0.28125 1.3422,-0.63442 3,-3.6875 3,-3.6875 l 1,0 c 0,-2e-5 0.3437,0.96767 0.1562,1.3125 -0.218,0.48202 -1.1281,1.44247 -1.1874,2.1875 -0.0542,0.68025 0.75,2.125 0.75,2.125 0,3e-5 1.0688,-0.73196 1.7187,-0.75 0.6249,-0.0173 1.25,0.90625 1.25,0.90625 0,3e-5 0.9815,-1.07564 1.1563,-1.65625 0.3426,-1.13877 -0.6079,-3.7678 0.0624,-4.75 0.572,-0.838 2.1709,-0.91271 3.0313,-0.375 0.7022,0.43884 0.3186,1.92282 0.2813,2.75 -0.0288,0.63682 -0.4063,2.0625 -0.4063,2.0625 0,-2e-5 2.2689,-0.95058 3.0313,-1.78125 0.5117,-0.55769 1.2812,-2.3125 1.2812,-2.3125 10e-5,-10e-6 0.6538,1.86623 1.3125,2.3125 1.0859,0.73574 4.3125,0.5625 4.3125,0.5625 0,-2e-5 -2.2849,-1.96095 -2.4375,-3.15625 -0.1366,-1.07076 0.5053,-2.71786 1.4063,-3.3125 0.3809,-0.25145 0.81275,-1.2841 1.15286,-0.97969 0.12568,0.11249 0.39953,1.7307 2.0843,3.93689 1.58161,2.07111 3.16561,2.9535 3.16561,2.9535 0,0 -0.59292,-1.51325 -1.34854,-3.94061 -0.6901,-2.21687 -0.39016,-3.55129 -0.28065,-4.07478 0.29679,-1.41868 2.07012,-2.61406 2.07012,-2.61406 0,3e-5 -0.34036,1.64206 -0.009,2.625 0.3504,1.038 0.64966,1.82442 1.32636,2.68599 0.6925,0.88171 2.60086,1.13414 2.88356,2.2191 0.3079,1.18168 -0.97871,3.10903 -0.97871,3.10903 -5e-5,-10e-6 1.23427,0.0209 2.24396,-0.56926 0.80676,-0.47154 1.29507,-1.30881 1.48887,-1.86613 0.36368,-1.04586 0.10118,-1.24762 -0.29452,-2.28177 -0.4912,-1.28361 -1.73866,-2.46106 -1.87966,-3.82821 -0.1159,-1.12286 0.9062,-2.84375 0.9062,-2.84375 0,-2e-5 1.0977,3.09189 1.49511,4.14027 0.35029,0.92407 1.98664,1.41434 2.79862,2.37139 0.42349,0.49915 0.6683,2.0115 0.86759,2.4678 0.3714,0.85037 -1.85797,5.65008 -1.85797,5.65008 0,0 3.3199,-2.21669 3.5676,-2.68683 0.5238,-0.99389 1.98188,-2.45247 1.84303,-3.56733 -0.0938,-0.75281 -0.24674,-3.37631 -0.77754,-4.25557 -0.47919,-0.79376 -1.67116,-4.1475 -1.7053,-4.83149 -0.0657,-1.31719 -0.0141,-1.40395 -0.0141,-1.40395 0,-10e-6 0.9396,0.76173 2.1717,1.78703 0.6818,0.56745 1.20883,0.3319 1.89553,0.89338 0.7637,0.62431 1.39225,1.82289 1.47185,2.80606 0.0447,0.55181 0.1384,1.6818 -0.4062,1.78125 -0.736,0.13439 -1.8125,-0.90625 -1.8126,-0.90625 10e-5,-2e-5 0.0946,0.83798 0.4376,1.59375 0.1822,0.40166 0.6569,0.90741 1.0937,0.96875 0.772,0.10843 1.926,-0.43546 2.3437,-1.09375 1.512,-2.38251 1.30812,-4.35856 0.63262,-7.09831 -0.4487,-1.82023 -3.69822,-4.58078 -4.01372,-6.42878 -0.2893,-1.69496 0.8125,-5.6875 0.8126,-5.6875 0,-2e-5 0.9847,2.30183 1.8124,2.90625 0.6909,0.50449 2.75,0.6875 2.75,0.6875 0,10e-6 -0.8553,-2.16506 -0.9687,-3.15625 -0.2789,-2.43807 1.1371,-5.80179 0.5625,-8.1875 -0.2833,-1.17621 -0.90818,-2.35465 -1.20818,-3.4375 -0.2999,-1.08287 0,-3.46875 0,-3.46875 10e-5,-10e-6 0.9439,1.12063 1.7188,1.40625 0.5111,0.18842 1.302,0.12246 1.75,-0.1875 0.8807,-0.6093 1.9375,-2.3125 1.9375,-2.3125 0,0 -1.05,-0.40974 -1.375,-0.59375 -0.6317,-0.35764 -0.2069,-1.69436 -0.5313,-2.34375 -0.5416,-1.08444 -1.09926,-2.07479 -1.09926,-2.07479 0,1e-5 1.18476,-0.34475 2.03686,-0.67521 0.4923,-0.19101 1.066,-0.75489 1.25,-1.25 0.3912,-1.05316 -0.2813,-3.3125 -0.2813,-3.3125 0,3e-5 -0.7924,1.93786 -1.5313,1.9375 -0.9771,-4.7e-4 -1.1583,-2.06597 -2,-2.5625 -0.7773,-0.45859 -3.56298,-0.94418 -3.56298,-0.94418 0,1e-5 0.88708,-0.6039 1.56298,-0.80582 0.51218,-0.153 1.7704,0.32532 2.76496,0.23106 0.71113,-0.0674 1.22935,-0.65989 1.5102,-0.91909 0.89739,-0.82823 0.56864,-3.43697 0.56864,-3.43697 0,2e-5 -1.31204,1.50084 -2.22494,1.61218 -1.0541,0.12854 -2.12016,-1.13329 -3.30626,-1.17468 -1.0815,-0.0378 -4.33872,2.26282 -4.33872,2.26282 0,0 -3.54361,-0.3029 -3.54361,-0.3029 z m -0.68453,3.44842 c 0.33,-0.0128 0.639,0.0355 0.9375,0.1875 0.6719,0.34206 1.12926,1.34166 1.12936,1.34166 l 0.29348,0.499 -0.66544,0.26326 -0.0269,-0.0803 c -0.0644,0.29995 -0.3984,0.72179 -0.6949,1.03677 -0.5615,0.59651 -1.3987,0.7592 -2.1562,0.46875 -0.4539,-0.17398 -0.97444,-0.6289 -1.10434,-0.80764 l -1.10815,-0.21151 0.51242,-0.62198 c 0,0 0.33177,-0.60213 0.70007,-0.98487 0.3682,-0.38273 0.67254,-0.66061 1.18314,-0.87191 0.319,-0.132 0.67,-0.20594 1,-0.21875 z"
                           id="path2472"
                           sodipodi:nodetypes="csssssccsssscssscsscssssssscssssccssscsscscscscsssssscscsssscscscscsscsscsscssssssscsscsccscscscssscscccscscsssscscscsssscsscssscsssscssscsssscsssssssssssscssscsscsscsscsscssscsscscsccccsscccssc"
                           inkscape:connector-curvature="0" />
                        <path
                           style="fill:#ef0404;fill-opacity:1;fill-rule:evenodd;stroke:#800000;stroke-width:1px;stroke-linecap:butt;stroke-linejoin:miter;stroke-opacity:1"
                           d="m 1402.9136,789.07622 c 0,0 1.4951,-0.1881 2.372,-0.65051 0.8236,-0.43427 1.2774,-1.895 1.2217,-2.27296 -0.069,-0.47163 -3.6745,0.43321 -3.8137,0.9596 -0.182,0.68833 0.22,1.96387 0.22,1.96387 z"
                           id="path3166"
                           transform="translate(-445.09653,-455.93683)"
                           sodipodi:nodetypes="csssc"
                           inkscape:connector-curvature="0" />
                        <path
                           style="fill:#800000;fill-opacity:1;fill-rule:evenodd;stroke:none"
                           d="m 978.91687,330.89239 0.0625,1.25 c 0,0 0.018,0.16861 0,0.375 -0.018,0.20639 -0.0993,0.42852 -0.15625,0.53125 -0.19024,0.34324 -0.51848,0.4962 -1.03125,0.6875 -0.51277,0.1913 -1.1759,0.40154 -1.625,1.03125 -0.36474,0.51143 -0.49423,1.19687 -0.59375,1.8125 -0.0995,0.61563 -0.125,1.15625 -0.125,1.15625 0,0 1.03367,-0.4038 1.125,-0.96875 0.0913,-0.56495 0.2884,-1.24099 0.40625,-1.40625 0.2334,-0.32726 0.62857,-0.49064 1.15625,-0.6875 0.52768,-0.19686 1.18294,-0.44017 1.5625,-1.125 0.0542,-0.0978 0.0606,-0.18348 0.0937,-0.28125 0.24683,0.33154 0.49585,0.72927 0.53125,0.90625 0.20854,1.04266 0.27626,2.62459 -0.0625,3.34375 -0.22436,0.47633 -1.11978,1.50931 -1.59375,2.0625 -0.28097,0.3279 -0.91076,0.78955 -0.71875,1.21875 l 0.53125,1.1875 c 0,0 0.14258,-0.35588 0.34375,-0.75 0.20117,-0.39412 0.48863,-0.84086 0.625,-1 0.45033,-0.52559 1.33779,-1.47247 1.71875,-2.28125 0.55612,-1.1806 0.38755,-2.84355 0.15625,-4 -0.11729,-0.58646 -0.50704,-1.05731 -0.84375,-1.46875 -0.33671,-0.41144 -0.65625,-0.71875 -0.65625,-0.71875 l -0.90625,-0.875 z"
                           id="path3168"
                           sodipodi:nodetypes="ccssssscsssscsssscssssscc"
                           inkscape:connector-curvature="0" />
                      </g>
                    </g>
                    <path
                       style="fill:#800000;fill-opacity:1;fill-rule:evenodd;stroke:none"
                       d="m 835.88305,170.03775 c 0,0 0.72278,1.12476 1.00348,1.36055 0.2807,0.23579 0.6121,0.54326 0.6875,0.65625 0.1163,0.17432 0.3272,0.70614 0.4687,1.15625 0.0415,0.13168 0.0302,0.13787 0.0626,0.25 l -1.4688,0.0625 -0.9688,0.0312 0.625,0.78125 c 0,0 0.2341,0.28671 0.5,0.65625 0.266,0.36954 0.5403,0.82695 0.625,1.03125 0.068,0.16364 0.1863,0.64381 0.25,1.03125 0.005,0.0331 -0.005,0.0305 0,0.0625 l -2,-0.3125 -1.0937,-0.1875 0.5937,0.9375 c 0,0 0.1845,0.29489 0.375,0.65625 0.1906,0.36136 0.3584,0.83744 0.375,0.96875 0.004,0.0277 -0.0328,0.24996 -0.0624,0.4375 -0.0644,-0.0449 -0.0547,-0.0471 -0.125,-0.0937 -0.4224,-0.2797 -0.882,-0.57129 -1.4376,-0.625 -0.5811,-0.0562 -1.1539,0.1672 -1.6562,0.375 -0.5023,0.2078 -0.9063,0.4375 -0.9062,0.4375 l 0.2812,-0.0625 c 0,0 0.5791,0.74955 1.0312,0.5625 0.4522,-0.18705 1.0242,-0.35652 1.1563,-0.34375 0.1065,0.0103 0.5916,0.25026 0.9687,0.5 0.3772,0.24974 0.6875,0.5 0.6876,0.5 l 0.5624,0.46875 0.2188,-0.71875 c 0,0 0.0823,-0.25119 0.1562,-0.5625 0.074,-0.31132 0.1724,-0.65728 0.125,-1.03125 -0.0503,-0.3972 -0.2558,-0.74315 -0.4374,-1.09375 l 1.7187,0.28125 0.625,0.0937 -0.0625,-0.65625 c 0,0 -0.0257,-0.33616 -0.0938,-0.75 -0.068,-0.41385 -0.1615,-0.88631 -0.3124,-1.25 -0.1549,-0.37319 -0.4243,-0.78792 -0.6876,-1.15625 l 1.82681,0.0177 c 0,0 -0.33161,-1.09888 -0.48301,-1.58021 -0.1514,-0.48133 -0.3298,-1.04192 -0.5938,-1.4375 -0.2229,-0.33401 -0.49796,-0.7434 -0.875,-0.875 l -1.65968,-0.5793 z"
                       id="path3199"
                       sodipodi:nodetypes="csssccccsssccccsscsssccssscccssccccssccsssc"
                       inkscape:connector-curvature="0" />
                  </g>
                  <path
                     sodipodi:nodetypes="ccssccssc"
                     id="path3215"
                     d="m 763.68384,383.66754 -0.99917,0.36438 c 0,0 0.4378,0.69619 0.9063,1.59375 0.4685,0.89756 0.9594,1.99512 1.0937,2.71875 0.2601,1.40015 0.375,4.25 0.375,4.25 l 1,-0.0312 c 0,0 -0.0811,-2.79242 -0.375,-4.375 -0.1775,-0.95589 -0.7315,-2.09787 -1.2187,-3.03125 -0.4872,-0.93338 -0.78213,-1.48938 -0.78213,-1.48938 z"
                     style="fill:#800000;fill-opacity:1;fill-rule:evenodd;stroke:none"
                     inkscape:connector-curvature="0" />
                  <path
                     sodipodi:nodetypes="cccccsssccsssccccscsscssscsc"
                     d="m 754.90347,358.28192 -1.375,0.5 -4.25,1.59375 0.3438,0.9375 2.9687,-1.125 c -0.2934,0.50055 -0.396,0.68237 -0.8437,1.53125 -0.7992,1.5151 -1.6533,3.30726 -1.875,4.625 -0.1827,1.0852 0.007,2.5026 0.2187,3.6875 0.2119,1.1849 0.4375,2.125 0.4375,2.125 l 0.9688,-0.25 c 0,0 -0.2337,-0.92267 -0.4376,-2.0625 -0.2038,-1.13983 -0.3556,-2.53029 -0.2187,-3.34375 0.1723,-1.02375 0.9992,-2.82975 1.7813,-4.3125 0.782,-1.48275 1.5312,-2.65625 1.5312,-2.65625 l 0.75,-1.25 z m -5.0103,-11.06829 -1.2397,-0.088 c 0,0 0.7219,2.03448 1.6562,3.25 0.3623,0.4712 0.6396,0.72659 0.9376,1 -0.9197,0.0948 -2.133,0.25504 -3.4063,0.6875 -0.5795,0.19684 -1.199,0.67132 -1.75,1.09375 -0.5322,0.40801 -0.9401,0.7563 -0.9687,0.78125 0,0 -0.0801,0.82623 0.31691,0.86085 0.28576,0.0249 1.02676,-0.69317 1.24549,-0.86085 0.52269,-0.40071 1.1925,-0.8124 1.4688,-0.90625 1.11857,-0.37992 3.97546,-0.34099 4.49792,-1.08514 0.38362,-0.54641 -1.36676,-2.08561 -1.56042,-2.33755 -0.73639,-0.95795 -1.1978,-2.3956 -1.1978,-2.3956 z"
                     style="fill:#800000;fill-opacity:1;fill-rule:evenodd;stroke:none"
                     id="path3227"
                     inkscape:connector-curvature="0" />
                </g>
              </g>
              <path
                 d="m 113.86182,403.56682 c 0.47523,0.95884 1.51959,2.25396 2.33049,2.96035 0.5029,0.43809 1.34712,0.83471 2,0.98679 0.87592,0.20405 2.11162,0.14225 3,0 0.93643,-0.14995 3,-0.98679 3,-0.98679 0,0 -0.60776,1.43657 -1,1.97357 -0.49614,0.67927 -1.2782,1.53337 -2,1.97357 -0.807,0.49216 -2.05202,0.95086 -3,0.98679 -1.23602,0.0468 -2.98891,-0.28367 -4,-0.98679 -0.88417,-0.61485 -2,-1.81893 -2,-1.81893 0,0 0.15371,2.46859 -0.51711,3.79251 -0.67082,1.32391 -3.48289,3.94714 -3.48289,3.94714 0,0 -2.81207,-2.62323 -3.48289,-3.94714 -0.67082,-1.32392 -0.51711,-3.79251 -0.51711,-3.79251 0,0 -1.11583,1.20408 -1.99999,1.81893 -1.01109,0.70312 -2.763976,1.03363 -3.999996,0.98679 -0.94798,-0.0359 -2.193005,-0.49463 -3.000005,-0.98679 -0.7218,-0.4402 -1.50386,-1.2943 -2,-1.97357 -0.39224,-0.537 -1,-1.97357 -1,-1.97357 0,0 2.06357,0.83684 3,0.98679 0.88838,0.14225 2.124085,0.20405 3.000005,0 0.65288,-0.15208 1.4971,-0.5487 1.999996,-0.98679 0.8109,-0.70639 1.77264,-2.16458 2.24787,-3.12341 0.41679,-0.84096 0.75212,-2.7973 0.75212,-2.7973 l 10,0 c 0,0 0.25271,2.1194 0.66951,2.96036 z m -5.66951,-23.68285 -3,4.93393 -6.999996,-1.97357 4.999996,7.89428 10,0 5,-7.89428 -7,1.97357 -3,-4.93393 z m 5.66951,164.02013 c 0.47523,-0.95884 1.51959,-2.25396 2.33049,-2.96035 0.5029,-0.43808 1.34712,-0.8347 2,-0.98679 0.87592,-0.20404 2.11162,-0.14225 3,0 0.93643,0.14996 3,0.98679 3,0.98679 0,0 -0.60776,-1.43656 -1,-1.97357 -0.49614,-0.67927 -1.2782,-1.53337 -2,-1.97357 -0.807,-0.49216 -2.05202,-0.95086 -3,-0.98679 -1.23602,-0.0468 -2.98891,0.28367 -4,0.98679 -0.88417,0.61485 -2,1.81893 -2,1.81893 0,0 0.15371,-2.46859 -0.51711,-3.7925 -0.67082,-1.32391 -3.48289,-3.94714 -3.48289,-3.94714 0,0 -2.81207,2.62323 -3.48289,3.94714 -0.67082,1.32391 -0.51711,3.7925 -0.51711,3.7925 0,0 -1.11583,-1.20408 -1.99999,-1.81893 -1.01109,-0.70312 -2.763976,-1.03363 -3.999996,-0.98679 -0.94798,0.0359 -2.193001,0.49463 -3.000001,0.98679 -0.7218,0.4402 -1.503864,1.2943 -2.000004,1.97357 -0.39224,0.53701 -1,1.97357 -1,1.97357 0,0 2.06357,-0.83683 3.000004,-0.98679 0.88838,-0.14225 2.124081,-0.20404 3.000001,0 0.65288,0.15209 1.4971,0.54871 1.999996,0.98679 0.8109,0.70639 1.77264,2.16458 2.24787,3.12341 0.41679,0.84096 0.41082,8.50422 0.41082,8.50422 l 10,0 c 0,0 0.59401,-7.82632 1.01081,-8.66728 z m -5.66951,32.74996 -3,-4.93392 -6.999996,1.97357 4.999996,-7.89428 10,0 5,7.89428 -7,-1.97357 -3,4.93392 z M 58.914583,447.66891 c 0.97168,-0.46895 2.28415,-1.49951 3,-2.29969 0.44395,-0.49625 0.84588,-1.32932 1,-1.97357 0.20678,-0.86434 0.14416,-2.08372 0,-2.96036 -0.15196,-0.92405 -1,-2.96035 -1,-2.96035 0,0 1.4558,0.59973 2,0.98678 0.68836,0.48959 1.5539,1.26131 2,1.97357 0.49875,0.79634 0.96359,2.02491 1,2.96036 0.04747,1.21969 -0.28747,2.94941 -1,3.94714 -0.62309,0.87249 -1.84329,1.97357 -1.84329,1.97357 0,0 2.50165,-0.15168 3.84329,0.51028 1.34164,0.66195 4,3.43686 4,3.43686 0,0 -2.65836,2.77491 -4,3.43687 -1.34164,0.66195 -3.84329,0.51027 -3.84329,0.51027 0,0 1.2202,1.10109 1.84329,1.97356 0.71253,0.99773 1.04747,2.72746 1,3.94714 -0.03641,0.93546 -0.50125,2.16402 -1,2.96036 -0.4461,0.71226 -1.31164,1.484 -2,1.97358 -0.5442,0.38706 -2,0.98679 -2,0.98679 0,0 0.84804,-2.03631 1,-2.96037 0.14416,-0.87664 0.20678,-2.09601 0,-2.96036 -0.15412,-0.64425 -0.55605,-1.47731 -1,-1.97357 -0.71585,-0.80018 -2.19357,-1.74921 -3.16524,-2.21816 -0.85222,-0.41128 -2.83476,-0.74218 -2.83476,-0.74218 l 0,-9.86785 c 0,0 2.14778,-0.24937 3,-0.66067 z m -23.472711,5.59459 5,2.96036 -2,6.90749 8,-4.93392 0,-9.86785 -8,-4.93393 2,6.9075 -5,2.96035 z m 122.028178,-5.59459 c -0.97169,-0.46895 -2.28415,-1.49951 -3,-2.29969 -0.44395,-0.49625 -0.84588,-1.32932 -1,-1.97357 -0.20679,-0.86434 -0.14416,-2.08372 0,-2.96036 0.15196,-0.92405 1,-2.96035 1,-2.96035 0,0 -1.45581,0.59973 -2,0.98678 -0.68837,0.48959 -1.5539,1.26131 -2,1.97357 -0.49875,0.79634 -0.9636,2.02491 -1,2.96036 -0.0475,1.21969 0.28746,2.94941 1,3.94714 0.62308,0.87249 1.84329,1.97357 1.84329,1.97357 0,0 -2.50165,-0.15168 -3.84329,0.51028 -1.34165,0.66195 -4,3.43686 -4,3.43686 0,0 2.65835,2.77491 4,3.43687 1.34164,0.66195 3.84329,0.51027 3.84329,0.51027 0,0 -1.22021,1.10109 -1.84329,1.97356 -0.71254,0.99773 -1.04747,2.72746 -1,3.94714 0.0364,0.93546 0.50125,2.16402 1,2.96036 0.4461,0.71226 1.31163,1.484 2,1.97358 0.54419,0.38706 2,0.98679 2,0.98679 0,0 -0.84804,-2.03631 -1,-2.96037 -0.14416,-0.87664 -0.20679,-2.09601 0,-2.96036 0.15412,-0.64425 0.55605,-1.47731 1,-1.97357 0.71585,-0.80018 2.19357,-1.74921 3.16523,-2.21816 0.85223,-0.41128 2.83477,-0.74218 2.83477,-0.74218 l 0,-9.86785 c 0,0 -2.14779,-0.24937 -3,-0.66067 z m 23.47271,5.59459 -5,2.96036 2,6.90749 -8,-4.93392 0,-9.86785 8,-4.93393 -2,6.9075 5,2.96035 z m -134.11622,-61.01973 -2.1606,4.89091 c 0,0 -1.68765,-1.33441 -2.58273,-1.64465 -0.16847,-0.0584 -1.01194,-0.245 -1.70728,-0.0412 -0.65587,0.19224 -1.16128,0.75637 -1.44776,1.30887 -1.24971,2.41013 -1.12016,5.72741 -1.12016,5.72741 0,0 -1.70408,-1.47342 -2.26402,-3.62982 -0.33118,-1.27539 -0.36912,-2.65616 -0.18962,-3.998 0.36654,-2.73992 4.29807,-4.14785 4.29807,-4.14785 0,0 -1.86554,-1.65169 -2.32955,-3.05926 -0.46402,-1.40758 -0.32729,-5.22376 -0.39204,-5.17132 -0.06474,0.0524 3.80255,-0.0825 5.22898,0.37541 1.42642,0.45787 3.10023,2.29876 3.10023,2.29876 0,0 1.42678,-3.87957 4.2034,-4.24127 1.3598,-0.17713 2.75907,-0.13969 4.05154,0.18711 2.18527,0.55254 3.67843,2.23411 3.67843,2.23411 0,0 -3.36171,-0.12784 -5.80411,1.10535 -0.5599,0.2827 -1.13159,0.78143 -1.3264,1.42863 -0.20653,0.68615 -0.01742,1.51848 0.04175,1.68472 0.31439,0.88325 1.66667,2.5486 1.66667,2.5486 l -4.9448,2.14349 z m 22.652629,21.91055 -1.355829,-5.59619 6.400067,-3.42389 -9.170033,-2.18668 -7.589655,-0.56907 0.446075,7.4744 2.026453,9.092 3.600945,-6.24356 5.641977,1.45299 z m 100.078921,-21.91055 2.1606,4.89091 c 0,0 1.68765,-1.33441 2.58273,-1.64465 0.16847,-0.0584 1.01194,-0.245 1.70728,-0.0412 0.65587,0.19224 1.16128,0.75637 1.44776,1.30887 1.24971,2.41013 1.12016,5.72741 1.12016,5.72741 0,0 1.70408,-1.47342 2.26402,-3.62982 0.33118,-1.27539 0.36912,-2.65616 0.18962,-3.998 -0.36654,-2.73992 -4.29807,-4.14785 -4.29807,-4.14785 0,0 1.86554,-1.65169 2.32955,-3.05926 0.46402,-1.40758 0.32729,-5.22376 0.39204,-5.17132 0.0647,0.0524 -3.80255,-0.0825 -5.22898,0.37541 -1.42642,0.45787 -3.10023,2.29876 -3.10023,2.29876 0,0 -1.42678,-3.87957 -4.2034,-4.24127 -1.3598,-0.17713 -2.75907,-0.13969 -4.05154,0.18711 -2.18527,0.55254 -3.67843,2.23411 -3.67843,2.23411 0,0 3.36171,-0.12784 5.80411,1.10535 0.5599,0.2827 1.13159,0.78143 1.3264,1.42863 0.20653,0.68615 0.0174,1.51848 -0.0418,1.68472 -0.31439,0.88325 -1.66667,2.5486 -1.66667,2.5486 l 4.9448,2.14349 z m -22.65263,21.91055 1.35583,-5.59619 -6.40007,-3.42389 9.17003,-2.18668 7.58966,-0.56907 -0.44608,7.4744 -2.02645,9.092 -3.60094,-6.24356 -5.64198,1.45299 z M 60.918695,534.01601 c -0.613665,0.87897 -1.245154,2.4123 -1.471235,3.4561 -0.140207,0.64733 -0.07638,1.56783 0.109549,2.20386 0.249437,0.85331 0.910113,1.88561 1.471486,2.5798 0.591741,0.7317 2.342932,2.09575 2.342932,2.09575 0,0 -1.566753,0.182 -2.233383,0.1081 -0.843222,-0.0935 -1.981088,-0.34705 -2.72388,-0.75182 -0.830461,-0.45256 -1.846221,-1.2982 -2.34293,-2.09577 -0.647632,-1.03991 -1.215534,-2.70938 -1.090539,-3.92374 0.109305,-1.06189 0.625331,-2.61202 0.625331,-2.61202 0,0 -2.104653,1.34301 -3.602851,1.41553 -1.498197,0.0725 -5.194117,-1.05897 -5.194117,-1.05897 0,0 0.937303,-3.70488 1.777432,-4.93109 0.840129,-1.22622 3.09557,-2.30489 3.09557,-2.30489 0,0 -1.610645,-0.36894 -2.587314,-0.82767 -1.116865,-0.5246 -2.268532,-1.86984 -2.833428,-2.9557 -0.43325,-0.83282 -0.638845,-2.12843 -0.600044,-3.06379 0.03471,-0.83663 0.405385,-1.92807 0.761897,-2.6879 0.281848,-0.60068 1.252391,-1.82795 1.252391,-1.82795 0,0 0.273153,2.18498 0.600044,3.0638 0.310119,0.83372 0.861655,1.92664 1.471487,2.57978 0.454542,0.48685 1.218888,1.01827 1.852435,1.23585 1.021566,0.35083 2.781046,0.46261 3.860899,0.40098 0.442243,-0.0252 1.130842,2.34766 2.375445,4.55401 1.420823,2.51876 3.369727,4.93682 3.082823,5.34775 z m 18.148944,-15.53638 -5.81825,0.3796 -2.346254,-6.8006 -3.723731,8.55344 5.699455,8.10823 9.423187,-0.44519 -5.632984,-4.55094 2.398577,-5.24454 z m 76.398301,15.53638 c 0.61366,0.87897 1.24515,2.4123 1.47123,3.4561 0.14021,0.64733 0.0764,1.56783 -0.10955,2.20386 -0.24943,0.85331 -0.91011,1.88561 -1.47148,2.5798 -0.59174,0.7317 -2.34293,2.09575 -2.34293,2.09575 0,0 1.56675,0.182 2.23338,0.1081 0.84322,-0.0935 1.98109,-0.34705 2.72388,-0.75182 0.83046,-0.45256 1.84622,-1.2982 2.34293,-2.09577 0.64763,-1.03991 1.21553,-2.70938 1.09054,-3.92374 -0.10931,-1.06189 -0.62533,-2.61202 -0.62533,-2.61202 0,0 2.10465,1.34301 3.60285,1.41553 1.49819,0.0725 5.19411,-1.05897 5.19411,-1.05897 0,0 -0.9373,-3.70488 -1.77743,-4.93109 -0.84013,-1.22622 -3.09557,-2.30489 -3.09557,-2.30489 0,0 1.61065,-0.36894 2.58732,-0.82767 1.11686,-0.5246 2.26853,-1.86984 2.83342,-2.9557 0.43325,-0.83282 0.63885,-2.12843 0.60005,-3.06379 -0.0347,-0.83663 -0.40539,-1.92807 -0.7619,-2.6879 -0.28185,-0.60068 -1.25239,-1.82795 -1.25239,-1.82795 0,0 -0.27315,2.18498 -0.60004,3.0638 -0.31012,0.83372 -0.86166,1.92664 -1.47149,2.57978 -0.45454,0.48685 -1.21889,1.01827 -1.85244,1.23585 -1.02156,0.35083 -2.78104,0.46261 -3.86089,0.40098 -0.44225,-0.0252 -1.13085,2.34766 -2.37545,4.55401 -1.42082,2.51876 -3.36973,4.93682 -3.08282,5.34775 z m -18.14895,-15.53638 5.81825,0.3796 2.34626,-6.8006 3.72373,8.55344 -5.69946,8.10823 -9.42318,-0.44519 5.63298,-4.55094 -2.39858,-5.24454 z"
                 style="fill:#c81404;fill-opacity:1;fill-rule:evenodd;stroke:#960000;stroke-width:0.99337065px;stroke-linecap:butt;stroke-linejoin:miter;stroke-opacity:1"
                 id="path3264"
                 inkscape:connector-curvature="0" />
              <path
                 d="m 44.146156,388.73361 -0.0625,2.18943 c 0,0 -0.5393,19.30069 -0.375,42.61679 0.1643,23.31609 1.013405,50.56674 3.96875,66.88553 2.436362,13.45306 7.317836,28.82197 16.15625,39.40974 10.197203,12.21553 28.776657,24.03804 43.687494,28.55509 l 0.65625,0.18502 0.6875,-0.18502 c 14.91082,-4.51708 33.49029,-16.33956 43.6875,-28.55509 8.8384,-10.58777 13.71989,-25.95668 16.15625,-39.40974 2.95535,-16.31879 3.80445,-43.56944 3.96875,-66.88553 0.1643,-23.3161 -0.40625,-42.61679 -0.40625,-42.61679 l -0.0625,-2.18943 -2.1875,0.0308 -61.84375,0.18502 -61.812494,-0.18502 -2.21875,-0.0308 z m 4.40625,4.47137 59.624994,0.18502 0.0312,0 59.625,-0.18502 c 0.0792,2.92828 0.49333,19.07738 0.34375,40.30401 -0.16369,23.2289 -1.07894,50.50285 -3.90625,66.11461 -2.3545,13.00099 -7.20751,27.81504 -15.1875,37.37449 -9.22813,11.05465 -27.21334,22.52915 -40.90625,26.85906 -13.689752,-4.33614 -31.65258,-15.81126 -40.874994,-26.85906 -7.980006,-9.55945 -12.833007,-24.3735 -15.1875,-37.37449 -2.827302,-15.61177 -3.742565,-42.88571 -3.90625,-66.11461 -0.149576,-21.22663 0.264582,-37.37573 0.34375,-40.30401 z m 6.21875,5.88988 -0.0625,2.18943 c 0,0 -0.479901,16.7933 -0.34375,37.06611 0.136151,20.27282 0.858559,43.94134 3.3125,58.15866 2.022018,11.71484 6.057664,25.07669 13.4375,34.35246 8.503631,10.6883 23.902335,21.01352 36.374994,24.978 l 0.6875,0.21586 0.71875,-0.21586 c 12.47267,-3.9645 27.87137,-14.2897 36.375,-24.978 7.37983,-9.27578 11.41548,-22.63761 13.4375,-34.35246 2.45394,-14.21732 3.17635,-37.88584 3.3125,-58.15866 0.13615,-20.27281 -0.34375,-37.06611 -0.34375,-37.06611 l -0.0625,-2.18943 -2.1875,0.0308 -51.25,0.15419 -51.218744,-0.15419 -2.1875,-0.0308 z m 4.40625,4.47137 48.999994,0.15418 0.0312,0 49,-0.15418 c 0.0475,1.79942 0.44017,15.74437 0.3125,34.75334 -0.1356,20.1897 -0.91286,43.90881 -3.25,57.4494 -1.94734,11.28217 -5.97659,24.10943 -12.53125,32.34805 -7.55924,9.50129 -22.34834,19.3936 -33.5625,23.15862 -11.211113,-3.77148 -25.977648,-13.66442 -33.531244,-23.15862 -6.554672,-8.23862 -10.583915,-21.06589 -12.53125,-32.34805 -2.337136,-13.54058 -3.114407,-37.2597 -3.25,-57.4494 -0.127663,-19.00897 0.26504,-32.95392 0.3125,-34.75334 z"
                 style="fill:#c81404;fill-opacity:1;fill-rule:evenodd;stroke:#960000;stroke-width:0.99337065;stroke-linecap:butt;stroke-linejoin:miter;stroke-miterlimit:4;stroke-opacity:1;stroke-dasharray:none"
                 id="path3169"
                 inkscape:connector-curvature="0" />
            </g>
          </g>
        </g>
      </g>
    </g>
  </g>
</svg>
