<?xml version="1.0" encoding="UTF-8" standalone="no"?>
<svg
   xmlns:dc="http://purl.org/dc/elements/1.1/"
   xmlns:cc="http://creativecommons.org/ns#"
   xmlns:rdf="http://www.w3.org/1999/02/22-rdf-syntax-ns#"
   xmlns:svg="http://www.w3.org/2000/svg"
   xmlns="http://www.w3.org/2000/svg"
   xmlns:xlink="http://www.w3.org/1999/xlink"
   xmlns:sodipodi="http://sodipodi.sourceforge.net/DTD/sodipodi-0.dtd"
   xmlns:inkscape="http://www.inkscape.org/namespaces/inkscape"
   version="1.1"
   preserveAspectRatio="xMidYMid meet"
   zoomAndPan="magnify"
   id="Government Ensign of the United Kingdom"
   viewBox="-15 -7.5 5.6249981 7.002549"
   width="224.99992"
   height="280.10196"
   sodipodi:version="0.32"
   inkscape:version="0.47 r22583"
   sodipodi:docname="ZZ4.svg">
  <metadata
     id="metadata1372">
    <rdf:RDF>
      <cc:Work
         rdf:about="">
        <dc:format>image/svg+xml</dc:format>
        <dc:type
           rdf:resource="http://purl.org/dc/dcmitype/StillImage" />
      </cc:Work>
    </rdf:RDF>
  </metadata>
  <sodipodi:namedview
     inkscape:window-height="1004"
     inkscape:window-width="1280"
     inkscape:pageshadow="2"
     inkscape:pageopacity="0.0"
     borderopacity="1.0"
     bordercolor="#666666"
     pagecolor="#ffffff"
     id="base"
     inkscape:zoom="1.6662164"
     inkscape:cx="64.297872"
     inkscape:cy="127.22104"
     inkscape:window-x="-8"
     inkscape:window-y="-8"
     inkscape:current-layer="g6468"
     showgrid="false"
     inkscape:window-maximized="1" />
  <defs
     id="defs1350">
    <inkscape:perspective
       sodipodi:type="inkscape:persp3d"
       inkscape:vp_x="0 : 300 : 1"
       inkscape:vp_y="0 : 1000 : 0"
       inkscape:vp_z="1200 : 300 : 1"
       inkscape:persp3d-origin="600 : 200 : 1"
       id="perspective110" />
    <clipPath
       id="border">
      <rect
         x="-15"
         y="-7.5"
         width="30"
         height="15"
         id="rect1353" />
    </clipPath>
  </defs>
  <comment
     id="comment1357">The above line is the ensign field color: #CF142B red and #00247D blue</comment>
  <g
     id="g6468"
     transform="matrix(1.437291,0,0,1.437291,-15.915812,1.7558416)">
    <path
       d="m 0.63717904,-6.4397826 3.91361116,0 0,3.9934807 c 0,0.399348 -0.4792176,0.399348 -1.9168707,0.8785659 C 1.1962663,-2.0469539 0.64485695,-2.0715792 0.63717904,-2.4463019 l 0,-3.9934807 z m 0.15973936,0.1597392 3.5941327,0 0,3.8337415 c 0,0.1597392 -0.3194785,0.2396086 -1.7571316,0.7188265 C 1.1962663,-2.2066933 0.7969184,-2.2865627 0.7969184,-2.4463019 l 0,-3.8337415 z"
       id="path4720"
       style="fill:#076a21;fill-opacity:1;fill-rule:nonzero;stroke:none" />
    <g
       transform="matrix(0.02254098,0,0,0.02254098,-4.714085,-7.078739)"
       id="g1674">
      <path
         style="fill:#fed501;fill-opacity:1;fill-rule:evenodd;stroke:#917b01;stroke-width:0.34787673;stroke-linecap:butt;stroke-linejoin:miter;stroke-miterlimit:4;stroke-opacity:1"
         id="path1011"
         d="m 265.30699,205.5812 c 0,0 5.31374,-51.23954 4.17508,-51.6191 -1.13866,-0.37955 -2.84664,0.75911 -3.9853,0.18978 -1.13866,-0.56933 -0.0326,-3.52158 -0.0326,-3.52158 1.57648,-0.49141 3.14831,-0.52068 4.72944,-1.47423 1.58113,-0.95356 3.17157,-2.8314 4.75735,-4.2471 l -4.81339,-27.56478 c 5.80961,6.51188 9.26024,22.1527 10.25657,23.31648 0.9072,-1.59939 4.12687,-16.09349 10.38216,-23.84319 l -4.67157,27.61705 c 1.53114,1.69859 2.53135,3.53476 3.88422,4.38657 1.35287,0.85181 3.34208,1.71214 4.51668,1.71717 1.60443,-0.80221 1.16549,2.0954 0.0268,3.04428 -1.13865,0.94888 -3.98529,0.37955 -3.98529,0.37955 l 4.7444,51.6191 c 0,0 -8.16037,-2.27731 -14.42299,-2.65686 -6.26261,-0.37955 -15.56164,2.65686 -15.56164,2.65686 z" />
      <path
         style="fill:none;stroke:#917b01;stroke-width:0.34787673;stroke-linecap:butt;stroke-linejoin:miter;stroke-miterlimit:4;stroke-opacity:1"
         id="path1662"
         d="m 270.04807,170.8494 c 0.86862,-2.74291 1.48907,-21.4535 2.10952,-22.92291" />
      <path
         style="fill:none;stroke:#917b01;stroke-width:0.34787673;stroke-linecap:butt;stroke-linejoin:miter;stroke-miterlimit:4;stroke-opacity:1"
         id="path1663"
         d="m 272.52985,169.67387 c 0.24818,-2.74291 0.74453,-21.55146 0.74453,-21.55146" />
      <path
         style="fill:none;stroke:#917b01;stroke-width:0.34787673;stroke-linecap:butt;stroke-linejoin:miter;stroke-miterlimit:4;stroke-opacity:1"
         id="path1650"
         d="m 267.97886,204.41186 c 1.01015,-4.04061 1.73168,-31.60332 2.45322,-33.76793" />
      <path
         style="fill:none;stroke:#917b01;stroke-width:0.34787673;stroke-linecap:butt;stroke-linejoin:miter;stroke-miterlimit:4;stroke-opacity:1"
         id="path1664"
         d="m 274.51529,148.31833 -0.1241,21.35554" />
      <path
         style="fill:none;stroke:#917b01;stroke-width:0.34787673;stroke-linecap:butt;stroke-linejoin:miter;stroke-miterlimit:4;stroke-opacity:1"
         id="path1651"
         d="m 270.865,202.68017 c 0.28862,-4.04061 0.86585,-31.74762 0.86585,-31.74762" />
      <path
         style="fill:none;stroke:#917b01;stroke-width:0.34787673;stroke-linecap:butt;stroke-linejoin:miter;stroke-miterlimit:4;stroke-opacity:1"
         id="path1665"
         d="m 276.12844,169.47795 c 0.24817,-0.48981 0.12409,-21.06166 0.12409,-21.06166" />
      <path
         style="fill:none;stroke:#917b01;stroke-width:0.34787673;stroke-linecap:butt;stroke-linejoin:miter;stroke-miterlimit:4;stroke-opacity:1"
         id="path1652"
         d="m 273.17393,171.22116 -0.14431,31.45901" />
      <path
         style="fill:none;stroke:#917b01;stroke-width:0.34787673;stroke-linecap:butt;stroke-linejoin:miter;stroke-miterlimit:4;stroke-opacity:1"
         id="path1666"
         d="m 277.7416,169.37999 c 0,-1.46942 0.24817,-19.6902 0.12408,-20.96369" />
      <path
         style="fill:none;stroke:#917b01;stroke-width:0.34787673;stroke-linecap:butt;stroke-linejoin:miter;stroke-miterlimit:4;stroke-opacity:1"
         id="path1653"
         d="m 275.04992,202.39156 c 0.28861,-0.72154 0.14431,-31.0261 0.14431,-31.0261" />
      <path
         style="fill:none;stroke:#917b01;stroke-width:0.34787673;stroke-linecap:butt;stroke-linejoin:miter;stroke-miterlimit:4;stroke-opacity:1"
         id="path1654"
         d="m 276.92592,202.24725 c 0,-2.16461 0.28861,-29.00579 0.1443,-30.88178" />
      <path
         style="fill:none;stroke:#917b01;stroke-width:0.34787673;stroke-linecap:butt;stroke-linejoin:miter;stroke-miterlimit:4;stroke-opacity:1"
         id="path1655"
         d="m 278.94621,171.94269 0.14431,30.01594" />
      <path
         style="fill:none;stroke:#917b01;stroke-width:0.34787673;stroke-linecap:butt;stroke-linejoin:miter;stroke-miterlimit:4;stroke-opacity:1"
         id="path1656"
         d="m 281.25514,171.50977 -0.14431,30.16025" />
      <path
         style="fill:none;stroke:#917b01;stroke-width:0.34787673;stroke-linecap:butt;stroke-linejoin:miter;stroke-miterlimit:4;stroke-opacity:1"
         id="path1657"
         d="m 283.13113,171.36546 -0.1443,30.30456" />
      <path
         style="fill:none;stroke:#917b01;stroke-width:0.34787673;stroke-linecap:butt;stroke-linejoin:miter;stroke-miterlimit:4;stroke-opacity:1"
         id="path1658"
         d="m 285.15144,172.95285 -0.14431,29.2944" />
      <path
         style="fill:none;stroke:#917b01;stroke-width:0.34787673;stroke-linecap:butt;stroke-linejoin:miter;stroke-miterlimit:4;stroke-opacity:1"
         id="path1659"
         d="m 286.73882,172.66423 0.72154,30.01594" />
      <path
         style="fill:none;stroke:#917b01;stroke-width:0.34787673;stroke-linecap:butt;stroke-linejoin:miter;stroke-miterlimit:4;stroke-opacity:1"
         id="path1667"
         d="m 279.47883,148.80814 0.1241,20.37592" />
      <path
         style="fill:none;stroke:#917b01;stroke-width:0.34787673;stroke-linecap:butt;stroke-linejoin:miter;stroke-miterlimit:4;stroke-opacity:1"
         id="path1660"
         d="m 288.18189,172.66423 1.73169,30.01594" />
      <path
         style="fill:none;stroke:#917b01;stroke-width:0.34787673;stroke-linecap:butt;stroke-linejoin:miter;stroke-miterlimit:4;stroke-opacity:1"
         id="path1668"
         d="m 281.46427,148.51425 -0.12409,20.47389" />
      <path
         style="fill:none;stroke:#917b01;stroke-width:0.34787673;stroke-linecap:butt;stroke-linejoin:miter;stroke-miterlimit:4;stroke-opacity:1"
         id="path1661"
         d="m 290.2022,172.66423 2.16461,31.02609" />
      <path
         style="fill:none;stroke:#917b01;stroke-width:0.34787673;stroke-linecap:butt;stroke-linejoin:miter;stroke-miterlimit:4;stroke-opacity:1"
         id="path1669"
         d="m 283.07742,148.41629 -0.12408,20.57185" />
      <path
         style="fill:none;stroke:#917b01;stroke-width:0.34787673;stroke-linecap:butt;stroke-linejoin:miter;stroke-miterlimit:4;stroke-opacity:1"
         id="path1670"
         d="m 284.81468,149.49387 -0.1241,19.88612" />
      <path
         style="fill:none;stroke:#917b01;stroke-width:0.34787673;stroke-linecap:butt;stroke-linejoin:miter;stroke-miterlimit:4;stroke-opacity:1"
         id="path1671"
         d="m 286.17965,149.29794 0.62045,20.37593" />
      <path
         style="fill:none;stroke:#917b01;stroke-width:0.34787673;stroke-linecap:butt;stroke-linejoin:miter;stroke-miterlimit:4;stroke-opacity:1"
         id="path1672"
         d="m 287.42053,149.29794 1.48908,20.37593" />
      <path
         style="fill:none;stroke:#917b01;stroke-width:0.34787673;stroke-linecap:butt;stroke-linejoin:miter;stroke-miterlimit:4;stroke-opacity:1"
         id="path1673"
         d="m 289.15779,149.29794 1.86133,21.06166" />
      <path
         style="fill:#fed501;fill-opacity:1;fill-rule:evenodd;stroke:#917b01;stroke-width:0.34787673;stroke-linecap:butt;stroke-linejoin:miter;stroke-miterlimit:4;stroke-opacity:1"
         id="path1008"
         d="m 278.81562,139.77249 c 0,0 -15.02683,-0.42315 -17.30415,-1.18225 -2.27731,-0.75911 -3.60574,-0.75911 -3.60574,-0.75911 0,0 1.89776,-3.79552 3.60574,-4.17507 1.70799,-0.37955 6.26261,1.89776 6.26261,1.89776 l 11.75753,4.04591 c 0,0 14.05202,-6.13345 18.2271,-5.75389 4.17507,0.37955 4.36485,3.41597 4.36485,3.41597 0,0 -2.27731,0.94888 -3.2262,1.5182 -0.94888,0.56933 -20.08174,0.99248 -20.08174,0.99248 z" />
      <path
         style="fill:#fed501;fill-opacity:1;fill-rule:evenodd;stroke:#917b01;stroke-width:0.34787673;stroke-linecap:butt;stroke-linejoin:miter;stroke-miterlimit:4;stroke-opacity:1"
         id="path1010"
         d="m 261.75213,146.32213 c 0,0 -3.32471,-3.75416 -0.89701,-6.37163 2.4277,-2.61748 36.97353,-1.77891 38.68151,-0.2607 1.70799,1.51821 0.66324,5.24084 0.66324,5.24084 0,0 -1.89776,-0.7591 -4.17508,-0.94888 -2.27731,-0.18977 -6.45239,3.79552 -6.45239,3.79552 0,0 -14.42298,1.70799 -15.18208,1.32844 -0.75911,-0.37955 -2.46709,-5.12396 -5.50351,-5.12396 -3.03642,0 -7.13468,2.34037 -7.13468,2.34037 z" />
      <path
         style="fill:#fed501;fill-opacity:1;fill-rule:evenodd;stroke:#917b01;stroke-width:0.34787673;stroke-linecap:butt;stroke-linejoin:miter;stroke-miterlimit:4;stroke-opacity:1"
         id="path1009"
         d="m 260.95074,150.58908 c 1.04377,1.04377 7.91328,-0.8379 9.21281,-0.72443 l 19.65908,1.71658 c 4.52865,0.39543 7.44527,-2.06177 8.96348,-2.25155 1.51821,-0.18978 0.22126,-5.69033 -3.63929,-5.76125 -3.8625,-0.071 -25.37738,-0.006 -29.63672,0.13612 -4.26111,0.14184 -5.60313,5.84076 -4.55936,6.88453 z" />
      <path
         style="fill:none;stroke:#917b01;stroke-width:0.34787673;stroke-linecap:butt;stroke-linejoin:miter;stroke-miterlimit:4;stroke-opacity:1"
         id="path1639"
         d="m 260.63213,144.22765 c 0,0 1.20564,-2.48221 2.76589,-2.62405 1.56025,-0.14184 33.04886,-0.49645 34.18359,-0.0709 1.13472,0.42552 2.62405,2.90773 2.62405,2.90773" />
      <path
         style="fill:#fed501;fill-opacity:1;fill-rule:evenodd;stroke:#917b01;stroke-width:0.34787673;stroke-linecap:butt;stroke-linejoin:miter;stroke-miterlimit:4;stroke-opacity:1"
         id="path1006"
         d="m 266.8252,127.20367 c 0,0 -0.37955,-0.56933 -1.32843,-2.46709 -0.94888,-1.89776 -1.32843,-5.31373 -1.32843,-5.31373 0,0 4.17507,-0.94888 5.88306,0.18978 1.70798,1.13865 10.24791,10.81724 10.24791,10.81724 0,0 7.21149,-8.7297 9.29903,-10.43769 2.08753,-1.70798 6.07283,-0.18978 6.07283,-0.18978 0,0 -0.94888,5.88306 -2.65686,7.59105 -1.70799,1.70798 -13.85366,14.23321 -13.85366,14.23321 L 266.8252,127.20367 z" />
      <path
         style="fill:#fed501;fill-opacity:1;fill-rule:evenodd;stroke:#917b01;stroke-width:0.34787673;stroke-linecap:butt;stroke-linejoin:miter;stroke-miterlimit:4;stroke-opacity:1"
         id="path1004"
         d="m 278.21177,128.15255 c 0,0 0,-11.57634 -0.18978,-13.85365 -0.18977,-2.27732 2.27732,-3.41597 2.27732,-3.41597 0,0 1.89776,1.70798 1.70798,3.79552 -0.18977,2.08754 0,14.99231 0,14.99231 l -3.79552,-1.51821 z" />
      <path
         style="fill:none;stroke:#917b01;stroke-width:0.34787673;stroke-linecap:butt;stroke-linejoin:miter;stroke-miterlimit:4;stroke-opacity:1"
         id="path1638"
         d="m 258.14992,137.4193 c 0.3546,-0.0709 3.54601,-1.84393 5.46086,-1.56025 1.91485,0.28368 32.55242,-0.0709 33.89991,0.0709 1.34748,0.14184 4.39706,1.27657 4.39706,1.27657" />
      <path
         style="fill:none;stroke:#917b01;stroke-width:0.34787673;stroke-linecap:butt;stroke-linejoin:miter;stroke-miterlimit:4;stroke-opacity:1"
         id="path1640"
         d="m 260.98673,150.53955 c 1.27657,-1.56024 2.12761,-3.12049 4.1843,-3.68785 2.05669,-0.56736 29.57377,-0.92197 30.49573,-0.63828 0.92197,0.28368 3.33326,2.62405 3.33326,2.62405" />
      <path
         style="fill:#fed501;fill-opacity:1;fill-rule:evenodd;stroke:#917b01;stroke-width:0.34787673;stroke-linecap:butt;stroke-linejoin:miter;stroke-miterlimit:4;stroke-opacity:1"
         id="path1007"
         d="m 264.90151,134.8033 c -2.08754,-1.5182 -6.80601,-4.75299 -6.80601,-4.75299 0,0 3.2262,-1.5182 5.88306,-0.94888 2.65687,0.56933 15.94119,10.08407 15.94119,10.08407 0,0 12.52523,-9.32496 15.37187,-10.08407 2.84664,-0.7591 6.07283,1.51821 6.07283,1.51821 0,0 -5.17565,2.97597 -6.88364,5.06351 -1.70798,2.08753 -14.61276,13.01708 -14.61276,13.01708 0,0 -12.879,-12.37872 -14.96654,-13.89693 z" />
      <path
         style="fill:#fed501;fill-opacity:1;fill-rule:evenodd;stroke:#917b01;stroke-width:0.34787673;stroke-linecap:butt;stroke-linejoin:miter;stroke-miterlimit:4;stroke-opacity:1"
         id="path1005"
         d="m 276.69356,137.26181 c 0,0 -3.60575,-17.26963 -3.79552,-19.73672 -0.18978,-2.46709 0.56933,-5.50351 0.56933,-5.50351 0,0 3.22619,1.70799 3.9853,3.79553 0.7591,2.08753 3.22619,14.99231 3.22619,14.99231 0,0 1.13866,-13.47411 2.08754,-15.18209 0.94888,-1.70798 4.17507,-3.41597 4.17507,-3.41597 0,0 0.94888,3.60575 0.37955,5.69328 -0.56933,2.08754 -5.31373,19.92649 -5.31373,19.92649 l -5.31373,-0.56932 z" />
      <path
         style="fill:none;stroke:#917b01;stroke-width:0.34787673;stroke-linecap:butt;stroke-linejoin:miter;stroke-miterlimit:4;stroke-opacity:1"
         id="path1637"
         d="m 260.13569,129.47622 c 0,0 2.83681,1.13473 4.32614,2.48221 1.48932,1.34749 15.10602,13.2621 15.10602,13.2621 0,0 13.40394,-12.76565 14.82235,-13.33302 1.4184,-0.56736 6.59558,-1.27656 6.59558,-1.27656" />
      <path
         style="fill:#fed501;fill-opacity:1;fill-rule:evenodd;stroke:#917b01;stroke-width:0.34787673;stroke-linecap:butt;stroke-linejoin:miter;stroke-miterlimit:4;stroke-opacity:1"
         id="path1001"
         d="m 263.78879,127.773 15.75141,15.94119 c 0,0 12.90478,-12.52522 14.80254,-14.80253 1.89776,-2.27732 3.9853,-4.74441 3.9853,-4.74441 0,0 -6.45239,0.75911 -8.53993,2.65687 -2.08754,1.89776 -9.67858,10.81724 -9.67858,10.81724 0,0 -9.29903,-9.48881 -11.19679,-11.76612 -1.89776,-2.27731 -7.59104,-1.51821 -7.59104,-1.51821 0,0 1.5182,2.08754 2.46709,3.41597 z" />
      <path
         style="fill:none;stroke:#917b01;stroke-width:0.34787673;stroke-linecap:butt;stroke-linejoin:miter;stroke-miterlimit:4;stroke-opacity:1"
         id="path1002"
         d="m 262.08669,124.19417 17.64329,16.48361 16.48557,-16.0351" />
      <path
         style="fill:#fed501;fill-opacity:1;fill-rule:evenodd;stroke:#917b01;stroke-width:0.34787673;stroke-linecap:butt;stroke-linejoin:miter;stroke-miterlimit:4;stroke-opacity:1"
         id="path999"
         d="m 280.67886,133.46628 c 0,0 -10.24792,-11.76612 -11.57635,-14.23321 -1.32843,-2.46709 -0.94887,-4.17507 -0.94887,-4.17507 0,0 2.65686,-0.56933 4.17507,1.13866 1.51821,1.70798 8.16037,11.38656 8.16037,11.38656 0,0 5.69329,-9.4888 7.02172,-10.81723 1.32843,-1.32844 4.36485,-1.70799 4.36485,-1.70799 0,0 -0.18978,2.46709 -1.70799,5.12396 -1.5182,2.65686 -9.4888,13.28432 -9.4888,13.28432 z" />
      <path
         style="fill:none;stroke:#917b01;stroke-width:0.34787673;stroke-linecap:butt;stroke-linejoin:miter;stroke-miterlimit:4;stroke-opacity:1"
         id="path1000"
         d="m 268.53319,115.43755 11.76612,14.61276 11.19679,-14.80253" />
      <path
         style="fill:none;stroke:#917b01;stroke-width:0.34787673;stroke-linecap:butt;stroke-linejoin:miter;stroke-miterlimit:4;stroke-opacity:1"
         id="path1641"
         d="m 280.20613,111.10786 0.21277,18.58112" />
      <path
         style="fill:none;stroke:#917b01;stroke-width:0.34787673;stroke-linecap:butt;stroke-linejoin:miter;stroke-miterlimit:4;stroke-opacity:1"
         id="path1642"
         d="m 273.68147,112.38443 6.87927,18.79388 6.17006,-18.36836" />
      <path
         style="fill:none;stroke:#917b01;stroke-width:0.34787673;stroke-linecap:butt;stroke-linejoin:miter;stroke-miterlimit:4;stroke-opacity:1"
         id="path1643"
         d="m 264.88735,119.76014 15.0351,17.23364 15.10603,-17.0918" />
      <path
         style="fill:#fed501;fill-opacity:1;fill-rule:evenodd;stroke:#917b01;stroke-width:0.34787673;stroke-linecap:butt;stroke-linejoin:miter;stroke-miterlimit:4;stroke-opacity:1"
         id="path1012"
         d="m 268.34341,172.56016 23.72202,0 -0.75911,-9.67858 -22.01403,0 -0.94888,9.67858 z" />
      <path
         style="fill:none;stroke:#917b01;stroke-width:0.34787673;stroke-linecap:butt;stroke-linejoin:miter;stroke-miterlimit:4;stroke-opacity:1"
         id="path1645"
         d="m 279.52345,172.80853 12.12182,-5.33937" />
      <path
         style="fill:none;stroke:#917b01;stroke-width:0.34787673;stroke-linecap:butt;stroke-linejoin:miter;stroke-miterlimit:4;stroke-opacity:1"
         id="path1644"
         d="m 268.8447,168.1907 9.95721,-5.19507" />
    </g>
    <use
       y="0"
       xlink:href="#g1674"
       x="0"
       width="744.09448"
       transform="translate(1.040906,0)"
       id="use1768"
       height="1052.3622" />
    <use
       y="0"
       xlink:href="#use1768"
       x="0"
       width="744.09448"
       transform="translate(1.027894,-0.00650566)"
       id="use1769"
       height="1052.3622" />
    <rect
       y="-6.3599129"
       x="0.71704882"
       width="3.7538719"
       style="fill:#fdd401;fill-opacity:1;fill-rule:evenodd;stroke:none"
       id="rect1856"
       height="1.5973923" />
    <g
       transform="matrix(0.02254098,0,0,0.02254098,-4.714085,-7.078739)"
       id="g1813">
      <path
         transform="matrix(0.190454,0.627399,-0.956884,0.290471,380.5249,-106.7163)"
         style="fill:#0139ab;fill-opacity:1;fill-rule:evenodd;stroke:none"
         id="path1798"
         d="m 290.0127,63.090797 c 9.6e-4,-1.436989 -0.84132,-2.602603 -1.88065,-2.602603 -1.03933,0 -1.88161,1.165614 -1.88065,2.602603 -9.6e-4,1.436989 0.84132,2.602603 1.88065,2.602603 1.03933,0 1.88161,-1.165614 1.88065,-2.602603 l 0,0 z" />
      <path
         transform="matrix(0.634752,0.164291,-0.250572,0.968098,214.3625,-12.82381)"
         style="fill:#0139ab;fill-opacity:1;fill-rule:evenodd;stroke:none"
         id="path1799"
         d="m 290.0127,63.090797 c 9.6e-4,-1.436989 -0.84132,-2.602603 -1.88065,-2.602603 -1.03933,0 -1.88161,1.165614 -1.88065,2.602603 -9.6e-4,1.436989 0.84132,2.602603 1.88065,2.602603 1.03933,0 1.88161,-1.165614 1.88065,-2.602603 l 0,0 z" />
      <path
         transform="matrix(-0.286278,0.58987,-0.899646,-0.436621,530.5297,-48.3192)"
         style="fill:#0139ab;fill-opacity:1;fill-rule:evenodd;stroke:none"
         id="path1800"
         d="m 290.0127,63.090797 c 9.6e-4,-1.436989 -0.84132,-2.602603 -1.88065,-2.602603 -1.03933,0 -1.88161,1.165614 -1.88065,2.602603 -9.6e-4,1.436989 0.84132,2.602603 1.88065,2.602603 1.03933,0 1.88161,-1.165614 1.88065,-2.602603 l 0,0 z" />
      <path
         transform="matrix(0.04351559,0.654224,-0.997795,0.06636658,425.1227,-106.2951)"
         style="fill:#0139ab;fill-opacity:1;fill-rule:evenodd;stroke:none"
         id="path1797"
         d="m 290.0127,63.090797 c 9.6e-4,-1.436989 -0.84132,-2.602603 -1.88065,-2.602603 -1.03933,0 -1.88161,1.165614 -1.88065,2.602603 -9.6e-4,1.436989 0.84132,2.602603 1.88065,2.602603 1.03933,0 1.88161,-1.165614 1.88065,-2.602603 l 0,0 z" />
      <path
         transform="matrix(-0.129511,0.642752,-0.980297,-0.197526,421.0461,-90.83162)"
         style="fill:#0139ab;fill-opacity:1;fill-rule:evenodd;stroke:none"
         id="path1795"
         d="m 290.0127,63.090797 c 9.6e-4,-1.436989 -0.84132,-2.602603 -1.88065,-2.602603 -1.03933,0 -1.88161,1.165614 -1.88065,2.602603 -9.6e-4,1.436989 0.84132,2.602603 1.88065,2.602603 1.03933,0 1.88161,-1.165614 1.88065,-2.602603 l 0,0 z" />
      <path
         transform="matrix(0.154441,0.637221,-0.971863,0.235545,335.2764,-111.6418)"
         style="fill:#0139ab;fill-opacity:1;fill-rule:evenodd;stroke:none"
         id="path1794"
         d="m 290.0127,63.090797 c 9.6e-4,-1.436989 -0.84132,-2.602603 -1.88065,-2.602603 -1.03933,0 -1.88161,1.165614 -1.88065,2.602603 -9.6e-4,1.436989 0.84132,2.602603 1.88065,2.602603 1.03933,0 1.88161,-1.165614 1.88065,-2.602603 l 0,0 z" />
      <path
         transform="matrix(0.655466,0.00457017,-0.04809718,0.999975,143.6484,32.14808)"
         style="fill:#0139ab;fill-opacity:1;fill-rule:evenodd;stroke:none"
         id="path1796"
         d="m 290.0127,63.090797 c 9.6e-4,-1.436989 -0.84132,-2.602603 -1.88065,-2.602603 -1.03933,0 -1.88161,1.165614 -1.88065,2.602603 -9.6e-4,1.436989 0.84132,2.602603 1.88065,2.602603 1.03933,0 1.88161,-1.165614 1.88065,-2.602603 l 0,0 z" />
      <path
         transform="matrix(0.47723,0.449616,-0.685736,0.72785,226.7851,-82.76514)"
         style="fill:#0139ab;fill-opacity:1;fill-rule:evenodd;stroke:none"
         id="path1793"
         d="m 290.0127,63.090797 c 9.6e-4,-1.436989 -0.84132,-2.602603 -1.88065,-2.602603 -1.03933,0 -1.88161,1.165614 -1.88065,2.602603 -9.6e-4,1.436989 0.84132,2.602603 1.88065,2.602603 1.03933,0 1.88161,-1.165614 1.88065,-2.602603 l 0,0 z" />
      <path
         transform="matrix(0.622506,0.205887,-0.31401,0.94942,106.401,-77.95482)"
         style="fill:#0139ab;fill-opacity:1;fill-rule:evenodd;stroke:none"
         id="path1785"
         d="m 290.0127,63.090797 c 9.6e-4,-1.436989 -0.84132,-2.602603 -1.88065,-2.602603 -1.03933,0 -1.88161,1.165614 -1.88065,2.602603 -9.6e-4,1.436989 0.84132,2.602603 1.88065,2.602603 1.03933,0 1.88161,-1.165614 1.88065,-2.602603 l 0,0 z" />
      <path
         transform="matrix(0.597851,-0.269217,0.410598,0.911816,60.83791,58.42297)"
         style="fill:#0139ab;fill-opacity:1;fill-rule:evenodd;stroke:none"
         id="path1788"
         d="m 290.0127,63.090797 c 9.6e-4,-1.436989 -0.84132,-2.602603 -1.88065,-2.602603 -1.03933,0 -1.88161,1.165614 -1.88065,2.602603 -9.6e-4,1.436989 0.84132,2.602603 1.88065,2.602603 1.03933,0 1.88161,-1.165614 1.88065,-2.602603 l 0,0 z" />
      <path
         transform="matrix(-0.00651267,-0.655638,0.999951,-0.00993285,189.0228,241.712)"
         style="fill:#0139ab;fill-opacity:1;fill-rule:evenodd;stroke:none"
         id="path1786"
         d="m 290.0127,63.090797 c 9.6e-4,-1.436989 -0.84132,-2.602603 -1.88065,-2.602603 -1.03933,0 -1.88161,1.165614 -1.88065,2.602603 -9.6e-4,1.436989 0.84132,2.602603 1.88065,2.602603 1.03933,0 1.88161,-1.165614 1.88065,-2.602603 l 0,0 z" />
      <path
         transform="matrix(0.233332,-0.612747,0.934536,0.355868,125.1123,194.6191)"
         style="fill:#0139ab;fill-opacity:1;fill-rule:evenodd;stroke:none"
         id="path1787"
         d="m 290.0127,63.090797 c 9.6e-4,-1.436989 -0.84132,-2.602603 -1.88065,-2.602603 -1.03933,0 -1.88161,1.165614 -1.88065,2.602603 -9.6e-4,1.436989 0.84132,2.602603 1.88065,2.602603 1.03933,0 1.88161,-1.165614 1.88065,-2.602603 l 0,0 z" />
      <path
         transform="matrix(-0.01933936,-0.655385,0.999565,-0.02949557,195.844,272.9228)"
         style="fill:#0139ab;fill-opacity:1;fill-rule:evenodd;stroke:none"
         id="path1789"
         d="m 290.0127,63.090797 c 9.6e-4,-1.436989 -0.84132,-2.602603 -1.88065,-2.602603 -1.03933,0 -1.88161,1.165614 -1.88065,2.602603 -9.6e-4,1.436989 0.84132,2.602603 1.88065,2.602603 1.03933,0 1.88161,-1.165614 1.88065,-2.602603 l 0,0 z" />
      <path
         transform="matrix(-0.370447,-0.540992,0.825097,-0.564991,305.9849,281.2329)"
         style="fill:#0139ab;fill-opacity:1;fill-rule:evenodd;stroke:none"
         id="path1790"
         d="m 290.0127,63.090797 c 9.6e-4,-1.436989 -0.84132,-2.602603 -1.88065,-2.602603 -1.03933,0 -1.88161,1.165614 -1.88065,2.602603 -9.6e-4,1.436989 0.84132,2.602603 1.88065,2.602603 1.03933,0 1.88161,-1.165614 1.88065,-2.602603 l 0,0 z" />
      <path
         transform="matrix(0.616337,0.223678,-0.341145,0.940011,100.0521,-28.80486)"
         style="fill:#0139ab;fill-opacity:1;fill-rule:evenodd;stroke:none"
         id="path1791"
         d="m 290.0127,63.090797 c 9.6e-4,-1.436989 -0.84132,-2.602603 -1.88065,-2.602603 -1.03933,0 -1.88161,1.165614 -1.88065,2.602603 -9.6e-4,1.436989 0.84132,2.602603 1.88065,2.602603 1.03933,0 1.88161,-1.165614 1.88065,-2.602603 l 0,0 z" />
      <path
         transform="matrix(0.65567,0,0,1,74.25383,34.10498)"
         style="fill:#0139ab;fill-opacity:1;fill-rule:evenodd;stroke:none"
         id="path1792"
         d="m 290.0127,63.090797 c 9.6e-4,-1.436989 -0.84132,-2.602603 -1.88065,-2.602603 -1.03933,0 -1.88161,1.165614 -1.88065,2.602603 -9.6e-4,1.436989 0.84132,2.602603 1.88065,2.602603 1.03933,0 1.88161,-1.165614 1.88065,-2.602603 l 0,0 z" />
      <path
         style="fill:#d4170f;fill-opacity:1;fill-rule:evenodd;stroke:none"
         id="path1770"
         d="m 345.47193,37.303878 c 0,0 -13.56489,-0.865844 -15.5852,0 -2.0203,0.865845 -2.30891,3.751993 -4.32922,3.751993 -2.0203,0 -8.94706,-0.57723 -10.67875,-0.288615 -1.73169,0.288615 -5.48368,2.308918 -5.48368,5.195067 0,2.886148 0.72114,7.807581 11.25598,8.081214 11.11167,0.288615 30.01594,-6.926755 30.01594,-6.926755 l 0.28862,2.886148 c 0,0 4.32922,-4.906452 6.63814,-5.195067 2.30891,-0.288615 4.61783,1.15446 3.75199,2.308919 -0.86585,1.154459 -1.73169,2.020303 -1.73169,2.020303 0,0 5.19507,-1.443074 5.19507,-3.174762 0,-1.731689 -1.15446,-2.020304 -1.15446,-2.020304 0,0 3.17476,0.288615 4.32922,0 1.15446,-0.288615 2.30892,1.443074 1.73169,2.597533 -0.57723,1.154459 -1.73169,2.886148 -1.73169,2.886148 0,0 5.19507,-1.443074 4.61784,-2.886148 -0.57723,-1.443074 -0.57723,-2.308918 -0.57723,-2.308918 0,0 4.61783,-0.865845 5.48368,0.577229 0.86584,1.443074 -2.02031,8.658445 -2.02031,8.658445 0,0 1.73169,-4.617837 5.48369,-5.483682 3.75199,-0.865844 5.77229,-1.731689 8.08121,-0.288615 2.30892,1.443074 10.10151,4.617837 9.8129,8.658445 0,2.020304 -3.46337,3.751992 -8.94705,4.040607 -5.48369,0.288615 -23.3778,-4.040607 -36.07686,-4.040607 -12.69905,0 -18.47134,2.308918 -26.55256,2.886148 -8.08121,0.57723 -51.08482,0 -51.08482,0 0,0 -10.67875,-3.751993 -12.69905,-7.503985 -2.02031,-3.751993 2.59753,-7.7926 2.59753,-7.7926 l -1.73169,-1.443074 -2.0203,1.443074 c 0,0 1.73169,-4.329222 -1.73169,-4.329222 -3.46338,0 -3.17476,4.329222 -3.17476,4.329222 0,0 -2.30892,-4.329222 -3.752,-4.617837 -1.44307,-0.288615 -2.30892,4.617837 -2.30892,4.617837 0,0 4.04061,1.443074 3.752,3.463378 -0.28862,2.020303 -5.19507,2.020303 -5.19507,2.020303 0,0 -0.28861,3.751993 0.86584,4.617837 1.15446,0.865845 3.46338,-2.308918 4.61784,-2.020303 1.15446,0.288614 0.86585,9.524289 0.86585,9.524289 l 1.73168,-2.020304 0.28862,8.081215 1.73169,-4.040608 0.28861,8.94706 6.34953,-4.329223 -2.88615,9.524289 4.04061,-4.040607 0,5.772296 21.93472,-4.617837 -2.30891,4.040607 c 0,0 -5.7723,4.906452 -11.83321,5.483682 -6.06091,0.57723 -10.67875,1.154459 -13.5649,0.865844 -2.88615,-0.288614 -5.77229,-5.483681 -6.92675,-5.195066 -1.15446,0.288615 0.86584,3.174763 -0.28862,4.617837 -1.15446,1.443074 -5.77229,2.597533 -4.32922,3.463378 1.44307,0.865844 6.34953,0.577229 6.34953,2.020303 0,1.443074 -3.17477,3.463378 -0.86585,4.617837 2.30892,1.15446 5.19507,-3.463378 5.7723,-2.308918 0.57723,1.154459 -0.57723,3.751992 1.73169,3.751992 2.30891,0 2.30891,-3.174763 2.30891,-3.174763 l 11.25598,3.463378 -2.59753,-4.329222 c 0,0 3.75199,2.308918 5.48368,2.886148 1.73169,0.57723 4.32922,0.57723 4.32922,0.57723 l -3.46337,-4.617837 7.50398,4.040607 -1.73169,-4.617837 6.34953,3.751993 -1.15446,-4.040608 c 0,0 2.59753,2.308919 4.61784,2.308919 2.0203,0 3.17476,-1.731689 3.17476,-1.731689 l -2.02031,-2.597533 c 0,0 2.30892,1.443074 5.19507,1.731688 2.88615,0.288615 7.50399,-1.731688 7.50399,-1.731688 l -5.48369,-1.731689 5.19507,-1.731689 -2.59753,-1.731689 3.75199,-6.349526 c 0,0 1.44307,0.288615 6.63814,0 5.19507,-0.288615 21.64611,-11.255978 28.57287,-10.967363 6.92675,0.288615 19.62581,13.564896 25.3981,13.276281 5.7723,-0.288614 16.45105,-1.154459 16.45105,-1.154459 0,0 -1.73169,3.463378 -2.59754,5.195067 -0.86584,1.731689 -0.86584,4.040607 -0.86584,4.040607 l -5.48368,-0.865844 c 0,0 0.28861,-1.154459 -2.02031,-1.154459 -2.30892,0 -1.15446,4.329222 -1.15446,4.329222 0,0 -1.73168,2.886148 -0.28861,3.174763 1.44307,0.288615 3.46338,-2.020304 4.61784,-0.865845 1.15446,1.15446 -0.57723,3.463378 1.15446,3.751993 1.73168,0.288615 0.86584,-4.329222 3.17476,-4.040608 2.30892,0.288615 3.46338,3.174763 4.90645,2.886149 1.44307,-0.288615 2.0203,-2.886149 2.0203,-2.886149 0,0 -2.0203,-0.865844 -2.0203,-2.308918 0,-1.443074 2.30892,-5.195067 3.75199,-5.195067 1.44308,0 1.15446,2.886148 1.15446,2.886148 l 1.44308,-3.174763 1.73169,0.57723 -2.30892,-4.329222 4.90645,0.57723 -2.88615,-3.174763 3.17476,-0.288615 c 0,0 -2.30892,-1.15446 -2.30892,-2.886148 0,-1.731689 0.86585,-4.329223 0.86585,-4.329223 0,0 -6.34953,2.308919 -12.98767,0.57723 -6.63814,-1.731689 -15.00797,-9.812904 -15.00797,-9.812904 0,0 15.29659,2.597534 19.62581,2.308919 4.32922,-0.288615 9.8129,-0.57723 10.67875,-4.040608 0.86584,-3.463377 -5.19507,-12.987666 -5.19507,-12.987666 l 0,3.751992 c 0,0 -5.7723,-6.060911 -25.10949,-7.503985 -19.33719,-1.443074 -33.76793,11.544593 -50.50759,10.101519 -15.00797,-1.731689 -8.36983,-10.678749 -0.86585,-9.812904 4.61784,0.57723 11.83321,3.174763 15.29659,3.174763 3.46338,0 9.23567,-3.751993 10.39013,-8.081215 z" />
      <path
         style="fill:#d4170f;fill-opacity:1;fill-rule:evenodd;stroke:none"
         id="path1771"
         d="m 357.30514,65.876745 c -2.0203,0.288615 -24.24365,0.865844 -25.10949,9.235674 -0.86585,8.369829 8.94706,7.21537 8.94706,7.21537 l -0.28861,2.886148 c 0,0 -6.34953,1.15446 -10.10152,1.15446 -3.75199,0 -3.46338,-4.329223 -5.48368,-4.906452 -2.02031,-0.57723 -2.59754,3.174763 -2.59754,3.174763 l -3.17476,0.288615 0.28862,3.174763 2.0203,1.154459 0.28861,2.308918 1.73169,2.597534 2.59754,-1.443074 0.86584,3.751992 c 0,0 0.86584,-0.865844 2.0203,-1.154459 1.15446,-0.288615 2.02031,1.443074 2.02031,1.443074 0,0 -0.28862,-3.751993 3.17476,-4.040607 3.46338,-0.288615 5.7723,3.751992 5.7723,3.751992 l 0,-4.040607 3.17476,3.174763 0.57723,-4.329223 3.75199,3.751993 0.86585,-3.751993 2.0203,1.731689 0,-3.751992 6.34953,3.174763 0.86584,-3.751993 5.19507,1.443074 -1.73169,-1.731689 5.48368,0 c 0,0 -2.0203,-4.617837 -3.75199,-6.349526 -1.73169,-1.731688 -10.96737,-4.617837 -11.25598,-7.21537 -0.28862,-2.597533 5.48368,-8.947059 5.48368,-8.947059 z" />
      <path
         style="fill:#d4170f;fill-opacity:1;fill-rule:evenodd;stroke:#fed501;stroke-width:0.60878426;stroke-linecap:butt;stroke-linejoin:miter;stroke-miterlimit:4;stroke-opacity:1"
         id="path1772"
         d="m 281.68806,52.023234 c -1.15446,0 -12.41044,10.678748 -13.85351,12.699052 -1.44308,2.020303 -0.57723,5.195066 -0.57723,5.195066 l 4.90645,-4.906452 c 0,0 -1.44307,2.886148 -1.44307,5.195067 0,2.308919 0.86584,4.906452 0.86584,4.906452 l 2.59753,-6.349526 0,11.255978 3.752,-5.483682 -2.30892,10.967363 4.90645,-8.081215 c 0,0 -2.59753,3.751993 -1.44307,6.349526 1.15446,2.597534 2.0203,3.174763 2.0203,3.174763 l 2.30892,-9.524289 c 0,0 -0.28862,5.772297 0.86584,7.7926 1.15446,2.020304 3.17477,3.174763 3.17477,3.174763 0,0 0.28861,-3.751992 0.57723,-6.63814 0.28861,-2.886149 -0.57723,-5.195067 -0.57723,-5.195067 0,0 2.59753,3.463378 2.30891,5.483681 -0.28861,2.020304 -1.15445,4.617837 -1.15445,4.617837 0,0 3.17476,-3.174763 3.75199,-5.772296 0.57723,-2.597533 -0.57723,-4.906452 -0.57723,-4.906452 0,0 0.57723,5.483682 1.73169,6.926756 1.15446,1.443074 3.17476,3.174763 3.17476,3.174763 l 0,-9.812904 c 0,0 0.28861,5.483682 1.73169,6.926756 1.44307,1.443074 4.32922,1.443074 4.32922,1.443074 0,0 -2.30892,-4.040608 -2.59753,-7.503985 -0.28862,-3.463378 0.57723,-4.906452 0.57723,-4.906452 0,0 0.86584,4.617837 1.15446,6.349526 0.28861,1.731689 0.86584,3.751992 0.86584,3.751992 0,0 0.57723,-4.906452 0.86585,-6.926755 0.28861,-2.020304 -0.28862,-3.463378 -0.28862,-3.463378 0,0 2.59753,4.040607 2.0203,5.195067 -0.57723,1.154459 0,2.308918 0,2.308918 0,0 1.44308,-5.195067 1.44308,-7.503985 0,-2.308919 -1.44308,-4.329222 -1.44308,-4.329222 l 3.752,5.195066 c 0,0 1.15446,-4.906452 -0.57723,-9.524289 -1.73169,-4.617837 -10.67875,-9.812903 -10.67875,-9.812903 l -16.16243,-1.443074 z" />
      <path
         style="fill:#d4170f;fill-opacity:1;fill-rule:evenodd;stroke:#fed501;stroke-width:0.60878426;stroke-linecap:butt;stroke-linejoin:miter;stroke-miterlimit:4;stroke-opacity:1"
         id="path1773"
         d="m 277.64745,45.673708 c 0,0 -3.17476,2.597533 -3.17476,5.772296 0,3.174763 2.0203,4.040607 2.0203,4.040607 l -1.15446,5.772297 2.02031,-1.15446 0.28861,5.772297 2.02031,-2.886148 0.86584,5.483681 2.0203,-2.020304 0,5.483682 2.02031,-2.597533 1.15446,2.886148 1.73169,-3.174763 1.73168,2.886148 1.44308,-2.886148 3.46338,0.865844 -0.57723,-1.731689 2.30892,0.288615 -0.86585,-4.617837 2.30892,3.174763 0.28861,-3.751993 2.59754,1.731689 c 0,0 1.73169,-7.503985 1.73169,-12.121822 0,-4.617837 -1.44308,-7.21537 -1.44308,-7.21537 l 2.88615,-4.329223 -4.90645,1.443075 -1.44308,-4.040608 -2.88614,2.308919 -0.86585,-1.731689 -1.15446,1.443074 -1.44307,-3.463378 -2.0203,3.463378 -3.17477,-2.308919 -0.57723,3.174763 -2.59753,-1.154459 -0.28862,2.886148 c 0,0 -4.32922,-3.174763 -5.77229,-3.174763 -1.44308,0 1.44307,5.483682 1.44307,5.483682 z" />
      <path
         style="fill:none;stroke:#fed501;stroke-width:0.52181506;stroke-linecap:butt;stroke-linejoin:miter;stroke-miterlimit:4;stroke-opacity:1"
         id="path1774"
         d="m 279.66776,54.332152 c 2.0203,-0.577229 0.86584,5.195067 3.17476,5.772296 2.30892,0.57723 5.48368,-2.020303 5.48368,-2.020303 0,0 0.86584,2.886148 3.46338,2.597533 2.59753,-0.288615 4.04061,-6.060911 4.04061,-6.060911" />
      <path
         style="fill:#fed501;fill-opacity:1;fill-rule:evenodd;stroke:none"
         id="path1777"
         d="m 284.28559,64.722286 c 0,0 2.93147,-3.720332 3.05048,-6.183098 0.11587,-2.39775 -1.5442,-2.651957 -1.52946,-3.667727 0.0148,-1.015769 0.67255,-1.374055 2.08561,-1.424113 1.4804,-0.05244 2.49795,0.604947 2.57015,1.615822 0.0674,0.943791 -2.13617,1.000671 -2.13617,3.598204 0,2.597534 3.17476,6.060912 3.17476,6.060912 0,0 -1.81806,-0.288615 -2.39529,0 -0.57723,0.288614 -1.06808,2.308918 -1.06808,2.308918 0,0 0.13483,-1.799103 -1.30825,-2.087718 -1.44307,-0.288614 -2.44375,-0.2212 -2.44375,-0.2212 z" />
      <path
         transform="matrix(0.65567,0,0,1,98.93506,-0.370037)"
         style="fill:#0139ab;fill-opacity:1;fill-rule:evenodd;stroke:none"
         id="path1778"
         d="m 290.0127,63.090797 c 9.6e-4,-1.436989 -0.84132,-2.602603 -1.88065,-2.602603 -1.03933,0 -1.88161,1.165614 -1.88065,2.602603 -9.6e-4,1.436989 0.84132,2.602603 1.88065,2.602603 1.03933,0 1.88161,-1.165614 1.88065,-2.602603 l 0,0 z" />
      <path
         style="fill:#fed501;fill-opacity:1;fill-rule:evenodd;stroke:none"
         id="path1775"
         d="m 287.42255,46.869718 c -1.43671,1.209861 -2.5762,0.828036 -4.58003,-0.04155 -0.11342,0.983012 0.86584,4.329222 2.59753,4.040607 1.73169,-0.288614 1.9825,-3.999056 1.9825,-3.999056 z m -1.29053,2.045485 c 0,0.532188 -0.43192,0.964108 -0.96411,0.964108 -0.53219,0 -0.96411,-0.43192 -0.96411,-0.964108 0,-0.532187 0.43192,-0.964108 0.96411,-0.964108 0.53219,0 0.96411,0.431921 0.96411,0.964108 z" />
      <path
         style="fill:#fed501;fill-opacity:1;fill-rule:evenodd;stroke:none"
         id="path1784"
         d="m 290.62412,47.095924 c 1.43671,1.209861 2.50058,0.147489 4.50441,-0.722098 0.11342,0.983012 -0.82803,4.820728 -2.55972,4.532113 -1.73169,-0.288614 -1.94469,-3.356317 -1.94469,-3.810015 z m 1.25272,1.856444 c 0,0.532188 0.43192,0.964108 0.96411,0.964108 0.53219,0 0.96411,-0.43192 0.96411,-0.964108 0,-0.532187 -0.43192,-0.964108 -0.96411,-0.964108 -0.53219,0 -0.96411,0.431921 -0.96411,0.964108 z" />
      <path
         style="fill:none;stroke:#fed501;stroke-width:0.52181506;stroke-linecap:butt;stroke-linejoin:miter;stroke-miterlimit:4;stroke-opacity:1"
         id="path1801"
         d="m 306.16227,80.51352 c 0.21388,-0.427751 2.45957,-5.560754 2.45957,-5.560754 0,0 0.10693,3.101189 0.53468,2.566501 0.42775,-0.534687 1.49713,-3.849752 1.49713,-3.849752 0,0 1.49713,2.138751 1.92488,1.390188 0.42775,-0.748563 1.06937,-1.711001 1.06937,-1.711001 0,0 0.96244,2.780377 1.17631,2.031814 0.21388,-0.748563 1.06938,-2.459564 1.06938,-2.459564 0,0 1.39019,2.780377 1.39019,2.138751 0,-0.641625 0.42775,-2.673439 0.42775,-2.673439 l 1.06938,1.497126 1.81793,-2.459564 c 0,0 -0.21387,2.887314 0.21388,2.138751 0.42775,-0.748563 1.17631,-2.352626 1.17631,-2.352626 0,0 1.17632,1.817938 1.711,1.069375 0.53469,-0.748563 0.8555,-1.390188 0.8555,-1.390188 l 1.39019,0 0.96244,-1.604064 1.17631,1.283251 0.8555,-1.176313" />
      <path
         style="fill:none;stroke:#fed501;stroke-width:0.52181506;stroke-linecap:butt;stroke-linejoin:miter;stroke-miterlimit:4;stroke-opacity:1"
         id="path1802"
         d="m 347.44017,78.802518 c 4.49138,-0.106937 4.70526,-1.711001 4.70526,-1.711001" />
      <path
         style="fill:none;stroke:#fed501;stroke-width:0.52181506;stroke-linecap:butt;stroke-linejoin:miter;stroke-miterlimit:4;stroke-opacity:1"
         id="path1803"
         d="m 351.18299,80.406582 c 0,0 2.03181,-0.320813 2.78038,-1.390189" />
      <path
         style="fill:none;stroke:#fed501;stroke-width:0.52181506;stroke-linecap:butt;stroke-linejoin:miter;stroke-miterlimit:4;stroke-opacity:1"
         id="path1804"
         d="m 353.96337,81.582895 c 2.78037,-0.106937 2.67344,-1.497126 2.67344,-1.497126" />
      <path
         style="fill:none;stroke:#fed501;stroke-width:0.52181506;stroke-linecap:butt;stroke-linejoin:miter;stroke-miterlimit:4;stroke-opacity:1"
         id="path1805"
         d="m 357.06456,82.438396 c 2.67344,0.641625 2.24569,-1.497126 2.24569,-1.497126" />
      <path
         style="fill:none;stroke:#fed501;stroke-width:0.52181506;stroke-linecap:butt;stroke-linejoin:miter;stroke-miterlimit:4;stroke-opacity:1"
         id="path1806"
         d="m 358.98943,84.684085 c 1.39019,-0.106938 1.60407,-1.817939 1.60407,-1.817939" />
      <path
         style="fill:none;stroke:#fed501;stroke-width:0.52181506;stroke-linecap:butt;stroke-linejoin:miter;stroke-miterlimit:4;stroke-opacity:1"
         id="path1807"
         d="m 372.5705,66.611635 c 3.52894,-0.641625 2.78038,-0.106938 2.78038,-0.106938" />
      <path
         style="fill:none;stroke:#fed501;stroke-width:0.52181506;stroke-linecap:butt;stroke-linejoin:miter;stroke-miterlimit:4;stroke-opacity:1"
         id="path1808"
         d="m 374.49538,68.429574 c 1.711,0.106937 2.78038,-1.283251 2.78038,-1.283251" />
      <path
         style="fill:none;stroke:#fed501;stroke-width:0.52181506;stroke-linecap:butt;stroke-linejoin:miter;stroke-miterlimit:4;stroke-opacity:1"
         id="path1809"
         d="m 376.52719,69.712825 c 1.81794,-0.213876 2.03182,-1.283251 2.03182,-1.283251" />
      <path
         style="fill:none;stroke:#fed501;stroke-width:0.52181506;stroke-linecap:butt;stroke-linejoin:miter;stroke-miterlimit:4;stroke-opacity:1"
         id="path1810"
         d="m 378.98676,70.7822 c 1.711,-0.213875 1.92487,-1.176313 1.92487,-1.176313" />
      <path
         style="fill:none;stroke:#fed501;stroke-width:0.52181506;stroke-linecap:butt;stroke-linejoin:miter;stroke-miterlimit:4;stroke-opacity:1"
         id="path1811"
         d="m 381.01857,71.744639 c 1.81794,-0.748563 1.49713,-1.283251 1.49713,-1.283251" />
      <path
         style="fill:#fed501;fill-opacity:1;fill-rule:evenodd;stroke:none"
         id="path1812"
         d="m 344.15711,38.050718 c -6.34678,-0.807105 -7.33732,2.971616 -7.33732,2.971616 0,0 3.77872,-1.504152 4.1089,-1.137285 0.33018,0.366866 -0.73373,2.494689 -0.29349,2.274569 0.44024,-0.220119 3.0083,-2.017763 3.52191,-4.1089 z" />
    </g>
    <path
       style="fill:#ffffff;fill-opacity:1;fill-rule:evenodd;stroke:none"
       id="path1851"
       d="m 0.63717904,-6.4397826 3.91361116,0 0,3.9934807 c 0,0.399348 -0.4792176,0.399348 -1.9168707,0.8785659 C 1.1962663,-2.0469539 0.64485695,-2.0715792 0.63717904,-2.4463019 l 0,-3.9934807 z m 0.15973936,0.1597392 3.5941327,0 0,3.8337415 c 0,0.1597392 -0.3194785,0.2396086 -1.7571316,0.7188265 C 1.1962663,-2.2066933 0.7969184,-2.2865627 0.7969184,-2.4463019 l 0,-3.8337415 z" />
  </g>
</svg>
