<?xml version="1.0" encoding="UTF-8" standalone="no"?>
<!-- Created with Inkscape (http://www.inkscape.org/) -->

<svg
   xmlns:dc="http://purl.org/dc/elements/1.1/"
   xmlns:cc="http://creativecommons.org/ns#"
   xmlns:rdf="http://www.w3.org/1999/02/22-rdf-syntax-ns#"
   xmlns:svg="http://www.w3.org/2000/svg"
   xmlns="http://www.w3.org/2000/svg"
   xmlns:xlink="http://www.w3.org/1999/xlink"
   xmlns:sodipodi="http://sodipodi.sourceforge.net/DTD/sodipodi-0.dtd"
   xmlns:inkscape="http://www.inkscape.org/namespaces/inkscape"
   version="1.0"
   width="197.8199"
   height="248.40688"
   id="svg3461"
   sodipodi:version="0.32"
   inkscape:version="0.47 r22583"
   sodipodi:docname="ZZ2.svg">
  <metadata
     id="metadata2028">
    <rdf:RDF>
      <cc:Work
         rdf:about="">
        <dc:format>image/svg+xml</dc:format>
        <dc:type
           rdf:resource="http://purl.org/dc/dcmitype/StillImage" />
      </cc:Work>
    </rdf:RDF>
  </metadata>
  <sodipodi:namedview
     inkscape:window-height="1004"
     inkscape:window-width="1280"
     inkscape:pageshadow="2"
     inkscape:pageopacity="0.0"
     guidetolerance="10.0"
     gridtolerance="10.0"
     objecttolerance="10.0"
     borderopacity="1.0"
     bordercolor="#666666"
     pagecolor="#ffffff"
     id="base"
     showguides="true"
     inkscape:guide-bbox="true"
     inkscape:zoom="0.5"
     inkscape:cx="-31.481866"
     inkscape:cy="230.14784"
     inkscape:window-x="-8"
     inkscape:window-y="-8"
     inkscape:current-layer="svg3461"
     showgrid="false"
     inkscape:window-maximized="1" />
  <defs
     id="defs3463">
    <inkscape:perspective
       sodipodi:type="inkscape:persp3d"
       inkscape:vp_x="0 : 256 : 1"
       inkscape:vp_y="0 : 1000 : 0"
       inkscape:vp_z="1024 : 256 : 1"
       inkscape:persp3d-origin="512 : 170.66667 : 1"
       id="perspective165" />
  </defs>
  <path
     style="fill:#ffffff"
     d="m 2.03121,88.87503 0.0312,44.03125 c 0.0324,40.62451 35.03592,78.44067 71.375,100.59375 l 50.9375,0 c 36.339,-22.15314 71.34265,-59.96922 71.375,-100.59375 l 0.0312,-44.03125 -193.75,0 z"
     id="rect12769" />
  <path
     style="fill:#002469;fill-opacity:1"
     d="m 3.63539,3.7661 0,85.33729 190.54141,0 0,-85.33729 -190.54141,0 z"
     id="circle12895" />
  <path
     style="fill:#ffffff;fill-opacity:1;stroke:none"
     d="m 3.63539,3.7661 0,9.93379 73.12027,32.73485 -73.12027,32.73485 0,9.9338 22.22785,0 73.04286,-32.71263 73.04286,32.71263 22.22784,0 0,-9.9338 -73.12027,-32.73485 73.12027,-32.73485 0,-9.93379 -22.22784,0 L 98.9061,36.47873 25.86324,3.7661 l -22.22785,0 z"
     id="diags_white" />
  <path
     style="fill:#cf142b;fill-opacity:1;stroke:none"
     d="m 3.63539,3.7661 0,6.50697 80.74192,36.16167 -80.74192,36.16168 0,6.50697 14.6181,0 80.65261,-36.09056 80.6526,36.09056 14.6181,0 0,-6.50697 -80.74192,-36.16168 80.74192,-36.16167 0,-6.50697 -14.6181,0 L 98.9061,39.85666 18.25349,3.7661 l -14.6181,0 z"
     id="diags_red" />
  <path
     style="fill:#ffffff;stroke:none"
     d="m 3.63539,3.7661 95.27071,42.66864 15.24331,0 80.02739,-35.84166 0,-6.82698 L 106.52775,43.02125 18.8787,3.7661 l -15.24331,0 z m 95.27071,42.66864 -15.24332,0 -80.02739,35.84167 0,6.82698 87.64905,-39.25516 87.64905,39.25516 15.24331,0 -95.2707,-42.66865 z"
     id="eraser_white" />
  <path
     style="fill:#ffffff;fill-opacity:1;fill-rule:nonzero;stroke:none"
     d="m 83.87496,3.78128 0,27.625 -80.25,0 0,30.0625 80.25,0 0,27.625 30.0625,0 0,-27.625 80.25,0 0,-30.0625 -80.25,0 0,-27.625 -30.0625,0 z"
     id="rect13978"
     sodipodi:nodetypes="ccccccccccccc" />
  <path
     style="fill:#cf142b;fill-opacity:1;fill-rule:nonzero;stroke:none"
     d="m 90.49996,3.78128 0,34.25 -86.875,0 0,16.8125 86.875,0 0,34.25 16.8125,0 0,-34.25 86.875,0 0,-16.8125 -86.875,0 0,-34.25 -16.8125,0 z"
     id="rect13976"
     sodipodi:nodetypes="ccccccccccccc" />
  <g
     transform="matrix(1.042908,0,0,1.042908,98.90621,52.86798)"
     style="fill:#ffd600;stroke:#000000;stroke-width:0.25px"
     id="g12758">
    <path
       d="M 0,-22 6.5,-9.5 15,-21 17,-8.5 29,-18 20,0 C 20,1.1045695 11.045695,2 0,2 -11.045695,2 -20,1.1045695 -20,0 l -9,-18 12,9.5 2,-12.5 8.5,11.5 L 0,-22 z"
       id="path12760" />
    <path
       d="m 20,0 c 0,-1.1045695 -8.954305,-2 -20,-2 -11.045695,0 -20,0.8954305 -20,2 m 40.5,-1 c 0,-1.1045695 -9.178163,-2 -20.5,-2 -11.321837,0 -20.5,0.8954305 -20.5,2 m 43,-4 c 0,-1.6568542 -10.073593,-3 -22.5,-3 -12.426407,0 -22.5,1.3431458 -22.5,3 M 23,-6 c 0,-1.6568542 -10.297451,-3 -23,-3 -12.702549,0 -23,1.3431458 -23,3"
       id="path12762"
       style="fill:none" />
    <rect
       x="-3"
       y="-7"
       height="3"
       width="6"
       rx="0.5"
       id="rect12764"
       ry="0.5" />
    <path
       id="stl"
       d="m 8.51,-5.245 c -0.11,1.91 4.84,2.155 5.04,0.37 0.197787,-1.7652494 -4.9301278,-2.2777809 -5.04,-0.37 z m 10.6,1 c -0.385027,1.0093954 2.531781,2.921186 3.31,1.255 0.78,-1.67 -2.94,-2.225 -3.31,-1.255 z" />
    <use
       xlink:href="#stl"
       transform="scale(-1,1)"
       id="use12767"
       x="0"
       y="0"
       width="25"
       height="15" />
  </g>
  <path
     id="path2087"
     style="fill:none;stroke:#ffffff;stroke-width:4;stroke-miterlimit:4;stroke-opacity:1;stroke-dasharray:none"
     d="m 2,2 0.0625,130.90627 c 0.0401,50.2015 53.45782,96.14993 96.84374,113.50001 43.38552,-17.35031 96.8038,-63.2985 96.84378,-113.50001 L 195.81252,2 2,2 z" />
  <g
     id="b"
     transform="matrix(1.056147,0,0,1.021826,98.90621,102.14788)"
     style="fill:#002469;fill-opacity:1">
    <path
       style="fill:#002469;fill-opacity:1"
       d="m 153.84375,223.09375 c -10.56148,0 -19.11417,5.09375 -29.78125,5.09375 -2.43908,0 -4.75566,-0.26964 -7.03125,-0.6875 0.0687,0.85648 0.125,1.72301 0.125,2.59375 0,3.94913 -0.72848,7.7525 -2.0625,11.34375 2.8794,0.62314 5.82799,1.0625 8.96875,1.0625 10.56147,1e-5 19.11417,-5.09375 29.78125,-5.09375 10.56146,-1e-5 19.11417,5.09375 29.78125,5.09375 10.56148,1e-5 19.11417,-5.09375 29.78125,-5.09375 10.66708,0 19.2198,5.09376 29.78125,5.09375 10.66708,0 19.21976,-5.09376 29.78125,-5.09375 10.66708,0 19.21978,5.09376 29.78125,5.09375 3.00669,0 5.83069,-0.41875 8.59375,-1 -1.66272,-2.14976 -2.59375,-4.54439 -2.59375,-7.09375 0,-2.61113 0.97962,-5.06129 2.71875,-7.25 -2.80836,0.60214 -5.67546,1.03125 -8.71875,1.03125 -10.66708,0 -19.2198,-5.09375 -29.78125,-5.09375 -10.66708,0 -19.21976,5.09374 -29.78125,5.09375 -10.66708,0 -19.21978,-5.09375 -29.78125,-5.09375 -10.56147,0 -19.11417,5.09375 -29.78125,5.09375 -10.56146,-1e-5 -19.11417,-5.09375 -29.78125,-5.09375 z"
       transform="matrix(0.94683789,0,0,0.9786402,-202.05408,-218.3197)"
       id="sb" />
    <path
       style="fill:#002469;fill-opacity:1"
       d="m 153.84375,251.6875 c -10.56148,0 -19.11417,5.09375 -29.78125,5.09375 -2.43908,0 -4.75566,-0.26964 -7.03125,-0.6875 0.0687,0.85648 0.125,1.72301 0.125,2.59375 0,2.10536 -0.19829,4.17505 -0.59375,6.1875 -0.002,0.0101 0.002,0.0212 0,0.0312 0.42456,1.35661 0.6875,2.98959 0.6875,4.75 0,0.27715 -0.0192,0.54214 -0.0312,0.8125 2.21029,0.39256 4.46661,0.625 6.84375,0.625 10.56147,10e-6 19.11417,-5.09375 29.78125,-5.09375 10.56146,-1e-5 19.11417,5.09375 29.78125,5.09375 10.56148,10e-6 19.11417,-5.09375 29.78125,-5.09375 10.66708,0 19.2198,5.09376 29.78125,5.09375 10.66708,0 19.21976,-5.09376 29.78125,-5.09375 10.66708,0 19.21978,5.09376 29.78125,5.09375 2.17769,0 4.24898,-0.22052 6.28125,-0.5625 -0.0143,-0.16603 -0.0312,-0.32983 -0.0312,-0.5 0,-0.98376 0.26154,-1.9005 0.6875,-2.6875 -0.61396,-1.38493 -0.9375,-2.83104 -0.9375,-4.34375 0,-2.61113 0.97962,-5.06129 2.71875,-7.25 -2.80836,0.60214 -5.67546,1.03125 -8.71875,1.03125 -10.66708,0 -19.2198,-5.09375 -29.78125,-5.09375 -10.66708,0 -19.21976,5.09374 -29.78125,5.09375 -10.66708,0 -19.21978,-5.09375 -29.78125,-5.09375 -10.56147,0 -19.11417,5.09375 -29.78125,5.09375 -10.56146,-1e-5 -19.11417,-5.09375 -29.78125,-5.09375 z"
       transform="matrix(0.94683789,0,0,0.9786402,-202.05408,-218.3197)"
       id="path3015" />
    <path
       style="fill:#002469;fill-opacity:1"
       d="m 153.84375,280.28125 c -10.56148,0 -19.11417,5.09375 -29.78125,5.09375 -1.08894,0 -2.14014,-0.0596 -3.1875,-0.15625 4.97315,1.41162 8.625,6.10712 8.625,11.6875 0,0.81609 -0.10103,1.6041 -0.25,2.375 8.3126,-1.18811 15.72732,-4.6875 24.59375,-4.6875 10.56146,-10e-6 19.11417,5.09375 29.78125,5.09375 10.56148,10e-6 19.11417,-5.09375 29.78125,-5.09375 10.66708,0 19.2198,5.09376 29.78125,5.09375 10.66708,0 19.21976,-5.09376 29.78125,-5.09375 8.92247,0 16.37322,3.55302 24.75,4.71875 0.67383,-2.85381 2.34315,-5.38059 4.65625,-7.375 -0.15264,-0.55929 -0.25,-1.12904 -0.25,-1.71875 0,-1.79158 0.75434,-3.45482 2.03125,-4.875 -0.46729,0.02 -0.93081,0.0312 -1.40625,0.0312 -10.66708,0 -19.2198,-5.09375 -29.78125,-5.09375 -10.66708,0 -19.21976,5.09374 -29.78125,5.09375 -10.66708,0 -19.21978,-5.09375 -29.78125,-5.09375 -10.56147,0 -19.11417,5.09375 -29.78125,5.09375 -10.56146,-1e-5 -19.11417,-5.09375 -29.78125,-5.09375 z m -36.8125,4.40625 c 0.003,0.0406 -0.003,0.0844 0,0.125 0.19971,-0.0126 0.39147,-0.029 0.59375,-0.0312 -0.19701,-0.0338 -0.3974,-0.0577 -0.59375,-0.0937 z"
       transform="matrix(0.94683789,0,0,0.9786402,-202.05408,-218.3197)"
       id="path3821" />
  </g>
  <g
     transform="matrix(1.056147,0,0,1.021826,98.90621,130.75898)"
     id="use12775"
     style="fill:#002469;fill-opacity:1" />
  <g
     transform="matrix(0.744361,0,0,0.744361,98.90621,254.00108)"
     style="fill:#ffd600;stroke:#000000;stroke-width:0.25px"
     id="g13709">
    <path
       style="stroke:none"
       d="m 213.40625,244.6875 -4.375,47 3.90625,74.1875 c 0.3174,0.0525 0.62623,0.12764 0.9375,0.1875 l 3.875,-74.375 -4.34375,-47 z"
       transform="matrix(1.3434342,0,0,1.3434342,-286.68725,-503.70445)"
       id="path13711" />
    <g
       id="g13713">
      <path
         style="stroke:none"
         d="m 240.46875,247.53125 -14.03125,45.0625 -11.96875,75.59375 c 0.24123,0.0273 0.48323,0.0624 0.71875,0.0937 l 19.78125,-73.875 5.5,-46.875 z"
         transform="matrix(1.3434342,0,0,1.3434342,-286.68725,-503.70445)"
         id="use13715" />
      <path
         style="stroke:none"
         d="m 266.375,255.9375 -23.09375,41.1875 -26.84375,69.90625 c 0.31519,0.0365 0.63097,0.0848 0.9375,0.125 l 33.875,-66.5 15.125,-44.71875 z"
         transform="matrix(1.3434342,0,0,1.3434342,-286.68725,-503.70445)"
         id="use13717" />
      <path
         style="stroke:none"
         d="m 289.96875,269.5625 -31.15625,35.46875 -39.5,60.84375 c 0.44627,0.0415 0.87814,0.0668 1.3125,0.125 l 45.25,-55.84375 24.09375,-40.59375 z"
         transform="matrix(1.3434342,0,0,1.3434342,-286.68725,-503.70445)"
         id="use13719" />
      <path
         style="stroke:none"
         d="M 296.03125,298.34375 272.34375,316 228.25,360.09375 c 1.87799,-0.6378 3.67668,-1.14399 5.34375,-1.5 l 44.59375,-36.125 14.84375,-16.09375 c 0.65576,-2.30937 1.56031,-4.80429 2.6875,-7.34375 0.10375,-0.23373 0.20687,-0.4573 0.3125,-0.6875 z"
         transform="matrix(1.3434342,0,0,1.3434342,-286.68725,-503.70445)"
         id="use13721" />
      <path
         style="stroke:none"
         d="m 227,245.375 c -0.70026,6.66255 -4.53316,7.77705 -5,12.21875 -0.46684,4.4417 3.06059,6.3083 2.59375,10.75 -0.31123,2.96113 -4.32972,5.51733 -4.71875,9.21875 -0.38903,3.70142 0.93623,5.35137 0.625,8.3125 -0.31123,2.96113 -2.75,5.8125 -2.75,5.8125 l -3.90625,74.78125 c 0.29723,0.0351 0.58412,0.0557 0.875,0.0937 L 226.4375,292.5937 c 0,0 -2.37245,-4.85898 -1.75,-10.78125 0.62245,-5.92227 5.97895,-7.22912 6.5625,-12.78125 0.70026,-6.66255 -5.96174,-7.37002 -4.25,-23.65625 z"
         transform="matrix(1.3434342,0,0,1.3434342,-286.68725,-503.70445)"
         id="path13723" />
      <path
         style="stroke:none"
         d="m 253.65625,251.0625 c -2.07018,6.37137 -6.08863,6.62742 -7.46875,10.875 -1.38012,4.24758 1.72387,6.81492 0.34375,11.0625 -0.92008,2.83172 -5.38115,4.52285 -6.53125,8.0625 -1.1501,3.53964 -0.20492,5.38703 -1.125,8.21875 -0.92008,2.83172 -3.90625,5.125 -3.90625,5.125 l -19.34375,72.1875 c 0.29447,0.0658 0.58872,0.14464 0.875,0.21875 l 26.78125,-69.6875 c 0,0 -1.30891,-5.27406 0.53125,-10.9375 1.84016,-5.66343 7.3686,-5.81553 9.09375,-11.125 2.07018,-6.37137 -4.31044,-8.42554 0.75,-24 z"
         transform="matrix(1.3434342,0,0,1.3434342,-286.68725,-503.70445)"
         id="use13725" />
      <path
         style="stroke:none"
         d="m 278.53125,262.125 c -3.34962,5.80172 -7.32942,5.22594 -9.5625,9.09375 -2.23308,3.86781 0.26433,7.03844 -1.96875,10.90625 -1.48872,2.57854 -6.2016,3.27682 -8.0625,6.5 -1.8609,3.22318 -1.32378,5.26521 -2.8125,7.84375 -1.48872,2.57854 -4.875,4.1875 -4.875,4.1875 l -32.71875,64.25 c 0.40597,-0.009 0.80817,-0.0312 1.21875,-0.0312 0.0631,0 0.12448,-2.2e-4 0.1875,0 l 38.875,-59.84375 c 0,0 -0.19619,-5.40542 2.78125,-10.5625 2.97744,-5.15709 8.39615,-4.16523 11.1875,-9 3.34962,-5.80172 -2.43797,-9.16177 5.75,-23.34375 z"
         transform="matrix(1.3434342,0,0,1.3434342,-286.68725,-503.70445)"
         id="use13727" />
      <path
         style="stroke:none"
         d="m 300.5625,278.125 c -4.48267,4.97851 -8.2303,3.61848 -11.21875,6.9375 -2.98845,3.31901 -1.2303,6.89974 -4.21875,10.21875 -1.9923,2.21267 -6.75963,1.92166 -9.25,4.6875 -2.49037,2.76584 -2.3827,4.88108 -4.375,7.09375 -1.9923,2.21267 -5.625,3.09375 -5.625,3.09375 l -43.78125,54.0625 c 0.62915,0.0355 1.24692,0.11279 1.84375,0.21875 L 272.34375,316 c 0,0 0.92166,-5.32465 4.90625,-9.75 3.98459,-4.42535 9.1082,-2.35124 12.84375,-6.5 4.48267,-4.97852 -0.48888,-9.4553 10.46875,-21.625 z"
         transform="matrix(1.3434342,0,0,1.3434342,-286.68725,-503.70445)"
         id="use13729" />
    </g>
    <g
       id="use13733"
       transform="scale(-1,1)">
      <path
         style="stroke:none"
         d="m 186.3125,247.53125 5.5,46.875 18.96875,70.6875 c 0.37949,0.10635 0.76177,0.22061 1.125,0.34375 l -11.5625,-72.84375 -14.03125,-45.0625 z"
         transform="matrix(-1.3434342,0,0,1.3434342,286.68725,-503.70445)"
         id="path13775" />
      <path
         style="stroke:none"
         d="m 160.40625,255.9375 15.15625,44.71875 33.09375,64.9375 c 0.36925,-0.0485 0.74822,-0.0924 1.125,-0.125 l -26.25,-68.34375 -23.125,-41.1875 z"
         transform="matrix(-1.3434342,0,0,1.3434342,286.68725,-503.70445)"
         id="path13777" />
      <path
         style="stroke:none"
         d="m 136.84375,269.5625 24.09375,40.59375 42.9375,53.03125 c 0.19877,-0.005 0.39302,-0.0312 0.59375,-0.0312 0.44362,0 0.87889,0.0362 1.3125,0.0625 L 168,305.03125 136.84375,269.5625 z"
         transform="matrix(-1.3434342,0,0,1.3434342,286.68725,-503.70445)"
         id="path13779" />
      <path
         style="stroke:none"
         d="m 128.84375,296.9375 c 0.84583,1.97354 1.56886,4.09458 2.0625,6.34375 0.002,0.01 -0.002,0.0213 0,0.0312 l 17.71875,19.15625 47.3125,38.3125 c 1.34454,0.14915 2.6478,0.35027 3.90625,0.59375 L 154.4375,316 128.84375,296.9375 z"
         transform="matrix(-1.3434342,0,0,1.3434342,286.68725,-503.70445)"
         id="path13781" />
      <path
         style="stroke:none"
         d="m 199.78125,245.375 c 1.71174,16.28623 -4.95026,16.9937 -4.25,23.65625 0.58355,5.55213 5.9713,6.85898 6.59375,12.78125 0.62245,5.92227 -1.78125,10.78125 -1.78125,10.78125 l 9.125,57.5625 c 0.85257,-0.14898 1.72154,-0.26731 2.625,-0.3125 l -3.0625,-58.15625 c 0,0 -2.43877,-2.85137 -2.75,-5.8125 -0.31123,-2.96113 1.01403,-4.61108 0.625,-8.3125 -0.38903,-3.70142 -4.40752,-6.25762 -4.71875,-9.21875 -0.46684,-4.4417 3.09184,-6.3083 2.625,-10.75 -0.46684,-4.4417 -4.33099,-5.5562 -5.03125,-12.21875 z"
         transform="matrix(-1.3434342,0,0,1.3434342,286.68725,-503.70445)"
         id="path13783" />
      <path
         style="stroke:none"
         d="m 173.15625,251.0625 c 5.06044,15.57446 -1.32018,17.62863 0.75,24 1.72515,5.30947 7.25359,5.46157 9.09375,11.125 1.84016,5.66344 0.53125,10.9375 0.53125,10.9375 l 25.875,67.4375 c 0.44664,0.093 0.88449,0.19741 1.3125,0.3125 L 191.8125,294.40625 c 0,0 -2.98617,-2.29328 -3.90625,-5.125 -0.92008,-2.83172 0.0564,-4.67911 -1.09375,-8.21875 -1.1501,-3.53965 -5.61117,-5.23078 -6.53125,-8.0625 -1.38012,-4.24758 1.69262,-6.81492 0.3125,-11.0625 -1.38012,-4.24758 -5.36732,-4.50363 -7.4375,-10.875 z"
         transform="matrix(-1.3434342,0,0,1.3434342,286.68725,-503.70445)"
         id="use13785" />
      <path
         style="stroke:none"
         d="m 148.28125,262.125 c 8.18797,14.18198 2.36913,17.54203 5.71875,23.34375 2.79135,4.83477 8.24131,3.84291 11.21875,9 2.97744,5.15708 2.78125,10.5625 2.78125,10.5625 l 39.21875,60.375 c 0.42141,-0.0422 0.84911,-0.0976 1.28125,-0.125 l -32.9375,-64.625 c 0,0 -3.41753,-1.60896 -4.90625,-4.1875 -1.48872,-2.57854 -0.92035,-4.62057 -2.78125,-7.84375 -1.8609,-3.22318 -6.57378,-3.92146 -8.0625,-6.5 -2.23308,-3.86781 0.23308,-7.03844 -2,-10.90625 -2.23308,-3.86781 -6.18163,-3.29203 -9.53125,-9.09375 z"
         transform="matrix(-1.3434342,0,0,1.3434342,286.68725,-503.70445)"
         id="use13787" />
      <path
         style="stroke:none"
         d="m 126.25,278.125 c 10.95763,12.1697 5.95483,16.64648 10.4375,21.625 3.73555,4.14876 8.85916,2.07465 12.84375,6.5 3.98459,4.42535 4.90625,9.75 4.90625,9.75 l 47.125,47.09375 c 0.8381,0.0588 1.66403,0.14037 2.46875,0.25 l -43.09375,-53.1875 c 0,0 -3.66395,-0.88108 -5.65625,-3.09375 -1.9923,-2.21267 -1.88463,-4.32791 -4.375,-7.09375 -2.49037,-2.76584 -7.22645,-2.47483 -9.21875,-4.6875 -2.98845,-3.31901 -1.2303,-6.89974 -4.21875,-10.21875 -2.98845,-3.31902 -6.73608,-1.95899 -11.21875,-6.9375 z"
         transform="matrix(-1.3434342,0,0,1.3434342,286.68725,-503.70445)"
         id="use13789" />
    </g>
    <path
       style="stroke:none"
       d="m 213.40625,291.5625 c -26.34083,0 -49.81299,12.23105 -65.09375,31.3125 l 3.1875,0 0,2.6875 c 3.38215,0.85912 6.24554,3.67629 7.96875,7.5625 0.0121,0.008 0.0191,0.0234 0.0312,0.0312 4.07667,2.64643 7.55845,5.98402 10.21875,9.84375 4.72889,1.57019 8.79379,4.52695 11.71875,8.375 7.90804,0.47008 14.34874,4.78158 15.90625,10.40625 0.002,3e-4 -0.002,0.031 0,0.0312 6.3867,1.18573 12.42995,2.90291 18,5.09375 4.84227,-4.21502 11.96954,-7.38003 20.28125,-8.78125 3.64001,-3.10622 7.89748,-5.79939 12.625,-8 2.49754,-4.83002 6.72315,-8.38812 11.71875,-9.59375 4.12667,-7.18186 10.71282,-13.19974 18.84375,-17.28125 -15.26937,-19.304 -38.88643,-31.6875 -65.40625,-31.6875 z"
       transform="matrix(1.3434342,0,0,1.3434342,-286.68725,-503.70445)"
       id="circle13735" />
  </g>
  <path
     style="fill:none;stroke:#ffd600;stroke-width:4;stroke-miterlimit:4;stroke-opacity:1;stroke-dasharray:none"
     d="m 2.0074,2.00063 0.0625,130.90625 c 0.018,22.54936 10.84584,44.2169 26.65625,62.84375 1.96561,1.87094 3.17348,3.30408 4.72119,5.21309 0.86243,1.06375 1.40393,1.52187 2.99756,3.28691 18.44821,18.85182 41.61373,33.8163 62.46875,42.15625 21.11428,-8.44381 44.56734,-23.69075 63.125,-42.875 3.79169,-4.09783 7.24708,-8.63595 11.4375,-13.125 0.0178,-0.023 0.0447,-0.0394 0.0625,-0.0625 13.38372,-17.3582 22.20251,-37.04314 22.21875,-57.4375 l 0.0625,-130.90625 -193.8125,0 z"
     id="path13196"
     sodipodi:nodetypes="cccsccccsccc" />
</svg>
