<?xml version="1.0" encoding="UTF-8" standalone="no"?>
<!-- Created with Inkscape (http://www.inkscape.org/) -->

<svg
   xmlns:dc="http://purl.org/dc/elements/1.1/"
   xmlns:cc="http://creativecommons.org/ns#"
   xmlns:rdf="http://www.w3.org/1999/02/22-rdf-syntax-ns#"
   xmlns:svg="http://www.w3.org/2000/svg"
   xmlns="http://www.w3.org/2000/svg"
   xmlns:sodipodi="http://sodipodi.sourceforge.net/DTD/sodipodi-0.dtd"
   xmlns:inkscape="http://www.inkscape.org/namespaces/inkscape"
   version="1.0"
   width="205.76433"
   height="254.85432"
   id="svg3461"
   inkscape:version="0.47 r22583"
   sodipodi:docname="ZZ2.svg">
  <metadata
     id="metadata159">
    <rdf:RDF>
      <cc:Work
         rdf:about="">
        <dc:format>image/svg+xml</dc:format>
        <dc:type
           rdf:resource="http://purl.org/dc/dcmitype/StillImage" />
      </cc:Work>
    </rdf:RDF>
  </metadata>
  <sodipodi:namedview
     pagecolor="#ffffff"
     bordercolor="#666666"
     borderopacity="1"
     objecttolerance="10"
     gridtolerance="10"
     guidetolerance="10"
     inkscape:pageopacity="0"
     inkscape:pageshadow="2"
     inkscape:window-width="1280"
     inkscape:window-height="1004"
     id="namedview157"
     showgrid="false"
     inkscape:zoom="1.3037281"
     inkscape:cx="68.942367"
     inkscape:cy="134.09901"
     inkscape:window-x="-8"
     inkscape:window-y="-8"
     inkscape:window-maximized="1"
     inkscape:current-layer="svg3461" />
  <defs
     id="defs3463">
    <inkscape:perspective
       sodipodi:type="inkscape:persp3d"
       inkscape:vp_x="0 : 256 : 1"
       inkscape:vp_y="0 : 1000 : 0"
       inkscape:vp_z="1024 : 256 : 1"
       inkscape:persp3d-origin="512 : 170.66667 : 1"
       id="perspective161" />
    <inkscape:perspective
       id="perspective3196"
       inkscape:persp3d-origin="0.5 : 0.33333333 : 1"
       inkscape:vp_z="1 : 0.5 : 1"
       inkscape:vp_y="0 : 1000 : 0"
       inkscape:vp_x="0 : 0.5 : 1"
       sodipodi:type="inkscape:persp3d" />
    <inkscape:perspective
       id="perspective2975"
       inkscape:persp3d-origin="0.5 : 0.33333333 : 1"
       inkscape:vp_z="1 : 0.5 : 1"
       inkscape:vp_y="0 : 1000 : 0"
       inkscape:vp_x="0 : 0.5 : 1"
       sodipodi:type="inkscape:persp3d" />
  </defs>
  <rect
     style="fill:#cf142b;fill-opacity:1;fill-rule:evenodd;stroke:none"
     id="rect1654"
     width="193"
     height="76"
     x="5.5785465"
     y="5.227201" />
  <g
     id="g1457"
     transform="matrix(1.210399,0,0,1.113168,-524.43746,-109.4849)">
    <path
       sodipodi:nodetypes="cccccc"
       id="path604"
       d="m 438.23746,171.15128 159.84369,-0.0302 0.0302,45.07999 c -3.25262,48.87486 -41.15105,88.68736 -80.14007,106.40488 -35.60537,-17.36978 -74.80707,-54.40239 -79.70362,-104.42328 l -0.0302,-47.03135 z"
       style="fill:#016a28;fill-opacity:1;fill-rule:evenodd;stroke:#fedd00;stroke-width:3.5433116;stroke-linecap:butt;stroke-linejoin:miter;stroke-opacity:1;stroke-dasharray:none" />
    <path
       sodipodi:nodetypes="cssss"
       id="path626"
       d="m 572.02194,222.50265 c 0.11693,0.74285 0.0988,-8.79526 1.41616,-12.74637 1.13796,-3.41288 6.11313,-8.29734 5.94783,-9.3466 -0.11793,-0.74487 -6.05468,1.73667 -6.79752,3.96522 -1.71148,5.13544 -0.73278,17.07647 -0.56647,18.12775 z"
       style="fill:#4a0f00;fill-opacity:1;fill-rule:evenodd;stroke:none" />
    <path
       sodipodi:nodetypes="csssssss"
       id="path625"
       d="m 549.64574,237.23062 c -0.005,0.27517 11.89668,12.74637 11.89668,12.74637 1.5109,3.11554 3.1357,5.77448 4.26156,8.56142 0.45256,0.13607 5.36827,0.21872 5.36827,-0.0645 0,-0.28323 -7.93044,-14.16252 -7.93044,-14.16252 -0.66121,-9.25286 0.66624,-19.38061 -1.98262,-27.75758 -1.41111,-4.46314 -10.78694,-12.63751 -12.0267,-10.43013 -2.63172,4.68489 0.5967,20.9026 0.41325,31.10695 z"
       style="fill:#febb30;fill-opacity:1;fill-rule:evenodd;stroke:#4a0f00;stroke-width:0.70866138;stroke-linecap:butt;stroke-linejoin:miter;stroke-opacity:1;stroke-dasharray:none" />
    <rect
       y="105.12733"
       x="529.77057"
       height="21.086718"
       width="66.539482"
       id="rect608"
       style="font-size:12px;fill:#ffffff;fill-opacity:1;fill-rule:evenodd;stroke-width:1pt" />
    <rect
       y="105.1266"
       x="439.99225"
       height="21.244207"
       width="67.335548"
       id="rect607"
       style="font-size:12px;fill:#ffffff;fill-opacity:1;fill-rule:evenodd;stroke-width:1pt" />
    <rect
       y="148.30539"
       x="439.9938"
       height="21.007975"
       width="67.020569"
       id="rect606"
       style="font-size:12px;fill:#ffffff;fill-opacity:1;fill-rule:evenodd;stroke-width:1pt" />
    <rect
       y="148.97032"
       x="529.77057"
       height="20.378014"
       width="66.556709"
       id="rect609"
       style="font-size:12px;fill:#ffffff;fill-opacity:1;fill-rule:evenodd;stroke-width:1pt" />
    <rect
       y="103.35862"
       x="438.22369"
       height="67.723923"
       width="159.86293"
       id="rect613"
       style="font-size:12px;fill:none;stroke:#fedd00;stroke-width:3.5371716;stroke-opacity:1" />
    <path
       sodipodi:nodetypes="ccscccs"
       id="path656"
       d="m 476.77391,250.30558 c 5.80471,-0.2671 28.43189,5.35316 46.33285,8.18647 10.55814,-0.0665 23.44663,2.39788 34.61659,1.93725 8.12397,-0.14514 15.90222,0.4576 23.46377,2.63878 -18.35454,28.3059 -33.60059,42.34142 -63.2158,57.71548 -42.89578,-25.18129 -53.97704,-42.94618 -65.12281,-61.98208 7.80144,-3.00566 11.44614,-7.89517 23.9254,-8.4959 z"
       style="fill:#01289a;fill-opacity:1;fill-rule:evenodd;stroke:none" />
    <path
       sodipodi:nodetypes="cscscccssssssssscssssscccssssssssscsccssssssscccssss"
       id="path657"
       d="m 523.57948,265.21196 c 0.48684,-1.16114 32.87387,2.96334 44.52562,3.97027 2.02293,0.26508 -4.37948,3.28587 -3.38566,6.83482 -4.59014,-2.95124 -41.60865,-9.68729 -41.13996,-10.80509 z m -47.90825,9.89391 c -1.57641,4.24442 37.36322,17.94733 54.2885,22.39233 3.6195,-5.32997 14.68564,-7.83167 19.84527,-9.68325 1.26496,-2.44425 -6.44274,-8.21872 -9.94532,-9.45042 -1.82537,-0.64205 -3.86342,3.87552 -6.03956,3.82815 -4.10633,-0.0907 -5.8037,-3.41892 -12.54881,-3.72231 -0.60174,-0.0282 8.05946,3.82713 8.54126,4.86934 0.30137,0.65213 -5.35114,-1.03818 -6.45181,-0.30843 -0.68338,0.45256 2.18319,4.02167 1.09865,3.85637 -7.79841,-1.18534 -27.72734,-8.96056 -27.74649,-7.90828 0.2026,3.41187 24.40216,7.91937 22.24517,10.5773 -3.33728,3.71021 -42.61255,-16.37596 -43.28686,-14.4508 z m 36.97315,23.95463 c -7.04649,-1.45344 -20.87438,-7.95363 -24.47473,-8.07156 -1.69434,-0.0564 7.32569,5.08404 8.59165,7.55046 0.38302,0.74487 -2.67405,1.26698 -3.6447,0.78115 -1.63285,-0.81643 -2.77686,-3.1246 -4.1658,-4.68691 0,0 0,2.6035 -0.26105,2.6035 -0.26005,0 -4.6859,-1.04119 -7.81051,-2.34345 -8.93939,-6.68262 -19.01977,-21.99923 -24.47573,-30.20283 -0.70657,-2.90588 14.87312,0.51102 17.70542,2.34345 10.62063,0.94545 21.51744,-0.35479 32.02619,1.30125 16.48279,2.59745 45.05377,9.09159 48.69041,11.19717 2.3364,1.41817 -8.63096,-0.98173 -8.59266,-0.001 0.0494,1.27504 7.09386,6.97594 9.11376,7.03036 1.19139,0.0323 0.21369,-4.42081 1.5613,-5.207 1.77699,-1.03616 8.72974,1.66814 7.81151,-0.26105 -1.52803,-3.7586 -29.14752,-8.34875 -47.6482,-14.05972 -11.06816,-3.46629 -28.77862,-1.96447 -38.79651,-3.90575 -1.17828,-0.2288 0.0615,-3.82311 1.30226,-3.90576 7.87299,-0.52513 23.59177,0.36286 26.03803,2.0824 6.6665,-2.32733 44.18998,0.9525 66.13478,2.34345 2.7043,0.17135 8.95451,0.50498 7.81151,2.34346 -7.18961,12.65565 -20.09927,25.78504 -28.90158,33.58849 -2.82727,2.17815 -10.74663,-1.6258 -13.01952,-1.30125 -0.76503,0.10886 1.5623,2.86355 2.34345,3.90475 0,0 -15.36197,-3.38465 -15.36197,-3.1236 0,0.26005 9.89492,5.20701 9.89492,5.20701 -1.91004,0.17336 -5.53055,-0.9515 -6.51027,-0.26005 -0.4959,0.34975 1.64899,2.25677 1.30226,2.6035 -0.43442,0.43442 -4.05997,-0.67532 -3.6447,-0.26005 1.06035,1.06035 8.95048,3.13368 8.07156,4.68691 -1.72458,3.04699 -12.93385,8.15824 -15.62303,9.3728 -2.05619,-0.84969 -23.95463,-13.79966 -23.69357,-13.79966 7.29041,-0.5211 20.30892,-0.5211 20.30892,-0.5211 1.82235,-1.56231 5.74121,-3.10243 5.46806,-4.68691 -0.37798,-2.19126 -5.66259,-6.09399 -7.42043,-6.63928 -0.75898,-0.23586 1.02507,4.53571 -0.13103,4.29683 z"
       style="fill:#536383;fill-opacity:1;fill-rule:evenodd;stroke:none" />
    <path
       sodipodi:nodetypes="csscccsccsccccccscscccssssssc"
       id="path658"
       d="m 464.40451,221.14193 c -0.007,5.68174 3.07622,6.42661 4.49742,7.87703 2.91797,2.97644 6.7189,4.48532 8.85271,8.07156 3.00667,5.36021 6.75217,3.64672 7.55146,6.51027 1.16518,-1.54416 0.97568,-4.1265 -3.1246,-7.55147 3.25261,-0.18647 7.45268,4.30591 7.2904,6.50926 2.38579,-1.96346 0.38806,-7.95666 0,-11.19617 -0.1401,-1.07446 2.06728,2.66801 4.68691,2.60451 0.58864,5.93978 5.17173,9.09361 10.41401,10.15396 2.67305,4.2918 9.57237,9.07748 11.45722,7.29041 0.65112,-0.43745 -4.78065,-1.80824 -3.79589,-3.2385 1.25891,-1.19239 2.96232,1.38289 5.80773,0.0625 -3.22036,-2.01487 -2.85952,-3.81101 -2.79299,-6.1968 1.13796,1.70644 4.83708,1.78708 5.46805,1.30125 -1.88887,-0.51606 -2.63474,-2.16807 -2.0834,-3.90576 5.46806,-0.49086 7.99395,-3.57616 11.19616,-7.55045 1.85561,0.26509 18.17915,3.05505 19.12661,4.49338 0.51808,1.38692 8.3175,6.16354 9.11276,6.62719 -0.29633,-0.91924 -1.63991,-3.06111 -1.24077,-3.37155 0.38201,-0.29734 1.56029,1.41917 3.18609,2.74159 -1.04321,-2.84339 -1.5119,-6.94368 -0.97467,-7.10596 0.39007,1.23875 2.67506,3.50258 3.83419,5.60514 -10e-4,-4.30389 0.47474,-16.96862 -1.22162,-21.28461 -0.74487,-2.4009 -28.08919,-16.82247 -42.7587,-24.15722 -5.98715,-2.99358 -11.48242,-5.88333 -17.70543,-6.25022 -4.79072,-0.0222 -9.77799,1.98463 -13.79966,4.16681 -6.21897,3.37256 -12.29986,7.25412 -17.96547,11.45621 -2.05922,1.52602 -4.81693,3.3645 -5.4731,5.66158 -0.90613,3.17097 -1.26294,7.44463 0.45458,10.67607 z"
       style="fill:#4a0f00;fill-opacity:1;fill-rule:evenodd;stroke:none" />
    <path
       sodipodi:nodetypes="ccs"
       id="path647"
       d="m 472.79962,234.96075 c -1.25589,-1.29016 3.89668,-3.37256 6.65137,-8.81239 4.42283,5.2574 -4.53672,10.73049 -6.65137,8.81239 z"
       style="fill:#dc6207;fill-opacity:1;fill-rule:evenodd;stroke:#000000;stroke-width:0.35433117;stroke-linecap:butt;stroke-linejoin:miter;stroke-opacity:1;stroke-dasharray:none" />
    <path
       sodipodi:nodetypes="cccccccccccc"
       id="path638"
       d="m 467.2227,221.93619 c 0,0 0.56646,6.79752 3.11554,7.93045 0,2.54907 0,3.39876 0.28323,3.39876 5.38137,0.28323 8.78114,-6.23107 8.78114,-6.23107 2.26585,5.56986 -5.31787,7.2259 -5.09814,8.21368 5.53962,4.3936 4.15371,-2.07736 6.23106,-3.11553 6.79753,0.56646 2.40091,-5.88031 3.34938,-5.54769 2.11264,-0.16631 6.25929,-3.2012 4.29784,-9.46453 -1.69938,-2.06223 -7.93045,3.11655 -8.78014,5.38239 1.39196,-2.89379 -2.54907,-5.38239 -1.69938,-5.38239 1.98261,0.8497 -2.54907,-0.28222 -3.39876,0.56747 -2.36059,1.41615 -4.72118,2.83231 -7.08177,4.24846 z"
       style="fill:#febb30;fill-opacity:1;fill-rule:evenodd;stroke:#4a0f00;stroke-width:0.70866138;stroke-linecap:butt;stroke-linejoin:miter;stroke-opacity:1;stroke-dasharray:none" />
    <path
       sodipodi:nodetypes="cssssscsssscssssssscccssssssssssssssssssssssssssssssss"
       id="path659"
       d="m 486.15075,193.69077 c -0.54529,0.0333 -8.35378,5.26849 -9.54214,5.96396 -2.51379,1.20348 -12.45911,5.69888 -13.91658,8.34975 -1.87275,3.12058 -2.40797,8.28323 -1.05935,10.86758 1.74071,2.96031 5.74525,1.5361 7.15636,2.78291 2.80509,2.60955 5.29368,-1.80118 5.69887,-3.71021 -0.127,-3.14477 -1.91609,-8.95149 -2.91596,-12.4581 1.97153,0.67935 4.89354,2.58132 7.02431,1.98765 0.6088,-0.0595 -1.01196,-2.82525 -0.39712,-2.65088 2.65389,0.75293 7.37205,4.80081 10.20435,5.43379 1.43833,0.17337 -0.38503,-2.9462 0.13305,-2.65087 1.9564,1.1178 5.33501,4.26155 7.2894,6.89227 -4.47222,0.68237 3.47033,5.6001 3.048,7.02431 -0.28525,0.96158 -3.94506,-4.04686 -5.1687,0.13204 -2.11062,4.38352 3.14174,7.19163 2.78291,8.34975 -0.21569,0.6975 -4.37444,-4.47221 -4.50648,-2.78291 0,4.71009 9.79412,15.55448 17.09763,14.84288 1.29218,-0.0565 -1.83948,-5.70896 -0.92831,-5.96396 1.29823,-0.36286 7.43051,10.72142 8.34975,4.10936 0.62291,-2.44324 -3.09739,-7.85486 -2.91596,-11.26572 0.96661,-0.29935 12.15774,4.45408 14.71084,-5.43378 -0.5211,5.82386 2.69825,12.49942 6.36109,14.04862 -0.0403,3.97228 3.51165,5.89744 3.3141,8.87993 -0.15623,2.3626 -3.25866,4.29179 -4.2414,6.62617 -0.43039,1.02306 0.40721,2.42712 0,3.44614 -0.65214,1.63084 -3.90072,2.65995 -3.9753,4.50548 -0.0333,0.77409 4.36336,1.96447 5.43378,1.45748 1.36274,-0.72874 -0.53521,-2.07837 0.13204,-2.65088 1.61472,-1.47864 8.09374,-7.493 9.94028,-10.86657 0.71664,-1.30931 -1.68527,-2.22754 -1.59053,-4.77157 0.16228,-4.15976 8.70253,-7.42648 10.33741,-15.5061 0.6481,-3.09941 1.01902,-6.75419 0.26609,-9.80723 -0.88194,-3.57415 -5.43076,-10.22351 -5.16971,-10.07232 5.51947,3.06716 5.72206,24.27314 14.84389,23.85586 8.16631,-0.37999 8.31851,-10.98853 7.81958,-17.09663 -0.64206,-8.65818 1.81126,-5.3461 1.32543,-10.60249 0,0 -7.68753,1.59053 -7.55448,7.81857 0.0806,3.71021 2.38578,5.56683 2.65087,9.14501 -0.39511,5.33199 -2.94116,7.00415 -4.2414,6.49414 -1.9685,-0.77107 -3.70719,-6.89328 -5.56683,-10.3374 -2.02797,-3.75759 -3.01777,-8.73176 -6.09601,-11.26572 -3.4159,-2.81113 -8.65414,-4.88244 -13.38641,-4.77056 -6.08693,0.53824 -10.00781,-0.9273 -15.24101,-4.2414 -1.33653,-0.83356 -4.67582,-1.39297 -4.63853,-0.9273 0.0514,0.63802 5.79866,4.40065 4.90361,4.24039 -2.06526,-0.36991 -9.57036,-4.85322 -13.78354,-5.83092 -0.73478,-0.17034 -0.52513,2.51985 -1.05934,2.38579 -1.05531,-0.26408 -2.47448,-2.38579 -3.71122,-3.57818 0,0 -0.66322,5.69888 -0.66322,5.43379 0,-0.26508 -3.71022,-5.30175 -3.71022,-5.30175 -0.48583,1.28109 -0.61383,3.63765 -1.45848,3.84327 -0.96662,0.23585 -3.01374,-2.9331 -3.97531,-2.51783 -0.73781,0.3941 1.54114,3.76666 0.79526,3.57818 -2.51379,-0.86683 -8.61483,-5.53962 -10.20536,-5.43379 z"
       style="fill:#febb30;fill-opacity:1;fill-rule:evenodd;stroke:#3a1400;stroke-width:0.70866138;stroke-linecap:butt;stroke-linejoin:miter;stroke-opacity:1;stroke-dasharray:none" />
    <path
       sodipodi:nodetypes="cssssss"
       id="path661"
       d="m 504.30773,244.31842 c -0.40519,4.47221 0.57452,7.63613 -1.32544,9.67418 -0.60678,0.6995 0.84163,2.1842 0.13305,2.78392 -1.23069,0.93032 -4.02872,3.54894 0.9273,3.44513 4.71916,-0.10181 4.02671,-2.76175 3.57818,-4.10835 -0.65113,-2.08643 0.83961,-5.96699 0.13305,-8.48179 -0.39814,-1.41716 -3.36551,-4.18093 -3.44614,-3.31309 z"
       style="fill:#febb30;fill-opacity:1;fill-rule:evenodd;stroke:#4a0f00;stroke-width:0.70866138;stroke-linecap:butt;stroke-linejoin:miter;stroke-opacity:1;stroke-dasharray:none" />
    <path
       sodipodi:nodetypes="csssssssss"
       id="path660"
       d="m 512.52443,251.07766 c 0.78115,1.3718 0.44249,3.35744 0.66222,5.03566 0,0 -0.66222,0.53017 -0.66222,0.79526 0,0.26509 0.53118,0.26509 0.79627,1.85561 0.17437,1.92818 -2.12372,3.45218 -4.63953,2.91596 -0.92831,-0.15018 -2.78392,0.51707 -2.78392,-0.53017 0,-2.25274 2.73251,-3.72131 2.65087,-5.03666 -0.1149,-1.67217 -1.45748,-1.45748 -1.45748,-3.047 0,-1.96144 0.2157,-5.20297 1.19239,-5.56683 0.92226,-0.3427 3.38869,2.07937 4.2414,3.57817 z"
       style="fill:#febb30;fill-opacity:1;fill-rule:evenodd;stroke:#4a0f00;stroke-width:0.70866138;stroke-linecap:butt;stroke-linejoin:miter;stroke-opacity:1;stroke-dasharray:none" />
    <path
       sodipodi:nodetypes="cccccccccc"
       id="path627"
       d="m 500.64489,201.25937 c 0.85069,0.84969 10.76376,16.14412 10.76376,16.14412 -0.8497,-0.28323 -1.69939,-0.56646 -2.54908,-0.84969 1.60464,2.36059 3.21028,4.72118 4.81492,7.08177 -1.60464,0.56646 -6.04258,-5.66561 -9.06337,-8.49792 0.6602,4.05997 -5.47612,-4.3432 -8.21469,-6.51429 1.79413,0.56646 3.58725,1.13292 5.38138,1.69938 -2.07736,-1.98261 -4.15371,-3.96523 -6.23107,-5.94784 2.1721,0.75495 4.3432,1.5109 6.51531,2.26584 -0.47273,-1.79412 -0.94444,-3.58724 -1.41716,-5.38137 z"
       style="fill:#4a0f00;fill-opacity:1;fill-rule:evenodd;stroke:none" />
    <path
       sodipodi:nodetypes="csss"
       id="path628"
       d="m 528.40246,216.83703 c -0.84969,-7.36398 3.96624,-10.76275 5.66562,-11.04598 0.56041,-0.0796 2.54907,3.39877 2.54907,3.39877 -5.8541,-0.56646 -7.76918,11.36146 -8.21469,7.64721 z"
       style="fill:#4a0f00;fill-opacity:1;fill-rule:evenodd;stroke:none" />
    <path
       sodipodi:nodetypes="cssssc"
       id="path629"
       d="m 468.07239,205.79105 c -3.61446,3.047 -5.57086,7.27025 -4.53168,12.46314 0,0 2.8323,-0.56646 3.11553,-0.56646 0.28323,0 3.39877,2.54908 3.39877,2.54908 0,0 1.07042,-5.84201 0.84969,-5.66562 -1.41615,1.41615 -7.81353,-1.44236 -2.83231,-8.78014 z"
       style="fill:#4a0f00;fill-opacity:1;fill-rule:evenodd;stroke:none" />
    <path
       sodipodi:nodetypes="cc"
       id="path630"
       d="m 483.36784,198.14383 c 4.90966,1.22767 6.70278,3.02079 8.78014,5.38138"
       style="fill:none;stroke:#480f00;stroke-width:1.24016058;stroke-linecap:butt;stroke-linejoin:miter;stroke-opacity:1;stroke-dasharray:none" />
    <path
       sodipodi:nodetypes="cc"
       id="path631"
       d="m 485.91691,195.31151 c 3.87048,1.32141 6.32581,3.21028 8.78014,5.94784"
       style="fill:none;stroke:#4a0f00;stroke-width:1.24016058;stroke-linecap:butt;stroke-linejoin:miter;stroke-opacity:1;stroke-dasharray:none" />
    <path
       sodipodi:nodetypes="csc"
       id="path632"
       d="m 546.24698,221.93619 c 0.28323,3.63462 -4.86834,13.88735 -5.98311,16.03829 -0.45559,0.76099 -0.95553,-0.55537 -1.66411,-3.0097"
       style="fill:none;stroke:#4a0f00;stroke-width:1.00000048pt;stroke-linecap:butt;stroke-linejoin:miter;stroke-opacity:1" />
    <path
       sodipodi:nodetypes="cc"
       id="path633"
       d="m 550.49543,224.76849 c -2.8323,4.90966 -3.39876,8.68539 -7.64721,11.32921"
       style="fill:none;stroke:#4a0f00;stroke-width:1.24016058;stroke-linecap:butt;stroke-linejoin:miter;stroke-opacity:1;stroke-dasharray:none" />
    <path
       id="path634"
       d="m 540.8656,245.72753 c 0,0.0948 0,0.18949 0,0.28323"
       style="fill:none;stroke:#000000;stroke-width:1.00000048pt;stroke-linecap:butt;stroke-linejoin:miter;stroke-opacity:1" />
    <path
       sodipodi:nodetypes="cc"
       id="path635"
       d="m 535.48423,256.49129 c 0,-3.49351 5.94783,-4.15471 5.09814,-10.48053"
       style="fill:none;stroke:#4a0f00;stroke-width:1.24016058;stroke-linecap:butt;stroke-linejoin:miter;stroke-opacity:1;stroke-dasharray:none" />
    <path
       sodipodi:nodetypes="csssssssssss"
       id="path636"
       d="m 502.62851,198.42706 c -1.26497,3.95313 9.06236,20.96005 14.44474,23.50913 1.29419,0.57553 -0.84566,-6.75217 0.84969,-6.79854 2.00176,-0.0655 3.96523,6.5143 5.66461,4.53169 1.72256,-1.72257 3.39876,-5.09815 3.96522,-5.66461 0.56646,-0.56646 2.26584,-7.36399 2.26584,-7.36399 0,0 -5.6646,-0.28323 -5.94783,-0.28323 -0.28323,0 -6.5143,-5.94783 -6.5143,-5.94783 0.37798,1.79412 1.80723,4.9399 1.13292,5.38137 -2.59947,1.51594 -6.26735,-6.1716 -7.93045,-6.23106 -0.98072,-0.0353 0.94847,6.0829 0,5.94783 -1.69535,-0.2419 -7.53533,-8.67128 -7.93044,-7.08076 z"
       style="fill:#fee5a3;fill-opacity:1;fill-rule:evenodd;stroke:none" />
    <path
       sodipodi:nodetypes="cssssss"
       id="path637"
       d="m 532.08546,211.73889 c -3.57616,4.82701 0.43846,16.38401 3.11554,18.69421 2.69321,2.85246 -3.39977,-13.79362 -0.84969,-12.17891 3.67695,2.22452 2.77283,3.90072 4.81491,6.23107 3.48646,4.62038 7.62505,-0.28021 7.08076,-7.365 -0.27517,-3.43504 -11.02179,-7.47889 -10.76275,-7.36398 2.8323,1.13292 -1.44841,-0.26711 -3.39877,1.98261 z"
       style="fill:#fee5a3;fill-opacity:1;fill-rule:evenodd;stroke:none" />
    <path
       sodipodi:nodetypes="ccss"
       id="path639"
       d="m 477.42,216.83703 c 0.78317,-1.69736 1.86166,-9.74574 -6.5153,-11.61244 5.54466,8.85271 1.43328,8.32959 3.11654,11.32921 0.48885,0.87086 3.04901,1.04019 3.39876,0.28323 z"
       style="fill:#feffff;fill-opacity:1;fill-rule:evenodd;stroke:#4a0f00;stroke-width:0.70866138;stroke-linecap:butt;stroke-linejoin:miter;stroke-opacity:1;stroke-dasharray:none" />
    <path
       id="path640"
       d="m 469.77178,223.35234 c 0,-0.0948 0,-0.18949 0,-0.28323"
       style="fill:none;stroke:#000000;stroke-width:1.00000048pt;stroke-linecap:butt;stroke-linejoin:miter;stroke-opacity:1" />
    <path
       sodipodi:nodetypes="cc"
       id="path641"
       d="m 477.70323,221.93619 c -1.69938,3.39876 -4.81592,2.8323 -8.49792,1.69938"
       style="fill:none;stroke:#4a0f00;stroke-width:0.70866138;stroke-linecap:butt;stroke-linejoin:miter;stroke-opacity:1;stroke-dasharray:none" />
    <path
       id="path642"
       d="m 469.48855,224.48526 c 0.0947,0 0.18949,0 0.28323,0"
       style="fill:none;stroke:#000000;stroke-width:1.00000048pt;stroke-linecap:butt;stroke-linejoin:miter;stroke-opacity:1" />
    <path
       sodipodi:nodetypes="ccc"
       id="path643"
       d="m 470.9047,229.86664 c -0.56646,-0.80232 2.54907,-0.75495 1.98261,-1.55727 -1.69938,-0.80332 -1.41615,-3.30502 -4.24846,-4.39057"
       style="fill:none;stroke:#4a0f00;stroke-width:0.70866138;stroke-linecap:butt;stroke-linejoin:miter;stroke-opacity:1;stroke-dasharray:none" />
    <path
       sodipodi:nodetypes="cssss"
       id="path644"
       d="m 566.05093,258.75512 c 0.28323,0 4.83809,0.002 4.83809,0.002 0,0 0.28323,5.09815 0,5.09815 -0.28323,0 -7.36398,-0.28323 -7.36398,-0.28323 0,0 2.24266,-4.81693 2.52589,-4.81693 z"
       style="fill:#000000;fill-opacity:1;fill-rule:evenodd;stroke:none" />
    <path
       sodipodi:nodetypes="csscc"
       id="path645"
       d="m 550.62949,216.16373 c 5.30276,3.77069 3.54391,17.27403 -6.12826,23.68652 -1.37281,1.0281 -1.29419,7.06665 -1.88484,6.83482 -0.7872,-0.26206 -1.397,-4.41073 0.35278,-9.19137 4.6103,-4.40872 10.32228,-10.24367 7.66032,-21.32997 z"
       style="fill:#fee5a3;fill-opacity:1;fill-rule:evenodd;stroke:none" />
    <path
       sodipodi:nodetypes="csss"
       id="path646"
       d="m 481.2804,223.32109 c -0.29533,-0.83356 3.35038,-4.90361 4.65566,-4.32304 1.83646,0.89102 0.51506,3.78783 -0.33262,4.48935 -0.75897,0.62795 -3.9501,1.35769 -4.32304,-0.16631 z"
       style="fill:#490f00;fill-opacity:1;fill-rule:evenodd;stroke:none" />
  </g>
</svg>
