<?xml version="1.0" encoding="UTF-8" standalone="no"?>
<!-- Created with Inkscape (http://www.inkscape.org/) -->

<svg
   xmlns:svg="http://www.w3.org/2000/svg"
   xmlns="http://www.w3.org/2000/svg"
   version="1.0"
   width="205.21695"
   height="253.48813"
   id="svg3461">
  <defs
     id="defs3463" />
  <path
     d="m 6.47033,86.51102 0.0312,49.75 c 0.0401,50.20149 53.45783,96.14992 96.84375,113.5 43.38555,-17.35031 96.80377,-63.29849 96.84375,-113.5 l 0.0312,-49.75 -193.75,0 z"
     id="path9570"
     style="fill:#144d29;fill-opacity:1;stroke:none" />
  <path
     d="m 6.43908,5.35503 0.0312,81.15599 193.7494,0 0.0312,-81.15599 -193.8119,0 z"
     id="path4869"
     style="fill:#ffffff;fill-opacity:1;stroke:#144d29;stroke-width:3.99999762;stroke-miterlimit:4;stroke-opacity:1;stroke-dasharray:none" />
  <polygon
     points="1822.52,500.157 1822.52,300.058 1777.52,300.058 1777.52,300.058 1777.52,500.157 "
     transform="matrix(0.378467,0,0,0.385168,-577.90317,-108.17558)"
     id="path141_8"
     style="fill:#ce1126" />
  <polygon
     points="2040,422.611 2040,377.602 1560.04,377.602 1560.04,377.602 1560.04,422.611 "
     transform="matrix(0.395302,0,0,0.378395,-608.20517,-106.5355)"
     id="path141_9"
     style="fill:#cf142b;fill-opacity:1" />
  <g
     transform="matrix(0.374982,0,0,0.378001,-571.62227,-100.30673)"
     id="g36">
    <g
       id="g13981">
      <polygon
         points="1800,518.781 1813.12,537.423 1818.35,534.366 1818.35,573.443 1852.28,553.891 1852.24,559.936 1874.96,561.907 1865.31,582.52 1870.58,585.509 1836.65,605.05 1851.49,613.602 1846.89,616.217 1855.33,634.253 1835.45,635.978 1835.48,641.267 1805.8,624.165 1805.84,861.22 1800.01,861.181 1800.01,861.181 1794.17,861.22 1794.2,624.165 1764.52,641.267 1764.55,635.978 1744.67,634.253 1753.11,616.217 1748.51,613.602 1763.35,605.05 1729.42,585.509 1734.69,582.52 1725.04,561.907 1747.76,559.936 1747.72,553.891 1781.65,573.443 1781.65,534.366 1786.88,537.423 "
         id="_126098824"
         style="fill:#d19938" />
      <polygon
         points="1976.23,608.001 1956.69,641.841 1995.85,641.872 1992.79,647.089 2011.48,660.154 1992.82,673.181 1995.89,678.404 1956.73,678.36 1965.31,693.191 1960.01,693.151 1958.31,712.991 1940.23,704.546 1937.61,709.143 1920.45,679.489 1910.42,673.695 1910.42,673.695 1876.16,673.661 1878.83,669.098 1862.48,657.665 1878.81,646.265 1876.12,641.696 1893.26,641.714 1873.64,607.826 1879.7,607.871 1881.65,585.196 1902.31,594.848 1905.3,589.593 1924.91,623.49 1944.44,589.646 1947.44,594.909 1968.13,585.327 1970.17,608.033 "
         id="_126097944"
         style="fill:#d19938" />
      <polygon
         points="1623.77,607.687 1643.31,641.526 1604.15,641.558 1607.21,646.776 1588.52,659.841 1607.18,672.868 1604.11,678.091 1643.27,678.047 1634.69,692.877 1639.99,692.837 1641.69,712.678 1659.77,704.232 1662.39,708.83 1679.55,679.176 1689.58,673.381 1689.58,673.381 1723.84,673.346 1721.17,668.784 1737.52,657.351 1721.19,645.952 1723.88,641.382 1706.74,641.4 1726.36,607.512 1720.3,607.558 1718.35,584.883 1697.69,594.534 1694.7,589.28 1675.09,623.177 1655.56,589.333 1652.56,594.596 1631.87,585.014 1629.83,607.719 "
         id="_126097064"
         style="fill:#d19938" />
    </g>
    <g
       id="g11333"
       style="fill:none;stroke:#fcc917;stroke-opacity:1">
      <line
         id="_126096560"
         class="fil5 str1"
         x1="1799.95"
         y1="533.216"
         x2="1799.95"
         y2="615.79498"
         style="fill:none;stroke:#fcc917;stroke-width:1.99960995;stroke-linecap:round;stroke-linejoin:round;stroke-opacity:1" />
      <line
         id="_126096056"
         class="fil5 str1"
         x1="1846.11"
         y1="629.13898"
         x2="1736.72"
         y2="568.43597"
         style="fill:none;stroke:#fcc917;stroke-width:1.99960995;stroke-linecap:round;stroke-linejoin:round;stroke-opacity:1" />
      <line
         id="_126095552"
         class="fil5 str1"
         x1="1753.63"
         y1="629.21698"
         x2="1863.28"
         y2="568.26599"
         style="fill:none;stroke:#fcc917;stroke-width:1.99960995;stroke-linecap:round;stroke-linejoin:round;stroke-opacity:1" />
      <polyline
         id="_126095048"
         class="fil5 str1"
         points="1787.92,545.083 1800,565.886 1812.08,545.083 "
         style="fill:none;stroke:#fcc917;stroke-width:1.99960995;stroke-linecap:round;stroke-linejoin:round;stroke-opacity:1" />
      <polyline
         id="_126094544"
         class="fil5 str1"
         points="1740.98,584.112 1765.04,584.054 1753.06,564.053 "
         style="fill:none;stroke:#fcc917;stroke-width:1.99960995;stroke-linecap:round;stroke-linejoin:round;stroke-opacity:1" />
      <polyline
         id="_126094040"
         class="fil5 str1"
         points="1859.02,583.941 1834.96,583.883 1846.94,563.882 "
         style="fill:none;stroke:#fcc917;stroke-width:1.99960995;stroke-linecap:round;stroke-linejoin:round;stroke-opacity:1" />
      <polyline
         id="_126093536"
         class="fil5 str1"
         points="1841.85,613.465 1817.79,613.522 1829.76,633.523 "
         style="fill:none;stroke:#fcc917;stroke-width:1.99960995;stroke-linecap:round;stroke-linejoin:round;stroke-opacity:1" />
      <polyline
         id="_126093032"
         class="fil5 str1"
         points="1757.89,613.541 1781.95,613.599 1769.98,633.6 "
         style="fill:none;stroke:#fcc917;stroke-width:1.99960995;stroke-linecap:round;stroke-linejoin:round;stroke-opacity:1" />
      <line
         id="_126092528"
         class="fil5 str1"
         x1="1960.86"
         y1="597.802"
         x2="1919.58"
         y2="669.31702"
         style="fill:none;stroke:#fcc917;stroke-width:1.99960995;stroke-linecap:round;stroke-linejoin:round;stroke-opacity:1" />
      <line
         id="_126092024"
         class="fil5 str1"
         x1="1952.88"
         y1="703.95502"
         x2="1888.5"
         y2="596.68903"
         style="fill:none;stroke:#fcc917;stroke-width:1.99960995;stroke-linecap:round;stroke-linejoin:round;stroke-opacity:1" />
      <line
         id="_126091520"
         class="fil5 str1"
         x1="1872.75"
         y1="657.78198"
         x2="1998.1899"
         y2="659.823"
         style="fill:none;stroke:#fcc917;stroke-width:1.99960995;stroke-linecap:round;stroke-linejoin:round;stroke-opacity:1" />
      <polyline
         id="_126091016"
         class="fil5 str1"
         points="1944.51,602.065 1944.57,626.119 1965.44,614.146 "
         style="fill:none;stroke:#fcc917;stroke-width:1.99960995;stroke-linecap:round;stroke-linejoin:round;stroke-opacity:1" />
      <polyline
         id="_126090512"
         class="fil5 str1"
         points="1884.35,612.396 1905.21,624.373 1904.84,601.065 "
         style="fill:none;stroke:#fcc917;stroke-width:1.99960995;stroke-linecap:round;stroke-linejoin:round;stroke-opacity:1" />
      <polyline
         id="_126090008"
         class="fil5 str1"
         points="1986.66,671.265 1965.86,659.189 1986.23,647.854 "
         style="fill:none;stroke:#fcc917;stroke-width:1.99960995;stroke-linecap:round;stroke-linejoin:round;stroke-opacity:1" />
      <polyline
         id="_126089504"
         class="fil5 str1"
         points="1957.03,688.248 1936.17,676.271 1936.53,699.58 "
         style="fill:none;stroke:#fcc917;stroke-width:1.99960995;stroke-linecap:round;stroke-linejoin:round;stroke-opacity:1" />
      <polyline
         id="_126089000"
         class="fil5 str1"
         points="1884.28,646.339 1905.09,658.416 1884.72,669.751 "
         style="fill:none;stroke:#fcc917;stroke-width:1.99960995;stroke-linecap:round;stroke-linejoin:round;stroke-opacity:1" />
      <line
         id="_126088496"
         class="fil5 str1"
         x1="1639.14"
         y1="597.48798"
         x2="1680.4301"
         y2="669.00403"
         style="fill:none;stroke:#fcc917;stroke-width:1.99960995;stroke-linecap:round;stroke-linejoin:round;stroke-opacity:1" />
      <line
         id="_126087992"
         class="fil5 str1"
         x1="1647.12"
         y1="703.64203"
         x2="1711.5"
         y2="596.375"
         style="fill:none;stroke:#fcc917;stroke-width:1.99960995;stroke-linecap:round;stroke-linejoin:round;stroke-opacity:1" />
      <line
         id="_126087488"
         class="fil5 str1"
         x1="1727.25"
         y1="657.46899"
         x2="1601.8101"
         y2="659.50897"
         style="fill:none;stroke:#fcc917;stroke-width:1.99960995;stroke-linecap:round;stroke-linejoin:round;stroke-opacity:1" />
      <polyline
         id="_126086976"
         class="fil5 str1"
         points="1655.49,601.752 1655.43,625.806 1634.56,613.833 "
         style="fill:none;stroke:#fcc917;stroke-width:1.99960995;stroke-linecap:round;stroke-linejoin:round;stroke-opacity:1" />
      <polyline
         id="_126086488"
         class="fil5 str1"
         points="1715.65,612.081 1694.79,624.059 1695.16,600.751 "
         style="fill:none;stroke:#fcc917;stroke-width:1.99960995;stroke-linecap:round;stroke-linejoin:round;stroke-opacity:1" />
      <polyline
         id="_126086016"
         class="fil5 str1"
         points="1613.34,670.952 1634.14,658.874 1613.77,647.539 "
         style="fill:none;stroke:#fcc917;stroke-width:1.99960995;stroke-linecap:round;stroke-linejoin:round;stroke-opacity:1" />
      <polyline
         id="_126085664"
         class="fil5 str1"
         points="1642.97,687.935 1663.84,675.958 1663.47,699.266 "
         style="fill:none;stroke:#fcc917;stroke-width:1.99960995;stroke-linecap:round;stroke-linejoin:round;stroke-opacity:1" />
      <polyline
         id="_126085312"
         class="fil5 str1"
         points="1715.72,646.026 1694.91,658.103 1715.28,669.438 "
         style="fill:none;stroke:#fcc917;stroke-width:1.99960995;stroke-linecap:round;stroke-linejoin:round;stroke-opacity:1" />
    </g>
    <g
       id="g13986">
      <path
         d="m 1800.16,792.217 c 45.411,-31.3134 87.7783,-73.148 118.825,-120.82"
         id="path604_6"
         style="fill:none;stroke:#d19938;stroke-width:10.99960041" />
      <path
         d="m 1800.25,792.217 c -45.4122,-31.3134 -87.7795,-73.148 -118.826,-120.82"
         id="path604_7"
         style="fill:none;stroke:#d19938;stroke-width:10.99960041" />
    </g>
  </g>
  <g
     transform="matrix(0.403759,0,0,0.378294,-623.41337,-108.10619)"
     id="Shield"
     style="fill:none;stroke:#144d29;stroke-opacity:1">
    <path
       d="m 1559.9714,299.9279 0.1548,346.04374 c 0.099,132.705 132.4003,254.16721 239.8553,300.03123 107.454,-45.86462 239.7564,-167.3262 239.8554,-300.03123 l 0.1548,-346.04374 -480.0203,0 z"
       id="path2087"
       style="fill:none;stroke:#144d29;stroke-width:10.23491287;stroke-miterlimit:4;stroke-opacity:1;stroke-dasharray:none" />
  </g>
</svg>
